<svg width="20" height="20" viewBox="0 0 20 20" fill="none" xmlns="http://www.w3.org/2000/svg">
<g clip-path="url(#clip0_10262_21555)">
<path d="M9.78556 19.9996C9.23755 19.9147 8.82002 19.6204 8.44408 19.2475C8.14724 18.9532 7.82675 18.6805 7.52583 18.3894C7.32644 18.1964 7.10096 18.1354 6.82328 18.1781C6.3083 18.2579 5.79209 18.3295 5.27466 18.3917C4.13093 18.5287 3.30279 17.9194 3.114 16.8155C3.03286 16.3408 2.94194 15.8677 2.86039 15.3931C2.81635 15.136 2.67853 14.9572 2.43388 14.8378C1.96946 14.6108 1.51034 14.3725 1.0508 14.1358C0.0628326 13.6271 -0.263365 12.6695 0.221854 11.7003C0.447746 11.2491 0.674453 10.7983 0.910539 10.3522C1.03776 10.1119 1.03816 9.88614 0.910947 9.64548C0.672007 9.19351 0.441222 8.73724 0.214107 8.2798C-0.258064 7.32773 0.0665023 6.37332 1.03205 5.87087C1.48465 5.6353 1.93725 5.39934 2.39759 5.17942C2.67935 5.04481 2.82369 4.84407 2.87017 4.54745C2.94764 4.05283 3.03694 3.559 3.14092 3.06868C3.3664 2.00353 4.23572 1.4416 5.35661 1.61495C5.86467 1.69361 6.37557 1.757 6.88485 1.82783C7.13154 1.86226 7.33419 1.78791 7.51156 1.62004C7.88302 1.26786 8.261 0.922331 8.63653 0.573671C9.45977 -0.190172 10.5138 -0.192911 11.3342 0.567801C11.7048 0.911374 12.0804 1.25064 12.4441 1.60087C12.6496 1.79887 12.8791 1.86305 13.1642 1.81844C13.6787 1.73822 14.1949 1.66348 14.7128 1.60478C15.8459 1.47682 16.6618 2.07083 16.8588 3.15438C16.946 3.63452 17.0337 4.11505 17.1156 4.59598C17.1593 4.85268 17.2926 5.03346 17.536 5.15555C18.0759 5.42634 18.6194 5.69361 19.1425 5.99257C19.6522 6.2841 19.9173 6.74076 19.9719 7.30856C19.9768 7.35904 19.9903 7.40873 19.9996 7.45882V7.57582C19.9527 7.73665 19.9266 7.90609 19.8557 8.05596C19.6066 8.58111 19.3493 9.10273 19.0793 9.61809C18.9427 9.87909 18.9501 10.1135 19.0781 10.3772C19.4047 11.0495 19.8365 11.6791 19.9996 12.4195V12.5365C19.9903 12.5866 19.9764 12.6363 19.9719 12.6864C19.9181 13.2542 19.653 13.7104 19.1438 14.0016C18.6214 14.3005 18.0783 14.5674 17.5389 14.8382C17.2955 14.9603 17.1605 15.1395 17.1164 15.3958C17.0345 15.8767 16.9383 16.3553 16.8612 16.8366C16.6924 17.8912 15.8133 18.513 14.8208 18.398C14.27 18.3342 13.7195 18.2638 13.1715 18.1788C12.8779 18.1334 12.6439 18.1976 12.4347 18.4023C12.1456 18.6856 11.8337 18.9478 11.5466 19.2326C11.1666 19.6095 10.7474 19.9127 10.1917 19.9977H9.78475L9.78556 19.9996ZM5.00065 2.73411C4.64183 2.72941 4.39515 2.91137 4.33439 3.21503C4.24469 3.66191 4.1452 4.1084 4.09097 4.55958C3.99352 5.36608 3.58903 5.9374 2.81146 6.27706C2.39922 6.45706 2.00656 6.67893 1.60656 6.88477C1.19352 7.09725 1.09769 7.38643 1.30401 7.79496C1.53154 8.24536 1.75539 8.69733 1.99107 9.14381C2.29525 9.72022 2.29199 10.2888 1.98658 10.864C1.75621 11.2984 1.53929 11.7394 1.31706 12.1777C1.0928 12.6206 1.18495 12.8973 1.6347 13.127C2.09504 13.3622 2.55458 13.5989 3.01696 13.8302C3.60738 14.1256 3.94173 14.5901 4.04734 15.2186C4.13133 15.719 4.22471 16.2184 4.32257 16.7165C4.40493 17.1356 4.67812 17.314 5.11033 17.2522C5.62614 17.1783 6.14316 17.1106 6.65896 17.0362C7.33786 16.9384 7.91237 17.1278 8.39759 17.5926C8.76212 17.9421 9.13602 18.2829 9.50789 18.6253C9.82756 18.92 10.1529 18.9192 10.4738 18.6234C10.8649 18.2626 11.2535 17.899 11.6437 17.5375C12.0734 17.1395 12.5807 16.9501 13.1801 17.0256C13.7444 17.0965 14.3075 17.1736 14.8706 17.2522C15.2934 17.3113 15.5748 17.1329 15.6535 16.7341C15.7379 16.3064 15.8373 15.8791 15.8871 15.4471C15.9813 14.6308 16.3935 14.0575 17.1772 13.7151C17.5833 13.5379 17.9699 13.3191 18.3642 13.1168C18.7894 12.8985 18.8832 12.6152 18.6704 12.1937C18.4429 11.7433 18.2178 11.2921 17.9837 10.8449C17.6889 10.2818 17.6869 9.72296 17.9801 9.15947C18.2129 8.71181 18.4392 8.26101 18.6671 7.811C18.8857 7.37978 18.7919 7.0996 18.354 6.87537C17.894 6.6398 17.4345 6.40267 16.9717 6.17218C16.3731 5.87479 16.0359 5.40599 15.9311 4.76933C15.8475 4.26219 15.7505 3.757 15.6518 3.25221C15.578 2.87459 15.2979 2.68793 14.8995 2.74233C14.3829 2.81276 13.8663 2.88007 13.3513 2.95872C12.6655 3.06399 12.082 2.88868 11.5903 2.41323C11.2225 2.05753 10.8429 1.71357 10.4657 1.36686C10.1534 1.07964 9.82715 1.08003 9.51441 1.36764C9.14214 1.71004 8.76579 2.04814 8.40452 2.40071C7.89158 2.90159 7.28444 3.06986 6.56844 2.94972C6.03511 2.86011 5.49606 2.80141 5.00187 2.7345L5.00065 2.73411Z" fill="#004A2A"/>
<path d="M14.5955 6.22139C14.5131 6.35717 14.4515 6.51018 14.3447 6.62483C14.1188 6.86705 13.8697 7.08893 13.6299 7.31863C11.2715 9.58237 8.91312 11.8461 6.55552 14.1106C6.40873 14.2515 6.2599 14.3791 6.03483 14.3779C5.78773 14.3767 5.60221 14.2723 5.49171 14.0637C5.38121 13.8547 5.40282 13.6481 5.54961 13.4579C5.5859 13.4114 5.62912 13.3691 5.67234 13.328C8.26521 10.8385 10.8589 8.34935 13.4513 5.85903C13.5892 5.72638 13.736 5.62033 13.9431 5.61916C14.2831 5.61681 14.5523 5.87038 14.5955 6.221V6.22139Z" fill="#004A2A"/>
<path d="M7.5902 9.03376C6.37715 9.03728 5.39163 8.09735 5.38674 6.93162C5.38184 5.77138 6.36451 4.8154 7.57104 4.80719C8.78164 4.79858 9.78633 5.75847 9.78674 6.92341C9.78674 8.08561 8.80325 9.03063 7.5902 9.03415V9.03376ZM8.58266 6.95119C8.60427 6.437 8.17695 5.99208 7.63995 5.97056C7.06502 5.94747 6.60427 6.35639 6.58551 6.90541C6.56839 7.41881 7.01487 7.86686 7.56125 7.88447C8.09948 7.90208 8.55983 7.48103 8.58225 6.95119H8.58266Z" fill="#004A2A"/>
<path d="M12.3937 10.9653C13.6104 10.9661 14.5886 11.9041 14.591 13.0718C14.5935 14.2387 13.5928 15.1978 12.3806 15.1903C11.1753 15.1833 10.1886 14.2269 10.1914 13.069C10.1947 11.906 11.1798 10.9645 12.3932 10.9653H12.3937ZM12.3965 14.0297C12.9478 14.0274 13.3918 13.602 13.3926 13.0753C13.3935 12.5552 12.9421 12.1189 12.3977 12.1138C11.8485 12.1087 11.3853 12.556 11.3939 13.0839C11.402 13.6153 11.8436 14.0317 12.3965 14.0297Z" fill="#004A2A"/>
</g>
<defs>
<clipPath id="clip0_10262_21555">
<rect width="20" height="20" fill="white"/>
</clipPath>
</defs>
</svg>
