<svg width="94" height="36" viewBox="0 0 94 36" fill="none" xmlns="http://www.w3.org/2000/svg">
<path fill-rule="evenodd" clip-rule="evenodd" d="M15.6956 13.7998L14.0557 17.8248C14.9928 17.2415 15.9298 16.5998 16.984 15.9581L15.9884 13.5665C15.8713 13.6248 15.7541 13.7415 15.6956 13.7998Z" fill="#c9d8f7"/>
<path fill-rule="evenodd" clip-rule="evenodd" d="M12.9423 16.1915C9.95542 18.9915 7.08565 22.1998 4.33301 26.0498C4.33301 26.0498 6.79282 23.1915 11.5953 19.5748L12.9423 16.1915Z" fill="#c9d8f7"/>
<path fill-rule="evenodd" clip-rule="evenodd" d="M19.0342 11.2333L20.2641 14.0917C34.2616 6.68337 57.2784 0.558376 88.9632 11.8751C88.9632 11.8751 50.5432 -10.8749 19.0342 11.2333Z" fill="#c9d8f7"/>
<path d="M26.8809 25.8164H18.2129V25.5247C18.9743 25.4664 19.56 25.3497 19.8528 25.1747C20.3799 24.8247 20.6727 24.4164 20.6727 23.833C20.6727 23.483 20.5556 23.0164 20.3213 22.433L20.0871 21.908L18.7986 18.933H13.0005L12.2977 20.683L11.9463 21.4414C11.5363 22.3747 11.3606 23.0747 11.3606 23.5997C11.3606 23.8914 11.4192 24.183 11.5949 24.4747C11.712 24.7664 11.9463 24.9414 12.1806 25.1164C12.532 25.3497 12.9419 25.4664 13.469 25.5247V25.8164H7.6709V25.5247C8.13943 25.5247 8.54939 25.408 8.90076 25.1747C9.25216 24.9997 9.60356 24.6497 9.95497 24.2414C10.2479 23.8914 10.4821 23.483 10.775 22.8997C11.0678 22.3747 11.4192 21.558 11.8292 20.4497L16.5731 8.66638H17.3344L23.074 21.8497C23.4839 22.8414 23.8353 23.5414 24.1282 24.008C24.3624 24.4164 24.6553 24.7664 24.9481 24.9997C25.1824 25.1747 25.4167 25.2914 25.6509 25.3497C25.9438 25.408 26.3538 25.5247 26.8809 25.583V25.8164ZM18.6229 18.408L15.8703 11.933L13.2933 18.408H18.6229Z" fill="#c9d8f7"/>
<path d="M30.8644 15.6088V22.1422V23.0755C30.8644 23.6588 30.923 24.0672 30.9816 24.3005C31.0401 24.5922 31.2158 24.7672 31.3915 24.9422C31.6258 25.1755 32.0943 25.3504 32.7386 25.4672V25.7588H26.9404V25.4672C27.4675 25.4088 27.8189 25.2922 28.0531 25.1755C28.2874 25.0588 28.4631 24.8255 28.5803 24.5338C28.6974 24.3588 28.7559 24.0672 28.7559 23.6588C28.8145 23.2505 28.8145 22.7255 28.8145 21.9672V15.6088H26.8818V15.1422H28.8145V12.1088C28.8145 11.3505 28.9317 10.7672 29.1074 10.3588C29.2831 9.95052 29.6345 9.54216 30.1616 9.19215C30.6302 8.90048 31.1573 8.60881 31.8601 8.43381C32.5043 8.25881 33.2071 8.14215 33.9685 8.14215C34.6713 8.14215 35.1984 8.25882 35.6083 8.49215C36.0183 8.72548 36.2526 9.01715 36.2526 9.36716C36.2526 9.60052 36.194 9.8338 36.0183 10.0088C35.8426 10.1838 35.6669 10.2422 35.3741 10.2422C35.1398 10.2422 34.9055 10.1838 34.7298 10.0672C34.5541 9.95052 34.3784 9.77552 34.2027 9.4838C33.9685 9.07548 33.7342 8.84215 33.6171 8.72548C33.4414 8.60881 33.2657 8.55048 32.9728 8.55048C32.6214 8.55048 32.3286 8.60881 32.0358 8.72548C31.7429 8.84215 31.5087 9.01715 31.333 9.25052C31.1573 9.4838 31.0401 9.77552 30.923 10.1838C30.8644 10.5922 30.8059 11.1172 30.8059 11.8172V15.1422H33.3828V15.6088H30.8644Z" fill="#c9d8f7"/>
<path d="M38.4191 15.6088V22.1422V23.0755C38.4191 23.6588 38.4777 24.0672 38.5362 24.3005C38.5948 24.5922 38.7705 24.7672 38.9462 24.9422C39.1805 25.1755 39.649 25.3504 40.2932 25.4672V25.7588H34.4951V25.4672C35.0222 25.4088 35.3736 25.2922 35.6079 25.1755C35.8422 25.0588 36.0179 24.8255 36.135 24.5338C36.2521 24.3588 36.3107 24.0672 36.3107 23.6588C36.3693 23.2505 36.3693 22.7255 36.3693 21.9672V15.6088H34.5537V15.1422H36.4864V12.1088C36.4864 11.3505 36.6035 10.7672 36.7792 10.3588C36.9549 9.95052 37.3063 9.54216 37.8334 9.19215C38.302 8.90048 38.8291 8.60881 39.5319 8.43381C40.1761 8.25881 40.8789 8.14215 41.6403 8.14215C42.3431 8.14215 42.8702 8.25882 43.2802 8.49215C43.6902 8.72548 43.9244 9.01715 43.9244 9.36716C43.9244 9.60052 43.8659 9.8338 43.6902 10.0088C43.5145 10.1838 43.3388 10.2422 43.0459 10.2422C42.8117 10.2422 42.5774 10.1838 42.4017 10.0672C42.226 9.95052 42.0503 9.77552 41.8746 9.4838C41.6403 9.07548 41.4061 8.84215 41.2889 8.72548C41.1132 8.60881 40.9375 8.55048 40.6446 8.55048C40.2932 8.55048 40.0004 8.60881 39.7076 8.72548C39.4147 8.84215 39.1804 9.01715 39.0047 9.25052C38.829 9.4838 38.7119 9.77552 38.5948 10.1838C38.5362 10.5922 38.4776 11.1172 38.4776 11.8172V15.1422H41.0546V15.6088H38.4191Z" fill="#c9d8f7"/>
<path d="M42.167 15.4336L45.9738 14.9669V22.2003V23.1336C45.9738 23.7169 46.0324 24.1253 46.0909 24.3586C46.1495 24.5919 46.3252 24.8253 46.5009 25.0003C46.7352 25.2336 47.2037 25.4086 47.8479 25.5253V25.8169H42.0498V25.5253C42.5769 25.4669 42.9283 25.3503 43.1626 25.2336C43.3969 25.1169 43.5726 24.8836 43.6897 24.5919C43.8068 24.4169 43.8654 24.1253 43.8654 23.7169C43.924 23.3086 43.924 22.7836 43.924 22.0253V18.9336C43.924 18.0586 43.924 17.4753 43.8654 17.1253C43.8068 16.7753 43.7483 16.4836 43.5726 16.3086C43.3969 16.0753 43.2212 15.9003 43.0455 15.7836C42.8112 15.6669 42.5184 15.6086 42.1084 15.6086V15.4336H42.167ZM44.9196 12.9836C44.5682 12.9836 44.2754 12.8669 44.0411 12.6919C43.8068 12.4586 43.6897 12.2253 43.6897 11.8753C43.6897 11.5836 43.8068 11.2919 44.0411 11.1169C44.2754 10.8836 44.5682 10.8253 44.861 10.8253C45.2124 10.8253 45.5053 10.9419 45.681 11.1169C45.9152 11.3503 46.0324 11.5836 46.0324 11.8753C46.0324 12.1669 45.9152 12.4586 45.681 12.6919C45.5638 12.8669 45.271 12.9836 44.9196 12.9836Z" fill="#c9d8f7"/>
<path d="M52.3001 14.9668C52.4172 15.4334 52.4758 15.9001 52.4758 16.3084V16.4834C53.5885 15.4334 54.877 14.9084 56.3412 14.9084C57.4539 14.9084 58.391 15.1418 59.0352 15.6668C59.738 16.1334 60.0309 16.8334 60.0309 17.7668V23.0751C60.0309 23.6584 60.0894 24.0668 60.148 24.3001C60.2066 24.5918 60.3823 24.7668 60.558 24.9418C60.7922 25.1751 61.2608 25.3501 61.905 25.4668V25.7584H56.1069V25.4668C56.634 25.4084 56.9854 25.2918 57.2197 25.1751C57.4539 25.0584 57.6296 24.8251 57.7468 24.5334C57.8639 24.3584 57.9225 24.0668 57.9225 23.6584C57.981 23.2501 57.981 22.7251 57.981 21.9668V19.3418C57.981 18.4084 57.9225 17.7668 57.8639 17.3584C57.8053 16.9501 57.6882 16.6001 57.5125 16.3084C57.3368 16.0168 57.044 15.7834 56.634 15.6084C56.2826 15.4334 55.8141 15.3751 55.4041 15.3751C54.9356 15.3751 54.467 15.4918 54.0571 15.6668C53.6471 15.8418 53.2957 16.0751 53.0614 16.4251C52.8272 16.7751 52.6515 17.1251 52.5343 17.5334C52.4758 17.9418 52.4172 18.6418 52.4172 19.6334V22.0834V23.0168C52.4172 23.6001 52.4758 24.0084 52.5343 24.2418C52.5929 24.5334 52.7686 24.7084 52.9443 24.8834C53.1786 25.1168 53.6471 25.2918 54.2913 25.4084V25.7001H48.4932V25.4084C49.0203 25.3501 49.3717 25.2334 49.606 25.1168C49.8402 25.0001 50.016 24.7668 50.1331 24.4751C50.2502 24.3001 50.3088 24.0084 50.3674 23.6001C50.4259 23.1918 50.4259 22.6668 50.4259 21.9084V18.8168C50.4259 17.9418 50.4259 17.3584 50.3674 17.0084C50.3088 16.6584 50.2502 16.3668 50.0745 16.1918C49.8988 15.9584 49.7231 15.7834 49.5474 15.6668C49.3131 15.5501 49.0203 15.4918 48.6689 15.4918V15.2584L52.3001 14.9668Z" fill="#c9d8f7"/>
<path d="M62.7255 15.4336L66.5324 14.9669V22.2003V23.1336C66.5324 23.7169 66.5909 24.1253 66.6495 24.3586C66.7081 24.5919 66.8838 24.8253 67.0595 25.0003C67.2937 25.2336 67.7623 25.4086 68.4065 25.5253V25.8169H62.6084V25.5253C63.1355 25.4669 63.4869 25.3503 63.7212 25.2336C63.9554 25.1169 64.1311 24.8836 64.2483 24.5919C64.3654 24.4169 64.424 24.1253 64.424 23.7169C64.4825 23.3086 64.4825 22.7836 64.4825 22.0253V18.9336C64.4825 18.0586 64.4825 17.4753 64.424 17.1253C64.3654 16.7753 64.3068 16.4836 64.1311 16.3086C63.9554 16.0753 63.7797 15.9003 63.604 15.7836C63.3698 15.6669 63.0769 15.6086 62.7255 15.6086V15.4336ZM65.4782 12.9836C65.1268 12.9836 64.8339 12.8669 64.5997 12.6919C64.3654 12.4586 64.2483 12.2253 64.2483 11.8753C64.2483 11.5836 64.3654 11.2919 64.5997 11.1169C64.8339 10.8836 65.1268 10.8253 65.4196 10.8253C65.771 10.8253 66.0638 10.9419 66.2395 11.1169C66.4738 11.3503 66.5909 11.5836 66.5909 11.8753C66.5909 12.1669 66.4738 12.4586 66.2395 12.6919C66.1224 12.8669 65.8296 12.9836 65.4782 12.9836Z" fill="#c9d8f7"/>
<path d="M72.5063 15.1416H75.8446V15.6084H72.5063V22.9C72.5063 23.775 72.682 24.4166 72.9748 24.7666C73.1505 25 73.3848 25.1166 73.619 25.2334C73.9119 25.35 74.2047 25.4084 74.4975 25.4084C74.9075 25.4084 75.2003 25.35 75.4932 25.175C75.7274 25 76.0203 24.7666 76.3717 24.3L76.5474 24.475C76.2545 25 75.8446 25.35 75.3175 25.5834C74.7904 25.8166 74.1461 25.9334 73.3848 25.9334C72.3306 25.9334 71.5692 25.7584 71.1007 25.35C70.8664 25.175 70.6907 24.8834 70.5736 24.65C70.515 24.3584 70.4564 23.8916 70.4564 23.1334V15.55H69.1094V15.375C69.6951 15.2 70.2222 14.85 70.6907 14.3834C70.9835 14.0916 71.2178 13.7416 71.3935 13.45C71.5692 13.1584 71.7449 12.75 71.9206 12.2834L72.0377 11.875H72.5063V15.1416Z" fill="#c9d8f7"/>
<path d="M75.7275 15.1422H80.8228V15.4338C80.4714 15.4922 80.1786 15.5505 80.0615 15.6088C79.7101 15.7838 79.5344 16.0755 79.5344 16.4838C79.5344 16.8338 79.7101 17.4172 80.0615 18.2922L82.287 23.6588L84.2197 19.1672C84.6882 18.0588 84.9225 17.2421 84.9225 16.7755C84.9225 16.4255 84.8054 16.0755 84.5711 15.9005C84.3368 15.6672 84.044 15.5505 83.634 15.4922V15.2005H87.3823V15.4922C87.0309 15.6088 86.7381 15.7255 86.5624 15.7838C86.3867 15.9005 86.211 16.0755 86.0353 16.3088C85.801 16.6588 85.391 17.4755 84.8054 18.7588L80.9986 27.5672C80.53 28.6171 80.1786 29.3171 79.8858 29.6088C79.4172 30.1338 78.8316 30.4255 78.0702 30.4255C77.6017 30.4255 77.2503 30.3671 76.9575 30.1921C76.6646 30.0171 76.5474 29.7838 76.5474 29.4921C76.5474 29.2588 76.606 29.0838 76.7817 28.9671C76.9574 28.8505 77.1917 28.7921 77.426 28.7921C77.6603 28.7921 77.8945 28.8505 78.1874 28.9671C78.4802 29.0838 78.6559 29.1421 78.773 29.1421C78.8316 29.1421 78.9487 29.2005 79.0659 29.2005C79.593 29.2005 80.0615 28.7921 80.4129 28.0338L80.8228 27.1005C80.9985 26.6921 81.0571 26.4005 81.0571 26.1671C81.0571 25.8755 80.8814 25.2921 80.53 24.5338L77.7774 18.2922L77.3674 17.4172C77.1332 16.8922 76.9575 16.4838 76.8403 16.2505C76.7232 16.0172 76.5475 15.8422 76.4304 15.7838C76.1961 15.6088 75.9618 15.5505 75.6689 15.4922V15.1422H75.7275Z" fill="#c9d8f7"/>
<path d="M75.1986 28.8503H9.83789V29.492H75.1986V28.8503Z" fill="#c9d8f7"/>
<path d="M86.6785 28.8503H81.9346V29.492H86.6785V28.8503Z" fill="#c9d8f7"/>
<path d="M15.344 31.4753V32.3503H15.2268C15.2268 32.1753 15.1683 32.0587 15.1097 31.942C15.0511 31.8253 14.934 31.767 14.8169 31.7087C14.6997 31.6503 14.5826 31.592 14.4655 31.592C14.3483 31.592 14.2312 31.6503 14.1141 31.7087C13.9969 31.767 13.9969 31.8837 13.9969 32.0003C13.9969 32.0587 13.9969 32.1753 14.0555 32.2337C14.1141 32.3503 14.3483 32.467 14.6412 32.642C14.8754 32.7587 15.0511 32.8753 15.1683 32.9337C15.2854 32.992 15.344 33.1087 15.4025 33.167C15.4611 33.2837 15.4611 33.342 15.4611 33.4587C15.4611 33.6337 15.4025 33.8087 15.2268 33.9837C15.0511 34.1003 14.8754 34.217 14.5826 34.217C14.524 34.217 14.4069 34.217 14.3483 34.217C14.2898 34.217 14.2312 34.1587 14.1141 34.1587C13.9969 34.1003 13.8798 34.1003 13.8798 34.1003C13.8212 34.1003 13.8212 34.1003 13.8212 34.1003C13.8212 34.1003 13.7627 34.1587 13.7627 34.217H13.7041V33.342H13.7627C13.8212 33.517 13.8212 33.692 13.8798 33.7503C13.9384 33.867 14.0555 33.9253 14.1726 33.9837C14.2898 34.042 14.4069 34.1003 14.5826 34.1003C14.7583 34.1003 14.8754 34.042 14.9926 33.9837C15.1097 33.9253 15.1097 33.8087 15.1097 33.692C15.1097 33.6337 15.1097 33.5753 15.0511 33.517C14.9926 33.4587 14.934 33.4003 14.8754 33.342C14.8169 33.2837 14.6997 33.2253 14.4655 33.1087C14.2312 32.992 14.0555 32.8753 13.9969 32.817C13.8798 32.7587 13.8212 32.642 13.7627 32.5837C13.7041 32.467 13.7041 32.4087 13.7041 32.292C13.7041 32.117 13.7627 31.942 13.9384 31.8253C14.1141 31.7087 14.2898 31.6503 14.524 31.6503C14.6412 31.6503 14.8169 31.7087 14.9926 31.767C15.0511 31.8253 15.1097 31.8253 15.1683 31.8253C15.2268 31.8253 15.2268 31.8253 15.2268 31.767C15.2268 31.767 15.2854 31.7087 15.2854 31.6503H15.344V31.4753Z" fill="#c9d8f7"/>
<path d="M19.5026 31.6505V32.7005H20.0882C20.2639 32.7005 20.3225 32.7005 20.3811 32.6422C20.4396 32.5839 20.4982 32.4672 20.4982 32.3505H20.5568V33.2255H20.4982C20.4982 33.1089 20.4396 32.9922 20.4396 32.9922C20.4396 32.9339 20.3811 32.9339 20.3225 32.8755C20.2639 32.8755 20.2054 32.8172 20.0882 32.8172H19.5026V33.6922C19.5026 33.8089 19.5026 33.8672 19.5026 33.9255C19.5026 33.9255 19.5026 33.9839 19.5611 33.9839C19.5611 33.9839 19.6197 33.9839 19.7368 33.9839H20.2054C20.3811 33.9839 20.4982 33.9839 20.5568 33.9255C20.6153 33.9255 20.6739 33.8672 20.7325 33.8089C20.791 33.7505 20.9082 33.6339 20.9667 33.4589H21.0839L20.8496 34.1005H18.7412V34.0422H18.8583C18.9169 34.0422 18.9755 34.0422 19.034 33.9839C19.0926 33.9839 19.0926 33.9255 19.0926 33.8672C19.0926 33.8089 19.0926 33.7505 19.0926 33.6339V31.9422C19.0926 31.7672 19.0926 31.6505 19.034 31.6505C18.9755 31.5922 18.9169 31.5922 18.7998 31.5922H18.7412V31.5339H20.8496L20.9082 32.1172H20.8496C20.8496 32.0005 20.791 31.8839 20.7325 31.8255C20.6739 31.7672 20.6739 31.7089 20.5568 31.7089C20.4982 31.7089 20.3811 31.7089 20.2639 31.7089H19.5026V31.6505Z" fill="#c9d8f7"/>
<path d="M26.6464 31.4753L26.7049 32.292H26.6464C26.5878 32.117 26.4707 31.942 26.3535 31.8253C26.1778 31.6503 26.0021 31.592 25.7093 31.592C25.3579 31.592 25.1236 31.7087 24.9479 32.0003C24.7722 32.2337 24.7137 32.467 24.7137 32.7587C24.7137 32.992 24.7722 33.2253 24.8894 33.4587C25.0065 33.6337 25.1236 33.8087 25.2993 33.9253C25.475 34.042 25.6507 34.042 25.8264 34.042C25.9436 34.042 26.0021 34.042 26.1193 33.9837C26.2364 33.9837 26.295 33.9253 26.4121 33.867V33.1087C26.4121 32.992 26.4121 32.8753 26.3535 32.8753C26.3535 32.817 26.295 32.817 26.2364 32.7587C26.1778 32.7587 26.1193 32.7003 26.0021 32.7003V32.642H27.0563V32.7003H26.9978C26.8806 32.7003 26.8221 32.7587 26.7635 32.817C26.7635 32.8753 26.7049 32.9337 26.7049 33.1087V33.9253C26.5292 33.9837 26.4121 34.042 26.2364 34.1003C26.0607 34.1587 25.9436 34.1587 25.7093 34.1587C25.1822 34.1587 24.7722 33.9837 24.538 33.692C24.3623 33.4587 24.2451 33.167 24.2451 32.8753C24.2451 32.642 24.3037 32.4087 24.4208 32.2337C24.538 32.0003 24.7722 31.767 25.0065 31.6503C25.1822 31.5337 25.4165 31.4753 25.7093 31.4753C25.8264 31.4753 25.885 31.4753 26.0021 31.4753C26.0607 31.4753 26.1778 31.5337 26.3535 31.592C26.4121 31.592 26.4707 31.6503 26.5292 31.6503C26.5292 31.6503 26.5878 31.6503 26.5878 31.592C26.5878 31.5337 26.5878 31.5337 26.6464 31.4753Z" fill="#c9d8f7"/>
<path d="M32.0343 31.5922V31.5339H32.9714V31.5922H32.8542C32.7371 31.5922 32.6785 31.6505 32.62 31.7089C32.62 31.7672 32.5614 31.8255 32.5614 32.0005V33.0505C32.5614 33.2839 32.5614 33.5171 32.5028 33.6339C32.4443 33.7505 32.3271 33.9255 32.21 33.9839C32.0343 34.1005 31.8586 34.1589 31.5658 34.1589C31.2729 34.1589 31.0387 34.1005 30.863 33.9839C30.6873 33.8671 30.6287 33.7505 30.5116 33.5755C30.453 33.4589 30.453 33.2255 30.453 32.9339V31.9422C30.453 31.7672 30.453 31.6505 30.3944 31.6505C30.3359 31.5922 30.2773 31.5922 30.1602 31.5922H30.043V31.5339H31.2144V31.5922H31.0972C30.9801 31.5922 30.9215 31.6505 30.863 31.7089C30.8044 31.7672 30.8044 31.8255 30.8044 32.0005V33.1089C30.8044 33.2255 30.8044 33.3422 30.8044 33.4589C30.8044 33.5755 30.863 33.6921 30.9215 33.7505C30.9801 33.8089 31.0387 33.8671 31.1558 33.9255C31.2729 33.9839 31.3901 33.9839 31.5072 33.9839C31.6829 33.9839 31.8586 33.9255 31.9757 33.8671C32.0929 33.8089 32.21 33.6921 32.2686 33.5755C32.3271 33.4589 32.3271 33.2839 32.3271 32.9921V31.9422C32.3271 31.7672 32.3271 31.6505 32.2686 31.6505C32.21 31.5922 32.1514 31.5922 32.0343 31.5922Z" fill="#c9d8f7"/>
<path d="M38.7703 34.1003H38.0675L37.1304 32.8753C37.0719 32.8753 37.0133 32.8753 36.9547 32.8753H36.8962H36.8376V33.6337C36.8376 33.8087 36.8376 33.9253 36.8962 33.9253C36.9547 33.9837 37.0133 33.9837 37.1304 33.9837H37.2476V34.042H36.0762V33.9837H36.1934C36.3105 33.9837 36.3691 33.9253 36.4276 33.867C36.4276 33.8087 36.4862 33.7503 36.4862 33.5753V31.8837C36.4862 31.7087 36.4862 31.592 36.4276 31.592C36.3691 31.5337 36.3105 31.5337 36.1934 31.5337H36.0762V31.4753H37.0719C37.3647 31.4753 37.599 31.4753 37.7161 31.5337C37.8332 31.592 37.9504 31.6503 38.0675 31.767C38.1846 31.8837 38.1846 32.0003 38.1846 32.1753C38.1846 32.3503 38.1261 32.467 38.0089 32.5837C37.8918 32.7003 37.7161 32.7587 37.4818 32.817L38.0675 33.5753C38.1846 33.7503 38.3018 33.867 38.4189 33.9253C38.536 33.9837 38.6532 34.042 38.7703 34.042V34.1003ZM36.8376 32.7587H36.8962H36.9547C37.189 32.7587 37.4233 32.7003 37.5404 32.5837C37.6575 32.467 37.7161 32.3503 37.7161 32.1753C37.7161 32.0003 37.6575 31.8837 37.5404 31.767C37.4233 31.6503 37.3061 31.592 37.1304 31.592C37.0719 31.592 36.9547 31.592 36.8376 31.6503V32.7587Z" fill="#c9d8f7"/>
<path d="M43.1625 31.4753C43.5139 31.4753 43.8067 31.592 44.0995 31.8837C44.3338 32.117 44.5095 32.467 44.5095 32.817C44.5095 33.2253 44.3924 33.517 44.0995 33.8087C43.8653 34.042 43.5139 34.217 43.1625 34.217C42.8111 34.217 42.4597 34.1003 42.2254 33.867C41.9911 33.6337 41.8154 33.2837 41.8154 32.8753C41.8154 32.467 41.9911 32.117 42.284 31.8837C42.5182 31.5337 42.8111 31.4753 43.1625 31.4753ZM43.1039 31.592C42.8696 31.592 42.6939 31.6503 42.5182 31.8253C42.3425 32.0587 42.2254 32.3503 42.2254 32.7587C42.2254 33.167 42.3425 33.517 42.5182 33.7503C42.6354 33.9253 42.8696 33.9837 43.1039 33.9837C43.3382 33.9837 43.5724 33.867 43.7481 33.692C43.9238 33.517 43.9824 33.2253 43.9824 32.817C43.9824 32.3503 43.8653 32.0587 43.6896 31.8253C43.5724 31.6503 43.3967 31.592 43.1039 31.592Z" fill="#c9d8f7"/>
<path d="M54.4069 31.5339V31.5922C54.2898 31.5922 54.2312 31.6505 54.1727 31.7089C54.1141 31.7672 54.0555 31.8839 53.997 32.0005L53.0599 34.2172H53.0013L52.0057 32.0005C51.9471 31.8839 51.8886 31.8255 51.8886 31.7672C51.83 31.7089 51.83 31.7089 51.7714 31.6505C51.7129 31.6505 51.6543 31.5922 51.5957 31.5922V31.5339H52.7085V31.5922C52.5914 31.5922 52.4742 31.6505 52.4742 31.6505C52.4157 31.6505 52.4157 31.7089 52.4157 31.7672C52.4157 31.8255 52.4742 31.9422 52.5328 32.0589L53.2356 33.5755L53.8798 32.0589C53.9384 31.8839 53.997 31.8255 53.997 31.7672C53.997 31.7089 53.997 31.7089 53.9384 31.6505C53.8798 31.5922 53.8213 31.5922 53.7627 31.5922C53.7627 31.5922 53.7627 31.5922 53.7041 31.5922V31.5339H54.4069Z" fill="#c9d8f7"/>
<path d="M58.683 34.0422V34.1005H57.5117V34.0422H57.6289C57.746 34.0422 57.8046 33.9839 57.8631 33.9255C57.9217 33.8672 57.9217 33.8089 57.9217 33.6339V31.9422C57.9217 31.8255 57.9217 31.7089 57.9217 31.7089C57.9217 31.6505 57.8631 31.6505 57.8631 31.6505C57.8046 31.5922 57.746 31.5922 57.6874 31.5922H57.5703V31.5339H58.7416V31.5922H58.5659C58.4488 31.5922 58.3902 31.6505 58.3316 31.7089C58.2731 31.7672 58.2731 31.8255 58.2731 32.0005V33.6922C58.2731 33.8089 58.2731 33.9255 58.2731 33.9255C58.2731 33.9839 58.3316 33.9839 58.3316 33.9839C58.3902 34.0422 58.4488 34.0422 58.5073 34.0422H58.683Z" fill="#c9d8f7"/>
<path d="M63.6037 33.2253H62.5494L62.3737 33.6337C62.3152 33.7503 62.3152 33.8087 62.3152 33.867C62.3152 33.9253 62.3152 33.9253 62.3737 33.9837C62.4323 34.042 62.4909 34.042 62.608 34.042V34.1003H61.7295V34.042C61.8466 34.042 61.9052 33.9837 61.9638 33.9837C62.0223 33.9253 62.0809 33.8087 62.198 33.6337L63.1351 31.4753H63.1937L64.1308 33.6337C64.1893 33.8087 64.2479 33.9253 64.365 33.9837C64.4236 34.042 64.5407 34.042 64.5993 34.042V34.1003H63.5451V34.042C63.6622 34.042 63.7208 34.042 63.7794 33.9837C63.8379 33.9253 63.8379 33.9253 63.8379 33.867C63.8379 33.8087 63.8379 33.7503 63.7794 33.5753L63.6037 33.2253ZM63.5451 33.1087L63.0765 32.0587L62.608 33.1087H63.5451Z" fill="#c9d8f7"/>
<path d="M70.163 31.4753L70.2215 32.292H70.163C70.1044 32.117 69.9873 31.942 69.8701 31.8253C69.6944 31.6503 69.5187 31.592 69.2259 31.592C68.8745 31.592 68.6402 31.7087 68.4645 32.0003C68.2888 32.2337 68.2302 32.467 68.2302 32.7587C68.2302 32.992 68.2888 33.2253 68.406 33.4587C68.5231 33.6337 68.6402 33.8087 68.8159 33.9253C68.9916 34.042 69.1673 34.042 69.343 34.042C69.4602 34.042 69.5187 34.042 69.6359 33.9837C69.753 33.9837 69.8116 33.9253 69.9287 33.867V33.1087C69.9287 32.992 69.9287 32.8753 69.8701 32.8753C69.8701 32.817 69.8115 32.817 69.753 32.7587C69.6944 32.7587 69.6358 32.7003 69.5187 32.7003V32.642H70.5729V32.7003H70.5144C70.3972 32.7003 70.3387 32.7587 70.2801 32.817C70.2801 32.8753 70.2215 32.9337 70.2215 33.1087V33.9253C70.0458 33.9837 69.9287 34.042 69.753 34.1003C69.5773 34.1587 69.4601 34.1587 69.2259 34.1587C68.6988 34.1587 68.2888 33.9837 68.0545 33.692C67.8788 33.4587 67.7617 33.167 67.7617 32.8753C67.7617 32.642 67.8203 32.4087 67.9374 32.2337C68.0545 32.0003 68.2888 31.767 68.5231 31.6503C68.6988 31.5337 68.933 31.4753 69.2259 31.4753C69.343 31.4753 69.4016 31.4753 69.5187 31.4753C69.5773 31.4753 69.6944 31.5337 69.8701 31.592C69.9287 31.592 69.9872 31.6503 70.0458 31.6503C70.0458 31.6503 70.1044 31.6503 70.1044 31.592C70.1044 31.592 70.163 31.5337 70.163 31.4753Z" fill="#c9d8f7"/>
<path d="M74.4371 31.6505V32.7005H75.0228C75.1985 32.7005 75.2571 32.7005 75.3156 32.6422C75.3742 32.5839 75.4328 32.4672 75.4328 32.3505H75.4913V33.2255H75.4328C75.4328 33.1089 75.3742 32.9922 75.3742 32.9922C75.3742 32.9339 75.3156 32.9339 75.2571 32.8755C75.1985 32.8755 75.1399 32.8172 75.0228 32.8172H74.4371V33.6922C74.4371 33.8089 74.4371 33.8672 74.4371 33.9255C74.4371 33.9255 74.4371 33.9839 74.4957 33.9839C74.4957 33.9839 74.5543 33.9839 74.6714 33.9839H75.1399C75.3156 33.9839 75.4328 33.9839 75.4913 33.9255C75.5499 33.9255 75.6085 33.8672 75.667 33.8089C75.7256 33.7505 75.8427 33.6339 75.9013 33.4589H75.9599L75.7256 34.1005H73.6172V34.0422H73.7343C73.7929 34.0422 73.8515 34.0422 73.91 33.9839C73.9686 33.9839 73.9686 33.9255 73.9686 33.8672C73.9686 33.8089 73.9686 33.7505 73.9686 33.6339V31.9422C73.9686 31.7672 73.9686 31.6505 73.91 31.6505C73.8515 31.5922 73.7929 31.5922 73.6758 31.5922H73.5586V31.5339H75.667L75.7256 32.1172H75.667C75.667 32.0005 75.6085 31.8839 75.5499 31.8255C75.4913 31.7672 75.4913 31.7089 75.3742 31.7089C75.3156 31.7089 75.1985 31.7089 75.0814 31.7089H74.4371V31.6505Z" fill="#c9d8f7"/>
<path d="M80.7044 34.1003L79.6501 31.942V33.692C79.6501 33.867 79.6502 33.9253 79.7087 33.9837C79.7673 34.042 79.8259 34.042 79.943 34.042H80.0602V34.1003H79.123V34.042H79.2402C79.3573 34.042 79.4159 33.9837 79.4745 33.9253C79.4745 33.867 79.533 33.8087 79.533 33.6337V31.942C79.533 31.8253 79.533 31.767 79.4745 31.7087C79.4745 31.6503 79.4159 31.6503 79.3573 31.592C79.2987 31.592 79.2402 31.5337 79.123 31.5337V31.4753H79.8844L80.8801 33.517L81.8757 31.4753H82.6371V31.5337H82.52C82.4028 31.5337 82.3443 31.592 82.2857 31.6503C82.2857 31.7087 82.2271 31.767 82.2271 31.942V33.6337C82.2271 33.8087 82.2271 33.867 82.2857 33.9253C82.3443 33.9837 82.4028 33.9837 82.52 33.9837H82.6371V34.042H81.4658V33.9837H81.5829C81.7 33.9837 81.7586 33.9253 81.8172 33.867C81.8757 33.8087 81.8757 33.7503 81.8757 33.5753V31.8253L80.8216 33.9837H80.7044V34.1003Z" fill="#c9d8f7"/>
</svg>
