<svg width="95" height="26" viewBox="0 0 95 26" fill="none" xmlns="http://www.w3.org/2000/svg">
<g clip-path="url(#clip0_10706_4889)">
<path d="M58.2461 1.255C58.2461 1.255 58.2461 1.19523 58.2461 1.13546C58.2461 0.956151 58.129 0.836609 57.9533 0.836609H54.205C53.9708 0.836609 53.7365 1.01592 53.6194 1.255L49.8711 11.8343C49.8711 11.8343 49.8711 11.894 49.8711 11.9538C49.8711 12.1332 49.9882 12.2527 50.1639 12.2527H53.9122C54.1465 12.2527 54.3807 12.0734 54.4393 11.8343L58.2461 1.255Z" fill="#c9d8f7"/>
<path d="M47.1779 13.8068H37.2216C35.2303 13.8068 33.2389 15.0022 32.419 17.1539C32.0676 18.1103 31.3648 20.0229 30.6034 22.2942C30.5449 22.5332 30.4863 22.7723 30.4863 23.0115C30.4863 24.2068 31.4234 25.1632 32.5947 25.1632H43.1954C43.4296 25.1632 43.6639 24.9839 43.781 24.7448C43.781 24.7448 44.3667 23.0712 44.4838 22.7125C44.4838 22.7125 44.4838 22.7125 44.4838 22.6528V22.593C44.4838 22.4137 44.3667 22.2942 44.191 22.2942H35.3474C35.1717 22.2942 35.0545 22.1746 35.0545 21.9953V21.9356C35.0545 21.9356 35.0545 21.9356 35.0545 21.8758C35.1717 21.4574 36.4016 18.1103 36.753 17.0942C36.8116 16.8551 37.0459 16.6758 37.3387 16.6758H46.1823C46.4165 16.6758 46.6508 16.4965 46.7679 16.2574C46.8851 15.9585 47.3536 14.5839 47.4707 14.2252C47.4707 14.2252 47.4707 14.2252 47.4707 14.1654C47.4707 14.1654 47.4707 14.1056 47.4707 14.0459C47.4707 13.9861 47.3536 13.8068 47.1779 13.8068Z" fill="#c9d8f7"/>
<path d="M94.7929 15.8986C94.7929 14.7032 93.8555 13.7468 92.6845 13.7468H82.0839C81.9668 13.7468 81.674 13.8066 81.4983 14.1652C81.4983 14.225 77.8671 24.3859 77.8671 24.5054C77.8671 24.5652 77.8086 24.625 77.8086 24.6848C77.8086 24.6848 77.8086 24.6848 77.8086 24.7446C77.8086 24.7446 77.8086 24.7446 77.8086 24.8043V24.8641C77.8086 25.0434 77.9257 25.1629 78.1014 25.1629H90.2247C91.22 25.1629 91.9817 24.5054 92.2742 23.5491C92.6256 22.5928 93.9144 18.9468 94.734 16.6158C94.734 16.3767 94.7929 16.1377 94.7929 15.8986ZM89.8733 17.0939C89.7564 17.5123 88.5264 20.8594 88.175 21.8756C88.1164 22.1146 87.8821 22.2939 87.5893 22.2939H83.3724C83.1967 22.2939 83.0796 22.1744 83.0796 21.9951C83.0796 21.9951 83.0796 21.9353 83.0796 21.8756C83.1967 21.4572 84.4266 18.1101 84.778 17.0939C84.8366 16.8549 85.0708 16.6756 85.3637 16.6756H89.5807C89.7564 16.6756 89.8733 16.7951 89.8733 16.9744C89.9321 17.0342 89.9321 17.0939 89.8733 17.0939Z" fill="#c9d8f7"/>
<path d="M74.0604 3.70555H77.7501C77.9258 3.70555 78.0429 3.82509 78.0429 4.0044C78.0429 4.06417 78.0429 4.06417 78.0429 4.12394C76.9887 7.17222 75.466 11.4757 75.3489 11.7148C75.3489 11.7148 75.3489 11.7745 75.3489 11.8343C75.3489 12.0136 75.466 12.1331 75.6417 12.1331H79.3314C79.5657 12.1331 79.7999 11.9538 79.9171 11.7148C79.9756 11.5355 81.5569 7.05267 82.6111 4.0044C82.6697 3.76532 82.904 3.64578 83.1382 3.64578H87.9407C88.175 3.64578 88.4092 3.46647 88.5264 3.22738C88.6435 2.92853 89.1122 1.55382 89.2291 1.1952C89.2291 1.1952 89.2291 1.1952 89.2291 1.13543C89.2291 1.13543 89.2291 1.07566 89.2291 1.01589C89.2291 0.836581 89.1122 0.717041 88.9365 0.717041H75.056C74.8218 0.717041 74.5875 0.896351 74.4704 1.13543C74.3532 1.43428 73.8847 2.809 73.7676 3.16762C73.7676 3.16762 73.7676 3.16762 73.7676 3.22738V3.28715C73.7676 3.58601 73.8847 3.70555 74.0604 3.70555Z" fill="#c9d8f7"/>
<path d="M35.5229 0.896545H24.1609C21.8182 1.07586 19.8855 2.86896 19.4756 5.19999C19.4756 5.31953 19.417 5.49884 19.417 5.61838C19.417 6.81379 20.3541 7.77011 21.5254 7.77011H28.1435C28.3778 7.77011 28.612 8.00918 28.6706 8.24827C28.6706 8.24827 28.6706 8.30803 28.6706 8.36781C28.6706 8.90574 28.2021 9.32413 27.6749 9.32413H18.5971C18.3628 9.32413 18.1285 9.50344 18.0114 9.74255L17.3086 11.8345C17.3086 11.8345 17.3086 11.8943 17.3086 11.954C17.3086 12.1333 17.4257 12.2529 17.6014 12.2529H28.612C31.1304 12.2529 33.2388 10.4 33.6488 7.94941C33.7073 7.82987 33.7074 7.65056 33.7074 7.53103C33.7074 6.33563 32.7703 5.3793 31.5989 5.3793H25.098C24.8051 5.3793 24.5709 5.19999 24.5123 4.90115C24.5123 4.84137 24.5123 4.84137 24.5123 4.7816V4.72184C24.5123 4.1839 24.9808 3.76551 25.5079 3.76551H34.5859C34.8201 3.76551 35.0544 3.5862 35.1715 3.34712L35.8743 1.25517C35.8743 1.25517 35.8743 1.19539 35.8743 1.13563C35.8157 1.01608 35.6986 0.896545 35.5229 0.896545Z" fill="#c9d8f7"/>
<path d="M51.7456 0.896545H40.3836C38.041 1.07586 36.1083 2.86896 35.6983 5.19999C35.6983 5.31953 35.6397 5.49884 35.6397 5.61838C35.6397 6.81379 36.5768 7.77011 37.7481 7.77011H44.3662C44.6004 7.77011 44.8347 8.00918 44.8933 8.24827C44.8933 8.24827 44.8933 8.30803 44.8933 8.36781C44.8933 8.90574 44.4247 9.32413 43.8976 9.32413H34.8783C34.644 9.32413 34.4098 9.50344 34.2926 9.74255L33.5898 11.8345C33.5898 11.8345 33.5898 11.8943 33.5898 11.954C33.5898 12.1333 33.7069 12.2529 33.8826 12.2529H44.8933C47.4116 12.2529 49.52 10.4 49.93 7.94941C49.9886 7.82987 49.9886 7.65056 49.9886 7.53103C49.9886 6.33563 49.0515 5.3793 47.8802 5.3793H41.3207C41.0279 5.3793 40.7936 5.19999 40.735 4.90115C40.735 4.84137 40.735 4.84137 40.735 4.7816V4.72184C40.735 4.1839 41.2036 3.76551 41.7307 3.76551H50.8085C51.0428 3.76551 51.277 3.5862 51.3942 3.34712L52.0384 1.25517C52.0384 1.25517 52.0384 1.19539 52.0384 1.13563C52.097 1.01608 51.9213 0.896545 51.7456 0.896545Z" fill="#c9d8f7"/>
<path d="M72.7716 0.836609H62.8152C60.4725 1.01592 58.5398 2.80903 58.1299 5.14006C58.1299 5.2596 58.0713 5.43891 58.0713 5.55845C58.0713 6.75385 59.0084 7.71017 60.1797 7.71017H66.7978C67.0321 7.71017 67.2663 7.94925 67.3249 8.18834C67.3249 8.18834 67.3249 8.2481 67.3249 8.30788C67.3249 8.84581 66.8563 9.26419 66.3292 9.26419H57.2514C57.0171 9.26419 56.7828 9.4435 56.6657 9.68261L55.9629 11.7745C55.9629 11.7745 55.9629 11.8343 55.9629 11.894C55.9629 12.0734 56.08 12.193 56.2557 12.193H67.2664C69.7847 12.193 71.8931 10.3401 72.3031 7.88948C72.3031 7.76994 72.3617 7.59063 72.3617 7.4711C72.3617 6.27569 71.4246 5.31936 70.2533 5.31936H63.6937C63.4009 5.31936 63.1666 5.14006 63.108 4.84121C63.108 4.78144 63.108 4.78144 63.108 4.72167V4.66189C63.108 4.12396 63.5766 3.70558 64.1037 3.70558H71.776C72.0103 3.70558 72.2445 3.52627 72.3617 3.28719L73.0645 1.19523C73.0645 1.19523 73.0645 1.13546 73.0645 1.07569C73.123 1.01592 72.9473 0.836609 72.7716 0.836609Z" fill="#c9d8f7"/>
<path d="M62.9909 15.9585C62.9909 14.7632 62.0538 13.8068 60.8825 13.8068H60.3554H53.1517H52.8003C50.809 13.8068 48.8177 15.0022 47.9977 17.1539C47.8806 17.5125 47.7049 17.9908 47.4706 18.5287C47.4121 18.6482 47.4121 18.708 47.3535 18.7677C47.0607 19.6046 46.7678 20.4413 46.475 21.2183C45.7722 23.131 45.2451 24.7448 45.2451 24.7448C45.2451 24.7448 45.2451 24.8046 45.2451 24.8643V24.9241C45.2451 25.0436 45.4208 25.1632 45.5379 25.1632H47.4706H49.2276C49.4619 25.1632 49.6962 24.9839 49.8133 24.7448L51.0433 21.3379C51.1604 20.9792 51.5118 20.7401 51.8632 20.7401C53.1517 20.7401 55.4944 20.7401 56.49 20.7401C56.6071 20.7401 56.7243 20.9194 56.7243 21.039C56.7243 21.039 56.7243 21.039 56.7243 21.0987C56.6657 21.3379 56.5486 21.5172 56.49 21.6965C56.0215 23.0712 55.4944 24.5654 55.4358 24.7448C55.4358 24.7448 55.4358 24.7448 55.4358 24.8046C55.4358 24.8046 55.4358 24.8643 55.4358 24.9241C55.4358 25.1034 55.5529 25.2229 55.7286 25.2229H56.8414H58.3641H58.7155C58.7741 25.2229 58.7741 25.2229 58.8327 25.2229H59.4183C59.6526 25.2229 59.8869 25.0436 60.004 24.8046C60.004 24.7448 60.1797 24.3861 60.3554 23.8482C60.414 23.7884 60.414 23.6689 60.4725 23.6091C60.8239 22.6528 62.1124 19.0068 62.9323 16.6758C62.9323 16.4367 62.9909 16.1977 62.9909 15.9585ZM57.0757 18.2896C57.0757 18.2896 56.1972 18.2896 55.2015 18.2896H55.0258C54.0302 18.2896 52.976 18.2896 52.976 18.2896C52.6832 18.2896 52.5075 18.1103 52.4489 17.8115C52.4489 17.7517 52.4489 17.7517 52.4489 17.6919V17.6321C52.4489 17.1539 52.8003 16.7356 53.2688 16.6758C53.2688 16.6758 53.2688 16.6758 53.3274 16.6758H57.5442C57.7785 16.6758 58.0127 16.9149 58.0713 17.1539C58.0713 17.2137 58.0713 17.2137 58.0713 17.2735V17.3332C58.0713 17.393 58.0713 17.4528 58.0713 17.5125C58.0713 17.5723 58.0127 17.6919 58.0127 17.7517C57.7785 18.0505 57.4856 18.2896 57.0757 18.2896Z" fill="#c9d8f7"/>
<path d="M18.8308 3.10784C18.8308 1.91243 17.8937 0.956116 16.7224 0.956116H16.1953H8.9915H8.69866C6.70739 0.956116 4.71611 2.15151 3.89618 4.30324C3.66191 4.66186 3.4862 5.14002 3.3105 5.67795C3.25194 5.79749 3.25194 5.85726 3.19337 5.97681C2.90054 6.81358 2.6077 7.65036 2.31487 8.42738C1.67063 10.34 1.08496 11.894 1.08496 11.894C1.08496 11.894 1.08496 11.9538 1.08496 12.0135V12.0733C1.08496 12.1929 1.26066 12.3125 1.3778 12.3125H3.3105H5.06751C5.30178 12.3125 5.53606 12.1331 5.65319 11.894L6.88309 8.48715C7.00022 8.12853 7.35163 7.88945 7.70303 7.88945H12.3298C12.4469 7.88945 12.5641 8.06876 12.5641 8.18829C12.5055 8.42738 12.3884 8.60669 12.3298 8.786C11.8613 10.1607 11.3342 11.6549 11.2756 11.8342C11.2756 11.8342 11.2756 11.8342 11.2756 11.894C11.2756 11.894 11.2756 11.9538 11.2756 12.0135C11.2756 12.1929 11.3927 12.3125 11.5684 12.3125H12.6812H14.2039H14.5553C14.6139 12.3125 14.6139 12.3125 14.6725 12.3125H15.2582C15.4924 12.3125 15.7267 12.1331 15.8438 11.894C15.8438 11.8342 16.0195 11.4756 16.1953 10.9377C16.2538 10.878 16.2538 10.7584 16.2538 10.6987C16.6052 9.74231 17.8937 6.09634 18.7137 3.82508C18.7722 3.586 18.8308 3.34691 18.8308 3.10784ZM12.8569 5.3791H10.9828H10.8071H8.75723C8.4644 5.3791 8.2887 5.19979 8.23013 4.90094C8.23013 4.84117 8.23013 4.84117 8.23013 4.7814C8.23013 4.30324 8.58153 3.88485 9.05007 3.82508H9.10863H13.3254C13.5597 3.82508 13.794 4.00439 13.8525 4.30324C13.8525 4.36301 13.8525 4.36301 13.8525 4.42278C13.8525 4.48255 13.8525 4.54232 13.8525 4.60209C13.8525 4.66186 13.794 4.7814 13.794 4.84117C13.6183 5.19979 13.2669 5.3791 12.8569 5.3791Z" fill="#c9d8f7"/>
<path d="M77.3989 13.8068H65.8027C65.5684 13.8068 65.3342 13.9861 65.217 14.2252C65.217 14.285 61.4688 24.7448 61.4688 24.8046C61.4688 24.8046 61.4688 24.8643 61.4688 24.9241C61.4688 25.1034 61.5859 25.2229 61.7616 25.2229H65.5099C65.7441 25.2229 65.9784 25.0436 66.0955 24.8046L67.3254 21.3977C67.4426 21.039 67.794 20.7999 68.2039 20.7999H72.7136C72.8893 20.7999 73.0064 20.9194 73.0064 21.0987C73.0064 21.1585 73.0064 21.1585 73.0064 21.2183C72.4793 22.7125 71.8351 24.6252 71.7179 24.8046C71.7179 24.8046 71.7179 24.8046 71.7179 24.8643C71.7179 24.8643 71.7179 24.9241 71.7179 24.9839C71.7179 25.1632 71.8351 25.2827 72.0108 25.2827H75.7005C75.9347 25.2827 76.169 25.1034 76.2861 24.8643C76.3447 24.7448 77.1061 22.593 77.3989 21.7563C77.4575 21.6367 77.4575 21.4574 77.4575 21.2781C77.4575 20.5608 76.8718 20.0229 76.2276 20.0229C78.3945 19.3654 79.0974 17.931 79.3316 16.5563C79.3316 16.5563 79.3902 16.3172 79.3902 16.1977C79.3902 16.1379 79.3902 16.1379 79.3902 16.0781C79.3902 14.7632 78.5117 13.8666 77.3989 13.8068ZM74.2949 17.2735C74.2949 17.8115 73.8263 18.2298 73.2992 18.2298H73.2407C73.2407 18.2298 69.1996 18.2298 69.141 18.2298C68.8482 18.2298 68.6725 18.0505 68.6139 17.7517C68.6139 17.6919 68.6139 17.6919 68.6139 17.6321V17.5723C68.6139 17.0942 68.9653 16.6758 69.4338 16.616C69.4924 16.616 69.4924 16.616 69.551 16.616H73.6506C73.9435 16.616 74.1777 16.7953 74.2363 17.0942C74.2949 17.1539 74.2949 17.2137 74.2949 17.2735Z" fill="#c9d8f7"/>
</g>
<defs>
<clipPath id="clip0_10706_4889">
<rect width="94" height="26" fill="white" transform="translate(0.967773)"/>
</clipPath>
</defs>
</svg>
