<svg width="44" height="28" viewBox="0 0 44 28" fill="none" xmlns="http://www.w3.org/2000/svg">
<path fill-rule="evenodd" clip-rule="evenodd" d="M0 0.865234H1.45819V27.3703H0V0.865234Z" fill="#fff"/>
<path fill-rule="evenodd" clip-rule="evenodd" d="M42.2871 0.865234H43.7453V27.3703H42.2871V0.865234Z" fill="#fff"/>
<path fill-rule="evenodd" clip-rule="evenodd" d="M4.375 0.865234H5.83319V14.4759H4.375V0.865234Z" fill="#fff"/>
<path fill-rule="evenodd" clip-rule="evenodd" d="M37.1836 0.865234H38.6418V14.4759H37.1836V0.865234Z" fill="#fff"/>
<path fill-rule="evenodd" clip-rule="evenodd" d="M24.0605 0.865234H25.5187V14.4759H24.0605V0.865234Z" fill="#fff"/>
<rect x="8.02051" y="0.865234" width="1.45819" height="13.6107" fill="#fff"/>
<rect x="27.7061" y="0.865234" width="1.45819" height="13.6107" fill="#fff"/>
<path fill-rule="evenodd" clip-rule="evenodd" d="M14.582 0.865234H16.0402V14.4759H14.582V0.865234Z" fill="#fff"/>
<path fill-rule="evenodd" clip-rule="evenodd" d="M18.9561 0.865234H21.1433V14.4759H18.9561V0.865234Z" fill="#fff"/>
<path fill-rule="evenodd" clip-rule="evenodd" d="M34.2676 0.865234H36.4549V14.4759H34.2676V0.865234Z" fill="#fff"/>
<path fill-rule="evenodd" clip-rule="evenodd" d="M6.56152 0.865234H7.29062V14.4759H6.56152V0.865234Z" fill="#fff"/>
<path fill-rule="evenodd" clip-rule="evenodd" d="M26.2471 0.865234H26.9762V14.4759H26.2471V0.865234Z" fill="#fff"/>
<path fill-rule="evenodd" clip-rule="evenodd" d="M10.207 0.865234H10.9361V14.4759H10.207V0.865234Z" fill="#fff"/>
<path fill-rule="evenodd" clip-rule="evenodd" d="M29.8926 0.865234H30.6217V14.4759H29.8926V0.865234Z" fill="#fff"/>
<path fill-rule="evenodd" clip-rule="evenodd" d="M12.3945 0.865234H13.1236V14.4759H12.3945V0.865234Z" fill="#fff"/>
<path fill-rule="evenodd" clip-rule="evenodd" d="M32.0801 0.865234H32.8092V14.4759H32.0801V0.865234Z" fill="#fff"/>
<path fill-rule="evenodd" clip-rule="evenodd" d="M39.3711 0.865234H40.1002V14.4759H39.3711V0.865234Z" fill="#fff"/>
<path fill-rule="evenodd" clip-rule="evenodd" d="M16.7695 0.865234H17.4986V14.4759H16.7695V0.865234Z" fill="#fff"/>
<path fill-rule="evenodd" clip-rule="evenodd" d="M21.873 0.865234H22.6021V14.4759H21.873V0.865234Z" fill="#fff"/>
<path fill-rule="evenodd" clip-rule="evenodd" d="M2.1875 0.865234H2.9166V27.3703H2.1875V0.865234Z" fill="#fff"/>
<path fill-rule="evenodd" clip-rule="evenodd" d="M40.8291 0.865234H41.5582V27.3703H40.8291V0.865234Z" fill="#fff"/>
<path fill-rule="evenodd" clip-rule="evenodd" d="M4.92969 24.5049V18.3935H7.10843C7.86316 18.3935 8.43561 18.5355 8.82579 18.8196C9.21597 19.1036 9.41106 19.5198 9.41106 20.0683C9.41106 20.3677 9.33274 20.6314 9.1761 20.8595C9.01946 21.0875 8.80158 21.2547 8.52248 21.3611C8.84146 21.4394 9.09279 21.5975 9.27649 21.8354C9.46019 22.0732 9.55204 22.3642 9.55204 22.7084C9.55204 23.2961 9.36122 23.741 8.97959 24.0432C8.59795 24.3454 8.05398 24.4993 7.34766 24.5049H4.92969ZM6.2113 21.8438V23.4933H7.30922C7.61111 23.4933 7.84678 23.4227 8.01624 23.2814C8.1857 23.1401 8.27043 22.9449 8.27043 22.6958C8.27043 22.1362 7.97566 21.8522 7.38611 21.8438H6.2113ZM6.2113 20.9539H7.15969C7.8062 20.9427 8.12945 20.6895 8.12945 20.1942C8.12945 19.9172 8.04757 19.7178 7.88381 19.5961C7.72004 19.4743 7.46159 19.4135 7.10843 19.4135H6.2113V20.9539ZM15.9872 21.5877C15.9872 22.1894 15.8789 22.7168 15.6625 23.1701C15.446 23.6235 15.1363 23.9732 14.7333 24.2195C14.3303 24.4657 13.8682 24.5888 13.347 24.5888C12.8315 24.5888 12.3716 24.4671 11.9672 24.2237C11.5627 23.9802 11.2495 23.6325 11.0273 23.1806C10.8052 22.7287 10.6927 22.2089 10.6898 21.6213V21.3191C10.6898 20.7175 10.8002 20.1879 11.0209 19.7304C11.2416 19.2729 11.5535 18.9217 11.9565 18.6768C12.3595 18.432 12.8201 18.3096 13.3385 18.3096C13.8568 18.3096 14.3175 18.432 14.7205 18.6768C15.1235 18.9217 15.4354 19.2729 15.6561 19.7304C15.8768 20.1879 15.9872 20.7161 15.9872 21.3149V21.5877ZM14.6885 21.3107C14.6885 20.6699 14.5717 20.183 14.3382 19.85C14.1046 19.517 13.7714 19.3505 13.3385 19.3505C12.9084 19.3505 12.5766 19.5149 12.3431 19.8437C12.1096 20.1725 11.9914 20.6545 11.9885 21.2897V21.5877C11.9885 22.2117 12.1053 22.6958 12.3388 23.04C12.5724 23.3842 12.9084 23.5563 13.347 23.5563C13.7771 23.5563 14.1075 23.3905 14.3382 23.0589C14.5688 22.7273 14.6856 22.2439 14.6885 21.6087V21.3107ZM18.5646 23.4933H21.2859V24.5049H17.283V18.3935H18.5646V23.4933ZM26.1276 21.8564H23.6669V23.4933H26.5548V24.5049H22.3853V18.3935H26.5462V19.4135H23.6669V20.87H26.1276V21.8564ZM32.4388 19.4135H30.5335V24.5049H29.2519V19.4135H27.3722V18.3935H32.4388V19.4135ZM38.5236 21.5877C38.5236 22.1894 38.4154 22.7168 38.1989 23.1701C37.9825 23.6235 37.6728 23.9732 37.2698 24.2195C36.8668 24.4657 36.4047 24.5888 35.8835 24.5888C35.368 24.5888 34.908 24.4671 34.5036 24.2237C34.0992 23.9802 33.7859 23.6325 33.5638 23.1806C33.3416 22.7287 33.2291 22.2089 33.2263 21.6213V21.3191C33.2263 20.7175 33.3366 20.1879 33.5574 19.7304C33.7781 19.2729 34.0899 18.9217 34.4929 18.6768C34.8959 18.432 35.3566 18.3096 35.8749 18.3096C36.3933 18.3096 36.854 18.432 37.257 18.6768C37.66 18.9217 37.9718 19.2729 38.1925 19.7304C38.4133 20.1879 38.5236 20.7161 38.5236 21.3149V21.5877ZM37.2249 21.3107C37.2249 20.6699 37.1081 20.183 36.8746 19.85C36.6411 19.517 36.3079 19.3505 35.8749 19.3505C35.4449 19.3505 35.1131 19.5149 34.8796 19.8437C34.646 20.1725 34.5278 20.6545 34.525 21.2897V21.5877C34.525 22.2117 34.6418 22.6958 34.8753 23.04C35.1088 23.3842 35.4449 23.5563 35.8835 23.5563C36.3135 23.5563 36.6439 23.3905 36.8746 23.0589C37.1053 22.7273 37.2221 22.2439 37.2249 21.6087V21.3107Z" fill="#fff"/>
</svg>
