<svg width="360" height="31" viewBox="0 0 360 31" fill="none" xmlns="http://www.w3.org/2000/svg">
<rect x="124" width="52" height="31" rx="4" fill="#0072CE"/>
<path fill-rule="evenodd" clip-rule="evenodd" d="M167.892 17.9109H166.055C165.871 17.9109 165.749 17.9177 165.647 17.9864C165.54 18.0541 165.499 18.1545 165.499 18.2871C165.499 18.4447 165.589 18.5519 165.72 18.5983C165.826 18.635 165.94 18.6457 166.108 18.6457L166.655 18.6602C167.206 18.6736 167.574 18.7675 167.798 18.9965C167.839 19.0284 167.864 19.0641 167.892 19.0999V17.9109ZM167.892 20.6658C167.647 21.0205 167.17 21.2003 166.524 21.2003H164.577V20.3043H166.516C166.708 20.3043 166.843 20.2792 166.924 20.2008C166.994 20.1362 167.043 20.0423 167.043 19.9283C167.043 19.8066 166.994 19.7099 166.92 19.652C166.847 19.5882 166.74 19.5592 166.565 19.5592C165.618 19.5273 164.438 19.5882 164.438 18.2659C164.438 17.6598 164.826 17.0218 165.884 17.0218H167.892V16.1904H166.026C165.463 16.1904 165.054 16.324 164.765 16.5317V16.1904H162.005C161.564 16.1904 161.046 16.2988 160.801 16.5317V16.1904H155.873V16.5317C155.481 16.2514 154.82 16.1904 154.514 16.1904H151.264V16.5317C150.954 16.234 150.264 16.1904 149.843 16.1904H146.206L145.373 17.0828L144.593 16.1904H139.16V22.021H144.491L145.349 21.1145L146.157 22.021L149.443 22.0239V20.6523H149.766C150.202 20.659 150.717 20.6416 151.17 20.4473V22.0209H153.881V20.5012H154.012C154.179 20.5012 154.195 20.508 154.195 20.6732V22.0208H162.43C162.953 22.0208 163.499 21.8882 163.802 21.6477V22.0208H166.414C166.957 22.0208 167.488 21.9453 167.892 21.752V20.6658ZM163.871 18.9961C164.067 19.1974 164.172 19.4514 164.172 19.8815C164.172 20.7804 163.605 21.2 162.589 21.2H160.625V20.304H162.581C162.772 20.304 162.908 20.2789 162.993 20.2005C163.062 20.1359 163.112 20.042 163.112 19.928C163.112 19.8062 163.058 19.7096 162.989 19.6516C162.912 19.5879 162.805 19.5589 162.63 19.5589C161.687 19.527 160.507 19.5879 160.507 18.2655C160.507 17.6595 160.891 17.0215 161.948 17.0215H163.969V17.9108H162.119C161.936 17.9108 161.817 17.9176 161.716 17.9863C161.605 18.054 161.564 18.1544 161.564 18.287C161.564 18.4446 161.658 18.5518 161.785 18.5982C161.891 18.6349 162.005 18.6456 162.177 18.6456L162.72 18.6601C163.267 18.6733 163.643 18.7671 163.871 18.9961ZM154.775 18.7384C154.64 18.8177 154.473 18.8245 154.277 18.8245H153.053V17.886H154.294C154.473 17.886 154.653 17.8898 154.775 17.9614C154.906 18.0291 154.984 18.1585 154.984 18.3373C154.984 18.5161 154.906 18.6602 154.775 18.7384ZM155.384 19.2584C155.608 19.3405 155.791 19.4875 155.877 19.6092C156.02 19.8132 156.04 20.0036 156.044 20.372V21.2003H155.032V20.6775C155.032 20.4261 155.057 20.0539 154.869 19.8596C154.722 19.7099 154.498 19.6741 154.13 19.6741H153.053V21.2003H152.04V17.0217H154.367C154.877 17.0217 155.249 17.044 155.58 17.2189C155.898 17.4093 156.098 17.6701 156.098 18.1468C156.098 18.8138 155.649 19.1541 155.384 19.2584ZM156.657 17.0217H160.021V17.8858H157.661V18.6455H159.964V19.4981H157.661V20.3295L160.021 20.3333V21.2003H156.657V17.0217ZM149.856 18.9501H148.553V17.886H149.868C150.232 17.886 150.484 18.0329 150.484 18.3983C150.484 18.7597 150.243 18.9501 149.856 18.9501ZM147.549 20.8199L146.002 19.1178L147.549 17.4697V20.8199ZM143.552 20.3295H141.074V19.4981H143.287V18.6455H141.074V17.8858H143.601L144.704 19.1036L143.552 20.3295ZM151.566 18.3983C151.566 19.5591 150.692 19.7987 149.811 19.7987H148.553V21.2003H146.594L145.353 19.817L144.063 21.2003H140.07V17.0217H144.124L145.364 18.3914L146.647 17.0217H149.868C150.668 17.0217 151.566 17.2411 151.566 18.3983Z" fill="white"/>
<path fill-rule="evenodd" clip-rule="evenodd" d="M135.261 12.2063L134.571 10.5408L133.885 12.2063H135.261ZM150.46 11.5431C150.322 11.6264 150.158 11.6292 149.961 11.6292H148.737V10.7012H149.978C150.154 10.7012 150.337 10.7091 150.456 10.7766C150.587 10.8375 150.668 10.967 150.668 11.1459C150.668 11.3285 150.591 11.4754 150.46 11.5431ZM159.196 12.2063L158.498 10.5408L157.805 12.2063H159.196ZM142.912 14.0089H141.878L141.874 10.737L140.413 14.0089H139.528L138.062 10.7341V14.0089H136.012L135.625 13.0771H133.526L133.135 14.0089H132.04L133.845 9.83129H135.342L137.057 13.7866V9.83129H138.702L140.021 12.6653L141.233 9.83129H142.912V14.0089H142.912ZM147.03 14.0089H143.663V9.83129H147.03V10.7012H144.671V11.4543H146.974V12.3106H144.671V13.1449H147.03V14.0089ZM151.778 10.9564C151.778 11.6225 151.33 11.9666 151.068 12.0699C151.289 12.1531 151.477 12.3 151.567 12.4217C151.709 12.6295 151.734 12.8151 151.734 13.1882V14.0089H150.717L150.713 13.4821C150.713 13.2307 150.737 12.8692 150.554 12.6682C150.407 12.5213 150.182 12.4894 149.819 12.4894H148.737V14.0089H147.729V9.83129H150.048C150.563 9.83129 150.942 9.84477 151.268 10.0314C151.587 10.218 151.778 10.4904 151.778 10.9564ZM153.391 14.0089H152.363V9.83129H153.391V14.0089ZM165.324 14.0089H163.896L161.985 10.8734V14.0089H159.932L159.54 13.0771H157.446L157.065 14.0089H155.886C155.396 14.0089 154.775 13.9016 154.424 13.5469C154.07 13.1921 153.885 12.7117 153.885 11.952C153.885 11.3324 153.995 10.766 154.429 10.3184C154.755 9.98502 155.265 9.83129 155.96 9.83129H156.935V10.7264H155.98C155.612 10.7264 155.404 10.7806 155.204 10.9739C155.032 11.1498 154.915 11.4824 154.915 11.9202C154.915 12.3678 155.004 12.6905 155.192 12.9013C155.347 13.0666 155.629 13.1168 155.894 13.1168H156.347L157.768 9.83142H159.278L160.985 13.7829V9.83142H162.52L164.292 12.7409V9.83142H165.324V14.0089ZM132.028 14.8295H133.75L134.139 13.9016H135.008L135.395 14.8295H138.784V14.1201L139.087 14.8325H140.846L141.148 14.1095V14.8295H149.57L149.566 13.3063H149.729C149.843 13.3102 149.877 13.3207 149.877 13.5073V14.8295H154.232V14.4749C154.584 14.6614 155.13 14.8295 155.849 14.8295H157.682L158.074 13.9016H158.943L159.327 14.8295H162.858V13.9481L163.393 14.8295H166.223V9.00293H163.422V9.69105L163.03 9.00293H160.156V9.69105L159.796 9.00293H155.915C155.265 9.00293 154.694 9.09277 154.232 9.34315V9.00293H151.554V9.34315C151.26 9.08509 150.86 9.00293 150.415 9.00293H140.629L139.973 10.5078L139.298 9.00293H136.216V9.69105L135.877 9.00293H133.249L132.028 11.7732V14.8295H132.028Z" fill="white"/>
<rect width="52" height="31" rx="4" fill="#000066"/>
<path fill-rule="evenodd" clip-rule="evenodd" d="M29.1868 15.7508C29.1868 21.3196 24.6437 25.8334 19.0392 25.8334C13.4345 25.8334 8.89111 21.3196 8.89111 15.7508C8.89111 10.1822 13.4345 5.66797 19.0392 5.66797C24.6437 5.66797 29.1868 10.1822 29.1868 15.7508Z" fill="#CC0000"/>
<path fill-rule="evenodd" clip-rule="evenodd" d="M32.6632 5.66797C30.0405 5.66797 27.6517 6.65635 25.8504 8.27779C25.484 8.60827 25.1419 8.96519 24.8262 9.34521H26.8765C27.1565 9.68397 27.4145 10.0401 27.6501 10.4131H24.0524C23.8372 10.7558 23.6415 11.112 23.4677 11.481H28.2345C28.3974 11.8266 28.5408 12.1826 28.6643 12.5484H23.0379C22.9209 12.8961 22.8221 13.2524 22.7432 13.6157H28.9587C29.1075 14.304 29.1867 15.0182 29.1867 15.7508C29.1867 16.8702 29.0031 17.9476 28.6643 18.9539H23.0379C23.1614 19.3194 23.3048 19.6758 23.4674 20.0219H28.2345C28.0603 20.39 27.8656 20.7464 27.6491 21.0897H24.0524C24.287 21.4616 24.5455 21.8182 24.8262 22.1564H26.8758C26.5607 22.5368 26.2183 22.8937 25.8508 23.2242C27.6519 24.8456 30.0405 25.8334 32.6632 25.8334C38.2676 25.8334 42.8108 21.3196 42.8108 15.7508C42.8108 10.1827 38.2676 5.66797 32.6632 5.66797Z" fill="#FF9900"/>
<path fill-rule="evenodd" clip-rule="evenodd" d="M16.6697 16.8549C16.554 16.8418 16.503 16.8377 16.4237 16.8377C15.7992 16.8377 15.4834 17.0506 15.4834 17.4711C15.4834 17.73 15.6375 17.8946 15.8781 17.8946C16.327 17.8946 16.6504 17.4701 16.6697 16.8549ZM17.4711 18.7082C17.3242 18.7082 16.5579 18.7082 16.5579 18.7082L16.5789 18.2772C16.3005 18.6175 15.929 18.7801 15.4243 18.7801C14.8274 18.7801 14.418 18.317 14.418 17.6441C14.418 16.6312 15.1298 16.0405 16.352 16.0405C16.4773 16.0405 16.6373 16.052 16.8012 16.0726C16.8352 15.9352 16.8442 15.8769 16.8442 15.8028C16.8442 15.5275 16.6524 15.4242 16.1378 15.4242C15.5988 15.4188 15.1542 15.5522 14.9716 15.6117C14.9831 15.5426 15.1244 14.6763 15.1244 14.6763C15.6732 14.516 16.0353 14.4561 16.4428 14.4561C17.3889 14.4561 17.8901 14.878 17.889 15.6756C17.8909 15.8896 17.8551 16.1527 17.7998 16.4997C17.7042 17.1021 17.499 18.3938 17.4711 18.7082Z" fill="#000066"/>
<path fill-rule="evenodd" clip-rule="evenodd" d="M13.9569 18.7081H12.855L13.4865 14.7768L12.077 18.7081H11.3264L11.2335 14.7988L10.5702 18.7081H9.53906L10.4004 13.5938H11.9847L12.0804 16.4564L13.0469 13.5938H14.8089L13.9569 18.7081Z" fill="#000066"/>
<path fill-rule="evenodd" clip-rule="evenodd" d="M34.0245 16.8549C33.9089 16.8418 33.8585 16.8377 33.7793 16.8377C33.1543 16.8377 32.8389 17.0506 32.8389 17.4711C32.8389 17.73 32.9924 17.8946 33.2336 17.8946C33.6821 17.8946 34.0057 17.4701 34.0245 16.8549ZM34.8264 18.7082C34.6791 18.7082 33.9135 18.7082 33.9135 18.7082L33.9342 18.2772C33.6558 18.6175 33.2844 18.7801 32.7801 18.7801C32.1824 18.7801 31.7734 18.317 31.7734 17.6441C31.7734 16.6312 32.4856 16.0405 33.7075 16.0405C33.8326 16.0405 33.9923 16.052 34.1563 16.0726C34.1905 15.9352 34.1993 15.8769 34.1993 15.8028C34.1993 15.5275 34.0075 15.4242 33.4929 15.4242C32.9539 15.4188 32.5095 15.5522 32.3262 15.6117C32.3384 15.5426 32.48 14.6763 32.48 14.6763C33.0285 14.516 33.3909 14.4561 33.7978 14.4561C34.7446 14.4561 35.2451 14.878 35.2441 15.6756C35.246 15.8896 35.2106 16.1527 35.1549 16.4997C35.0597 17.1021 34.8539 18.3938 34.8264 18.7082Z" fill="#000066"/>
<path fill-rule="evenodd" clip-rule="evenodd" d="M22.3671 18.6445C22.0655 18.7388 21.8305 18.7796 21.5756 18.7796C21.0125 18.7796 20.7051 18.4581 20.7051 17.8658C20.6972 17.6819 20.7861 17.1983 20.856 16.7573C20.9198 16.3686 21.3339 13.9189 21.3339 13.9189H22.4287L22.3009 14.5485H22.9624L22.8131 15.5482H22.1493C22.0222 16.339 21.8408 17.3244 21.8387 17.455C21.8387 17.6695 21.9539 17.7632 22.2161 17.7632C22.3416 17.7632 22.4388 17.7504 22.5131 17.724L22.3671 18.6445Z" fill="#000066"/>
<path fill-rule="evenodd" clip-rule="evenodd" d="M25.7245 18.6113C25.3482 18.7256 24.9856 18.7813 24.6009 18.7801C23.3749 18.7785 22.7358 18.1427 22.7358 16.9245C22.7358 15.5029 23.5487 14.4561 24.6526 14.4561C25.5553 14.4561 26.1321 15.0421 26.1321 15.9609C26.1321 16.2663 26.0927 16.564 25.9969 16.984H23.8162C23.7426 17.5874 24.131 17.8387 24.7685 17.8387C25.16 17.8387 25.5137 17.7584 25.9068 17.5772L25.7245 18.6113ZM25.109 16.1457C25.1153 16.0589 25.2249 15.4032 24.599 15.4032C24.2507 15.4032 24.001 15.6674 23.8998 16.1457H25.109Z" fill="#000066"/>
<path fill-rule="evenodd" clip-rule="evenodd" d="M18.1315 15.864C18.1315 16.3896 18.3881 16.7525 18.9702 17.0251C19.4162 17.2337 19.4856 17.2953 19.4856 17.4841C19.4856 17.7431 19.2887 17.8607 18.853 17.8607C18.5241 17.8607 18.2184 17.8094 17.8657 17.6961C17.8657 17.6961 17.7213 18.6132 17.7144 18.657C17.9647 18.7109 18.1879 18.7611 18.8608 18.7801C20.0232 18.7801 20.5601 18.3403 20.5601 17.3898C20.5601 16.8184 20.3356 16.483 19.7836 16.2306C19.3219 16.0201 19.2685 15.973 19.2685 15.7789C19.2685 15.5541 19.4518 15.4392 19.8076 15.4392C20.024 15.4392 20.3192 15.4621 20.5994 15.5015L20.7561 14.5368C20.4709 14.4917 20.0382 14.4561 19.7865 14.4561C18.5542 14.4561 18.1275 15.0955 18.1315 15.864Z" fill="#000066"/>
<path fill-rule="evenodd" clip-rule="evenodd" d="M31.0826 14.5656C31.3886 14.5656 31.6744 14.6446 32.0671 14.8417L32.2475 13.7318C32.0855 13.6687 31.5177 13.2988 31.0366 13.2988C30.2995 13.2988 29.6757 13.6628 29.2377 14.262C28.5982 14.0517 28.335 14.4768 28.013 14.9007L27.7268 14.967C27.7484 14.8275 27.7681 14.6891 27.7619 14.5487H26.7496C26.6117 15.8363 26.3668 17.14 26.1752 18.4281L26.125 18.7079H27.2272C27.4111 17.5202 27.5117 16.76 27.573 16.245L27.988 16.0165C28.0504 15.7869 28.2439 15.7098 28.6333 15.7192C28.5825 15.9904 28.5549 16.2761 28.5549 16.5717C28.5549 17.9326 29.2948 18.7798 30.4803 18.7798C30.7858 18.7798 31.0481 18.74 31.4543 18.63L31.6474 17.4646C31.2821 17.6429 30.983 17.7269 30.7118 17.7269C30.0713 17.7269 29.6837 17.257 29.6837 16.4808C29.6837 15.3545 30.2598 14.5656 31.0826 14.5656Z" fill="#000066"/>
<path fill-rule="evenodd" clip-rule="evenodd" d="M40.4096 13.5938L40.1648 15.0713C39.8641 14.6776 39.5405 14.3924 39.1132 14.3924C38.5574 14.3924 38.0514 14.8111 37.7201 15.4278C37.2587 15.3326 36.782 15.1709 36.782 15.1709L36.7816 15.1749C36.8184 14.8302 36.8339 14.6205 36.8302 14.5488H35.8182C35.6807 15.8365 35.4355 17.1402 35.244 18.4283L35.1934 18.7081H36.2959C36.4447 17.7482 36.5584 16.9502 36.6423 16.3183C37.0191 15.9799 37.2077 15.6856 37.5877 15.7047C37.4191 16.1097 37.3208 16.576 37.3208 17.0543C37.3208 18.0937 37.8497 18.7799 38.6509 18.7799C39.0547 18.7799 39.3645 18.6415 39.6667 18.3209L39.6147 18.7078H40.6571L41.4963 13.5938H40.4096ZM39.0319 17.7473C38.657 17.7473 38.4671 17.471 38.4671 16.9273C38.4671 16.1097 38.822 15.5302 39.3216 15.5302C39.7002 15.5302 39.9055 15.8164 39.9055 16.3448C39.9055 17.1693 39.5446 17.7473 39.0319 17.7473Z" fill="#000066"/>
<path fill-rule="evenodd" clip-rule="evenodd" d="M14.2736 18.4049H13.172L13.8034 14.4736L12.3943 18.4049H11.6433L11.5506 14.4964L10.8871 18.4049H9.85596L10.7173 13.291H12.3016L12.3458 16.4568L13.4148 13.291H15.1258L14.2736 18.4049Z" fill="white"/>
<path fill-rule="evenodd" clip-rule="evenodd" d="M16.9865 16.5522C16.871 16.5388 16.82 16.5352 16.7406 16.5352C16.1162 16.5352 15.8002 16.7477 15.8002 17.1679C15.8002 17.4265 15.9545 17.5921 16.1952 17.5921C16.6439 17.5921 16.9674 17.1676 16.9865 16.5522ZM17.7876 18.4045C17.6409 18.4045 16.875 18.4045 16.875 18.4045L16.8958 17.9738C16.6174 18.314 16.2458 18.4767 15.7412 18.4767C15.1441 18.4767 14.7349 18.013 14.7349 17.3403C14.7349 16.3272 15.4469 15.7373 16.6691 15.7373C16.794 15.7373 16.954 15.7486 17.1181 15.7696C17.1521 15.632 17.1611 15.5735 17.1611 15.4991C17.1611 15.2239 16.9693 15.1214 16.4546 15.1214C15.9155 15.1151 15.4711 15.2484 15.2883 15.3079C15.3 15.239 15.4411 14.3727 15.4411 14.3727C15.9901 14.2127 16.3522 14.1523 16.7597 14.1523C17.7057 14.1523 18.2067 14.5748 18.2059 15.3721C18.2076 15.5858 18.1722 15.8501 18.1167 16.1962C18.021 16.798 17.8157 18.0906 17.7876 18.4045Z" fill="white"/>
<path fill-rule="evenodd" clip-rule="evenodd" d="M32.5642 13.4287L32.3838 14.5385C31.9904 14.342 31.7054 14.2625 31.3998 14.2625C30.5773 14.2625 30.0003 15.0524 30.0003 16.1789C30.0003 16.9551 30.388 17.424 31.0285 17.424C31.2999 17.424 31.5996 17.3407 31.9641 17.1617L31.7706 18.3271C31.365 18.4369 31.1025 18.4771 30.7971 18.4771C29.6109 18.4771 28.8721 17.6297 28.8721 16.2691C28.8721 14.4408 29.8935 13.1631 31.3534 13.1631C31.8345 13.1631 32.4027 13.3656 32.5642 13.4287Z" fill="white"/>
<path fill-rule="evenodd" clip-rule="evenodd" d="M34.3416 16.5522C34.2268 16.5388 34.1756 16.5352 34.0964 16.5352C33.4723 16.5352 33.1562 16.7477 33.1562 17.1679C33.1562 17.4265 33.3103 17.5921 33.5509 17.5921C33.9994 17.5921 34.3232 17.1676 34.3416 16.5522ZM35.1434 18.4045C34.9968 18.4045 34.2308 18.4045 34.2308 18.4045L34.2515 17.9738C33.9731 18.314 33.6015 18.4767 33.0973 18.4767C32.4996 18.4767 32.0908 18.013 32.0908 17.3403C32.0908 16.3272 32.8022 15.7373 34.0247 15.7373C34.1496 15.7373 34.3094 15.7486 34.4732 15.7696C34.5074 15.632 34.5164 15.5735 34.5164 15.4991C34.5164 15.2239 34.3251 15.1214 33.8101 15.1214C33.2714 15.1151 32.8272 15.2484 32.6441 15.3079C32.6556 15.239 32.7969 14.3727 32.7969 14.3727C33.3459 14.2127 33.7077 14.1523 34.1151 14.1523C35.0612 14.1523 35.5626 14.5748 35.5613 15.3721C35.5636 15.5858 35.5278 15.8501 35.4723 16.1962C35.3769 16.798 35.1716 18.0906 35.1434 18.4045Z" fill="white"/>
<path fill-rule="evenodd" clip-rule="evenodd" d="M22.684 18.3414C22.3827 18.4358 22.1474 18.4767 21.8927 18.4767C21.3295 18.4767 21.022 18.155 21.022 17.5634C21.0143 17.3789 21.1033 16.8961 21.1733 16.4545C21.2367 16.0656 21.6509 13.6162 21.6509 13.6162H22.7461L22.6179 14.2456H23.1802L23.0304 15.245H22.4664C22.3392 16.0366 22.1578 17.0213 22.1556 17.152C22.1556 17.3671 22.2712 17.4601 22.5331 17.4601C22.6587 17.4601 22.7557 17.4479 22.8303 17.4208L22.684 18.3414Z" fill="white"/>
<path fill-rule="evenodd" clip-rule="evenodd" d="M26.042 18.3084C25.6656 18.423 25.3022 18.477 24.918 18.4767C23.6918 18.4759 23.0532 17.8393 23.0532 16.6213C23.0532 15.1992 23.866 14.1523 24.969 14.1523C25.8726 14.1523 26.4492 14.7384 26.4492 15.6583C26.4492 15.9631 26.4091 16.2606 26.3145 16.6807H24.1335C24.0595 17.2842 24.4484 17.5359 25.0852 17.5359C25.477 17.5359 25.8306 17.4553 26.2242 17.2736L26.042 18.3084ZM25.4263 15.842C25.4323 15.755 25.5424 15.0996 24.9167 15.0996C24.568 15.0996 24.3183 15.3643 24.2168 15.842H25.4263Z" fill="white"/>
<path fill-rule="evenodd" clip-rule="evenodd" d="M18.4485 15.5603C18.4485 16.0869 18.7054 16.4489 19.2877 16.7219C19.7337 16.9303 19.8028 16.9919 19.8028 17.1809C19.8028 17.4402 19.6061 17.5571 19.17 17.5571C18.8414 17.5571 18.5356 17.5064 18.1828 17.3935C18.1828 17.3935 18.0385 18.31 18.0317 18.3532C18.2819 18.4077 18.5053 18.4574 19.1779 18.4767C20.3406 18.4767 20.8775 18.037 20.8775 17.0866C20.8775 16.5149 20.6526 16.1796 20.1008 15.9279C19.6389 15.7167 19.5859 15.6701 19.5859 15.4757C19.5859 15.2508 19.769 15.1352 20.1252 15.1352C20.341 15.1352 20.6366 15.1591 20.9166 15.1982L21.0734 14.2338C20.7881 14.189 20.3558 14.1523 20.1038 14.1523C18.8713 14.1523 18.4448 14.7919 18.4485 15.5603Z" fill="white"/>
<path fill-rule="evenodd" clip-rule="evenodd" d="M40.9741 18.4049H39.9321L39.9837 18.0178C39.6814 18.3386 39.3718 18.477 38.9679 18.477C38.1674 18.477 37.6377 17.7916 37.6377 16.7511C37.6377 15.3677 38.4589 14.2016 39.4303 14.2016C39.8575 14.2016 40.181 14.375 40.4823 14.7689L40.7267 13.291H41.8132L40.9741 18.4049ZM39.3488 17.4436C39.8621 17.4436 40.2223 16.866 40.2223 16.0422C40.2223 15.5137 40.0172 15.2266 39.6386 15.2266C39.1389 15.2266 38.7841 15.8062 38.7841 16.6241C38.7841 17.1684 38.9742 17.4436 39.3488 17.4436Z" fill="white"/>
<path fill-rule="evenodd" clip-rule="evenodd" d="M36.1359 14.2458C35.9981 15.5331 35.7531 16.8368 35.5614 18.1251L35.5112 18.4048H36.6131C37.0073 15.8614 37.1021 15.365 37.7205 15.427C37.8188 14.9064 38.0021 14.4506 38.1385 14.2208C37.6772 14.1252 37.4194 14.3843 37.0817 14.8766C37.1087 14.6636 37.1572 14.4569 37.1481 14.2458H36.1359Z" fill="white"/>
<path fill-rule="evenodd" clip-rule="evenodd" d="M27.067 14.2458C26.9286 15.5331 26.6832 16.8368 26.4919 18.1251L26.4419 18.4048H27.5441C27.9384 15.8614 28.0329 15.365 28.6503 15.427C28.7493 14.9064 28.9329 14.4506 29.069 14.2208C28.6081 14.1252 28.3499 14.3843 28.0129 14.8766C28.0395 14.6636 28.0884 14.4569 28.0788 14.2458H27.067Z" fill="white"/>
<rect x="62" width="52" height="31" rx="4" fill="#26337A"/>
<path fill-rule="evenodd" clip-rule="evenodd" d="M83.5747 20.4321L85.1736 10.5771H87.7293L86.1306 20.4321H83.5747Z" fill="#FFFFFE"/>
<path fill-rule="evenodd" clip-rule="evenodd" d="M95.4012 10.8197C94.8959 10.6219 94.1011 10.4062 93.1111 10.4062C90.5843 10.4062 88.8056 11.7436 88.7909 13.6586C88.7748 15.0752 90.0601 15.8652 91.0291 16.336C92.025 16.8186 92.3596 17.1274 92.3556 17.559C92.3488 18.219 91.5607 18.5214 90.8259 18.5214C89.8027 18.5214 89.2591 18.3725 88.4186 18.0046L88.0898 17.8477L87.7324 20.0537C88.3284 20.3281 89.4332 20.5664 90.5798 20.5789C93.2651 20.5789 95.01 19.2577 95.0305 17.2127C95.0397 16.0894 94.3587 15.238 92.8838 14.5351C91.9906 14.0781 91.4425 13.7754 91.4488 13.3128C91.4494 12.9033 91.9119 12.4648 92.9129 12.4648C93.7488 12.4514 94.354 12.6432 94.8256 12.8435L95.0551 12.9561L95.4012 10.8197Z" fill="#FFFFFE"/>
<path fill-rule="evenodd" clip-rule="evenodd" d="M98.8043 16.9388C99.0161 16.3724 99.8224 14.1842 99.8224 14.1842C99.8075 14.2102 100.033 13.6134 100.162 13.244L100.335 14.094C100.335 14.094 100.825 16.4462 100.926 16.9388C100.528 16.9388 99.3033 16.9388 98.8043 16.9388ZM101.957 10.5879H99.9822C99.3695 10.5879 98.911 10.7622 98.6426 11.4048L94.8472 20.4363H97.5315C97.5315 20.4363 97.9695 19.2213 98.0689 18.9547C98.3617 18.9547 100.97 18.9598 101.342 18.9598C101.419 19.3037 101.654 20.4363 101.654 20.4363H104.026L101.957 10.5879Z" fill="#FFFFFE"/>
<path fill-rule="evenodd" clip-rule="evenodd" d="M81.4309 10.5859L78.9294 17.3046L78.6615 15.9389C78.1953 14.3653 76.7442 12.6597 75.1211 11.8051L77.4096 20.424L80.1144 20.4224L84.1392 10.5859H81.4309Z" fill="#FFFFFE"/>
<path fill-rule="evenodd" clip-rule="evenodd" d="M76.607 10.5791H72.4856L72.4517 10.7833C75.6586 11.5996 77.7805 13.5701 78.6612 15.9388L77.7656 11.4106C77.6111 10.7861 77.162 10.6009 76.607 10.5791Z" fill="#EC982D"/>
<rect x="246" width="52" height="31" rx="4" fill="#0069AA"/>
<path fill-rule="evenodd" clip-rule="evenodd" d="M256.165 18.5916C256.165 17.9681 255.837 18.0091 255.523 18.0025V17.8223C255.795 17.8354 256.074 17.8354 256.347 17.8354C256.64 17.8354 257.038 17.8223 257.554 17.8223C259.361 17.8223 260.346 19.0212 260.346 20.2489C260.346 20.936 259.941 22.662 257.47 22.662C257.115 22.662 256.786 22.6483 256.458 22.6483C256.145 22.6483 255.837 22.6547 255.523 22.662V22.4817C255.942 22.4397 256.145 22.4261 256.165 21.9547V18.5916ZM256.849 21.843C256.849 22.3771 257.233 22.4393 257.575 22.4393C259.083 22.4393 259.577 21.3093 259.577 20.2764C259.577 18.9798 258.74 18.0439 257.393 18.0439C257.107 18.0439 256.975 18.0642 256.849 18.0717V21.843Z" fill="white"/>
<path fill-rule="evenodd" clip-rule="evenodd" d="M260.59 22.481H260.722C260.917 22.481 261.057 22.481 261.057 22.2516V20.3728C261.057 20.0681 260.953 20.026 260.694 19.8878V19.7771C261.022 19.6791 261.413 19.5483 261.441 19.5275C261.49 19.4996 261.531 19.4922 261.567 19.4922C261.601 19.4922 261.615 19.5339 261.615 19.5899V22.2516C261.615 22.481 261.769 22.481 261.965 22.481H262.083V22.6613C261.845 22.6613 261.601 22.6476 261.35 22.6476C261.099 22.6476 260.848 22.654 260.59 22.6613V22.481ZM261.336 18.4252C261.155 18.4252 260.994 18.2588 260.994 18.0786C260.994 17.9049 261.162 17.7451 261.336 17.7451C261.517 17.7451 261.678 17.8912 261.678 18.0786C261.678 18.2661 261.525 18.4252 261.336 18.4252Z" fill="white"/>
<path fill-rule="evenodd" clip-rule="evenodd" d="M262.746 20.4145C262.746 20.1584 262.669 20.0891 262.342 19.9572V19.8255C262.641 19.7285 262.927 19.638 263.262 19.4922C263.284 19.4922 263.304 19.506 263.304 19.5615V20.0123C263.702 19.7285 264.044 19.4922 264.513 19.4922C265.105 19.4922 265.314 19.9222 265.314 20.463V22.2516C265.314 22.481 265.468 22.481 265.663 22.481H265.789V22.6613C265.544 22.6613 265.3 22.6476 265.049 22.6476C264.798 22.6476 264.546 22.654 264.295 22.6613V22.481H264.421C264.617 22.481 264.756 22.481 264.756 22.2516V20.4566C264.756 20.0609 264.513 19.8669 264.114 19.8669C263.891 19.8669 263.535 20.0469 263.304 20.2001V22.2516C263.304 22.481 263.458 22.481 263.654 22.481H263.779V22.6613C263.535 22.6613 263.29 22.6476 263.039 22.6476C262.788 22.6476 262.537 22.654 262.286 22.6613V22.481H262.412C262.607 22.481 262.746 22.481 262.746 22.2516V20.4145Z" fill="white"/>
<path fill-rule="evenodd" clip-rule="evenodd" d="M266.32 20.7478C266.305 20.8102 266.305 20.914 266.32 21.15C266.361 21.8085 266.787 22.349 267.345 22.349C267.729 22.349 268.03 22.1409 268.287 21.8849L268.385 21.982C268.064 22.4048 267.666 22.7656 267.094 22.7656C265.984 22.7656 265.761 21.6972 265.761 21.2538C265.761 19.8946 266.682 19.4922 267.17 19.4922C267.736 19.4922 268.344 19.8458 268.35 20.581C268.35 20.6231 268.35 20.6642 268.344 20.7059L268.28 20.7478H266.32ZM267.555 20.526C267.729 20.526 267.75 20.4358 267.75 20.3522C267.75 19.9992 267.534 19.7148 267.143 19.7148C266.717 19.7148 266.424 20.0263 266.34 20.526H267.555Z" fill="white"/>
<path fill-rule="evenodd" clip-rule="evenodd" d="M268.511 22.481H268.699C268.894 22.481 269.034 22.481 269.034 22.2516V20.3036C269.034 20.0891 268.776 20.0469 268.671 19.9915V19.8878C269.18 19.6727 269.46 19.4922 269.523 19.4922C269.564 19.4922 269.585 19.513 269.585 19.5827V20.2068H269.6C269.774 19.9365 270.067 19.4922 270.493 19.4922C270.667 19.4922 270.89 19.61 270.89 19.8598C270.89 20.0469 270.758 20.2141 270.563 20.2141C270.346 20.2141 270.346 20.0469 270.101 20.0469C269.983 20.0469 269.592 20.2068 269.592 20.6231V22.2516C269.592 22.481 269.732 22.481 269.927 22.481H270.317V22.6613C269.934 22.654 269.642 22.6476 269.341 22.6476C269.055 22.6476 268.762 22.654 268.511 22.6613V22.481Z" fill="white"/>
<path fill-rule="evenodd" clip-rule="evenodd" d="M271.197 21.6971C271.288 22.1546 271.566 22.5435 272.077 22.5435C272.488 22.5435 272.641 22.2936 272.641 22.0511C272.641 21.2325 271.12 21.4963 271.12 20.3801C271.12 19.9913 271.435 19.4922 272.202 19.4922C272.425 19.4922 272.725 19.555 272.997 19.6938L273.046 20.4005H272.886C272.816 19.9639 272.572 19.7144 272.125 19.7144C271.846 19.7144 271.581 19.8736 271.581 20.1718C271.581 20.9836 273.2 20.7335 273.2 21.8222C273.2 22.2795 272.83 22.7654 271.999 22.7654C271.721 22.7654 271.392 22.6682 271.148 22.5295L271.071 21.7321L271.197 21.6971Z" fill="white"/>
<path fill-rule="evenodd" clip-rule="evenodd" d="M279.501 19.0769H279.327C279.194 18.2665 278.615 17.9401 277.834 17.9401C277.03 17.9401 275.865 18.4737 275.865 20.1377C275.865 21.5389 276.871 22.5444 277.945 22.5444C278.635 22.5444 279.209 22.0727 279.348 21.3442L279.509 21.3856L279.348 22.3983C279.055 22.5788 278.266 22.7663 277.805 22.7663C276.173 22.7663 275.14 21.7191 275.14 20.1591C275.14 18.7373 276.417 17.7178 277.785 17.7178C278.35 17.7178 278.894 17.8986 279.432 18.0859L279.501 19.0769Z" fill="white"/>
<path fill-rule="evenodd" clip-rule="evenodd" d="M279.753 22.4808H279.885C280.081 22.4808 280.22 22.4808 280.22 22.2515V18.3904C280.22 17.9392 280.116 17.9255 279.85 17.8491V17.738C280.129 17.648 280.423 17.5235 280.57 17.4397C280.645 17.3987 280.702 17.3633 280.722 17.3633C280.765 17.3633 280.779 17.4054 280.779 17.4611V22.2515C280.779 22.4808 280.932 22.4808 281.128 22.4808H281.246V22.6612C281.009 22.6612 280.765 22.6475 280.514 22.6475C280.262 22.6475 280.012 22.6539 279.753 22.6612V22.4808Z" fill="white"/>
<path fill-rule="evenodd" clip-rule="evenodd" d="M284.234 22.2795C284.234 22.4048 284.31 22.4114 284.429 22.4114C284.513 22.4114 284.617 22.4048 284.708 22.4048V22.5507C284.408 22.5782 283.836 22.7238 283.703 22.7655L283.668 22.7444V22.1827C283.25 22.5223 282.928 22.7655 282.432 22.7655C282.056 22.7655 281.665 22.5223 281.665 21.9407V20.1651C281.665 19.9846 281.637 19.8112 281.247 19.7771V19.645C281.498 19.6381 282.056 19.5967 282.147 19.5967C282.224 19.5967 282.224 19.645 282.224 19.7978V21.5865C282.224 21.7947 282.224 22.3904 282.831 22.3904C283.068 22.3904 283.382 22.2106 283.675 21.9682V20.1025C283.675 19.964 283.34 19.8877 283.089 19.8188V19.6941C283.717 19.6518 284.108 19.5967 284.178 19.5967C284.234 19.5967 284.234 19.645 284.234 19.7215V22.2795Z" fill="white"/>
<path fill-rule="evenodd" clip-rule="evenodd" d="M285.622 19.9913C285.901 19.7561 286.278 19.492 286.662 19.492C287.471 19.492 287.96 20.1931 287.96 20.9487C287.96 21.8567 287.29 22.7654 286.291 22.7654C285.776 22.7654 285.503 22.5985 285.322 22.5222L285.113 22.6817L284.967 22.6058C285.029 22.1968 285.064 21.7946 285.064 21.3714V18.3904C285.064 17.9392 284.959 17.9255 284.694 17.8491V17.738C284.973 17.648 285.266 17.5235 285.413 17.4397C285.49 17.3987 285.545 17.3633 285.566 17.3633C285.608 17.3633 285.622 17.4056 285.622 17.4611V19.9913ZM285.622 21.8778C285.622 22.1412 285.873 22.5853 286.341 22.5853C287.087 22.5853 287.401 21.8571 287.401 21.2398C287.401 20.4911 286.83 19.8672 286.286 19.8672C286.026 19.8672 285.81 20.0338 285.622 20.1935V21.8778Z" fill="white"/>
<path fill-rule="evenodd" clip-rule="evenodd" d="M255.516 26.6931H255.569C255.705 26.6931 255.85 26.6745 255.85 26.4781V24.5016C255.85 24.305 255.705 24.2862 255.569 24.2862H255.516V24.1729C255.664 24.1729 255.891 24.1878 256.078 24.1878C256.268 24.1878 256.495 24.1729 256.674 24.1729V24.2862H256.62C256.484 24.2862 256.34 24.305 256.34 24.5016V26.4781C256.34 26.6745 256.484 26.6931 256.62 26.6931H256.674V26.8064C256.492 26.8064 256.263 26.7919 256.074 26.7919C255.888 26.7919 255.664 26.8064 255.516 26.8064V26.6931Z" fill="white"/>
<path fill-rule="evenodd" clip-rule="evenodd" d="M256.674 26.8224C256.49 26.8224 256.263 26.8073 256.074 26.8073C255.888 26.8073 255.665 26.8224 255.516 26.8224H255.499V26.6766H255.569C255.706 26.6733 255.832 26.6623 255.833 26.4779V24.5014C255.832 24.3168 255.706 24.3048 255.569 24.3023H255.499V24.1562H255.516C255.665 24.1562 255.892 24.171 256.078 24.171C256.267 24.171 256.494 24.1562 256.674 24.1562H256.691V24.3023H256.621C256.483 24.3048 256.357 24.3168 256.356 24.5014V26.4779C256.357 26.6623 256.483 26.6733 256.621 26.6766H256.691V26.8224H256.674ZM256.657 26.7897L256.657 26.7094H256.621C256.485 26.7094 256.324 26.6857 256.323 26.4775V24.5009C256.324 24.2923 256.485 24.269 256.621 24.269H256.657V24.1885C256.482 24.1886 256.262 24.2038 256.078 24.2038C255.898 24.2038 255.679 24.1896 255.532 24.1885V24.269H255.569C255.704 24.269 255.866 24.2923 255.866 24.5009V26.4775C255.866 26.6857 255.704 26.7094 255.569 26.7094H255.532V26.7897C255.679 26.7884 255.894 26.7745 256.074 26.7745C256.259 26.7745 256.478 26.7887 256.657 26.7897Z" fill="white"/>
<path fill-rule="evenodd" clip-rule="evenodd" d="M259.283 26.0628L259.29 26.0554V24.641C259.29 24.3314 259.073 24.2861 258.96 24.2861H258.876V24.1729C259.055 24.1729 259.229 24.1878 259.408 24.1878C259.563 24.1878 259.72 24.1729 259.875 24.1729V24.2861H259.818C259.658 24.2861 259.48 24.3162 259.48 24.7652V26.4818C259.48 26.6141 259.484 26.746 259.502 26.8631H259.358L257.403 24.6971V26.2519C257.403 26.5804 257.467 26.6931 257.759 26.6931H257.824V26.8064C257.661 26.8064 257.498 26.7917 257.334 26.7917C257.164 26.7917 256.989 26.8064 256.818 26.8064V26.6931H256.871C257.133 26.6931 257.213 26.5157 257.213 26.2148V24.6251C257.213 24.4141 257.038 24.2861 256.867 24.2861H256.818V24.1729C256.962 24.1729 257.11 24.1878 257.254 24.1878C257.369 24.1878 257.479 24.1729 257.592 24.1729L259.283 26.0628Z" fill="white"/>
<path fill-rule="evenodd" clip-rule="evenodd" d="M259.502 26.8788L259.346 26.8735L257.419 24.7395V26.2517C257.423 26.5798 257.473 26.673 257.759 26.6766H257.841V26.8224H257.824C257.659 26.8224 257.496 26.8073 257.334 26.8073C257.164 26.8073 256.99 26.8224 256.817 26.8224H256.801V26.6766H256.871C257.122 26.6752 257.194 26.5149 257.196 26.2145V24.6255C257.196 24.4246 257.03 24.3023 256.867 24.3023H256.801V24.1562H256.817C256.963 24.1562 257.111 24.171 257.254 24.171C257.367 24.171 257.477 24.1563 257.605 24.1621L259.273 26.0285V24.6408C259.272 24.3412 259.07 24.3048 258.96 24.3023H258.859V24.1562H258.876C259.055 24.1562 259.23 24.171 259.407 24.171C259.562 24.171 259.718 24.1562 259.875 24.1562H259.891V24.3023H259.818C259.661 24.3063 259.5 24.3201 259.496 24.7651V26.4817C259.496 26.6138 259.5 26.7454 259.518 26.86L259.522 26.8788H259.502ZM259.358 26.8455H259.483C259.466 26.732 259.463 26.6067 259.463 26.4812V24.7646C259.463 24.3117 259.654 24.269 259.818 24.2687H259.858V24.1885C259.708 24.1896 259.558 24.2033 259.407 24.2033C259.233 24.2033 259.064 24.1896 258.893 24.1885L258.892 24.2687H258.96C259.076 24.269 259.306 24.3206 259.306 24.6403L259.301 26.0666L259.294 26.0739L259.281 26.086L257.592 24.1885C257.479 24.1885 257.37 24.2033 257.254 24.2033C257.115 24.2033 256.972 24.1896 256.834 24.1885L256.834 24.2687H256.867C257.045 24.269 257.229 24.4041 257.229 24.6251V26.214C257.229 26.5159 257.144 26.7087 256.871 26.7097L256.834 26.7087V26.7897C256.999 26.7884 257.168 26.7745 257.334 26.7745C257.492 26.7745 257.651 26.7884 257.807 26.7897V26.7097H257.759C257.46 26.7087 257.386 26.5793 257.386 26.2513V24.6542L259.358 26.8455ZM259.283 26.0626L259.294 26.0518L259.283 26.0626ZM259.273 26.0556V26.0542L259.27 26.0518L259.273 26.0556Z" fill="white"/>
<path fill-rule="evenodd" clip-rule="evenodd" d="M260.444 24.3613C260.159 24.3613 260.147 24.4295 260.091 24.7046H259.977C259.992 24.5989 260.01 24.4934 260.022 24.384C260.037 24.2779 260.045 24.1726 260.045 24.0635H260.136C260.167 24.1768 260.261 24.1726 260.364 24.1726H262.323C262.426 24.1726 262.521 24.1689 262.529 24.0557L262.619 24.0711C262.605 24.1726 262.589 24.2746 262.578 24.3767C262.571 24.4785 262.571 24.5801 262.571 24.6819L262.456 24.7239C262.449 24.5845 262.43 24.3613 262.175 24.3613H261.553V26.3685C261.553 26.6596 261.686 26.6928 261.868 26.6928H261.94V26.8062C261.792 26.8062 261.526 26.7917 261.321 26.7917C261.093 26.7917 260.827 26.8062 260.679 26.8062V26.6928H260.751C260.961 26.6928 261.066 26.6743 261.066 26.3764V24.3613H260.444Z" fill="white"/>
<path fill-rule="evenodd" clip-rule="evenodd" d="M261.94 26.8229C261.791 26.8229 261.525 26.8079 261.321 26.8079C261.093 26.8079 260.828 26.8229 260.679 26.8229H260.663V26.6771H260.751C260.961 26.6723 261.045 26.6696 261.049 26.3769V24.378H260.444V24.345H261.082V26.3769C261.082 26.6798 260.959 26.7104 260.751 26.7107H260.695V26.7904C260.845 26.7894 261.101 26.7755 261.321 26.7755C261.519 26.7755 261.773 26.7894 261.923 26.7904V26.7107H261.868C261.684 26.7104 261.536 26.6656 261.536 26.3691V24.345H262.175C262.43 24.346 262.464 24.5611 262.472 24.7015L262.554 24.6713C262.554 24.5728 262.554 24.4741 262.561 24.375C262.572 24.2775 262.586 24.1816 262.6 24.085L262.543 24.0754C262.525 24.1852 262.418 24.1911 262.323 24.1896H260.345C260.255 24.1898 260.158 24.1855 260.124 24.0802H260.061C260.06 24.1845 260.053 24.2857 260.039 24.3863C260.028 24.49 260.01 24.5895 259.996 24.6895H260.077C260.127 24.4263 260.16 24.3413 260.444 24.345V24.378C260.162 24.3836 260.169 24.4303 260.107 24.709L260.104 24.7219H259.958L259.96 24.7023C259.975 24.5971 259.994 24.4911 260.005 24.3816C260.021 24.2769 260.028 24.1722 260.028 24.0641V24.0474H260.149L260.152 24.0592C260.177 24.1544 260.248 24.1551 260.345 24.1568H262.323C262.429 24.1551 262.506 24.1536 262.512 24.055L262.513 24.0371L262.531 24.0405L262.638 24.0574L262.635 24.0741C262.62 24.1754 262.605 24.2769 262.594 24.378C262.587 24.4791 262.587 24.5805 262.587 24.6825V24.6939L262.576 24.6983L262.441 24.7472L262.441 24.7253C262.43 24.5834 262.415 24.378 262.175 24.378H261.569V26.3691C261.573 26.6536 261.686 26.6736 261.868 26.6771H261.956V26.8229H261.94Z" fill="white"/>
<path fill-rule="evenodd" clip-rule="evenodd" d="M262.741 26.6931H262.794C262.93 26.6931 263.075 26.6745 263.075 26.4781V24.5016C263.075 24.305 262.93 24.2862 262.794 24.2862H262.741V24.1729C262.972 24.1729 263.367 24.1878 263.686 24.1878C264.005 24.1878 264.4 24.1729 264.658 24.1729C264.651 24.3351 264.655 24.5847 264.666 24.7504L264.552 24.7804C264.533 24.535 264.488 24.3394 264.089 24.3394H263.562V25.3272H264.013C264.241 25.3272 264.29 25.1994 264.313 24.9954H264.427C264.419 25.1428 264.415 25.2899 264.415 25.4369C264.415 25.5805 264.419 25.7238 264.427 25.8669L264.313 25.8895C264.29 25.6634 264.279 25.5163 264.017 25.5163H263.562V26.3949C263.562 26.6405 263.781 26.6405 264.024 26.6405C264.48 26.6405 264.681 26.6101 264.795 26.1805L264.901 26.2065C264.852 26.4069 264.806 26.6062 264.772 26.8064C264.529 26.8064 264.092 26.7919 263.751 26.7919C263.409 26.7919 262.957 26.8064 262.741 26.8064V26.6931Z" fill="white"/>
<path fill-rule="evenodd" clip-rule="evenodd" d="M264.772 26.8224C264.528 26.8224 264.092 26.8067 263.751 26.8067C263.409 26.8067 262.957 26.8224 262.741 26.8224H262.725V26.6766H262.794C262.931 26.6743 263.056 26.6623 263.058 26.4779V24.5014C263.056 24.3171 262.931 24.3048 262.794 24.3023H262.725V24.1562H262.741C262.973 24.1562 263.368 24.171 263.686 24.171C264.005 24.171 264.399 24.1562 264.658 24.1562H264.675L264.674 24.1737C264.672 24.2301 264.67 24.2972 264.67 24.3682C264.67 24.4986 264.674 24.6415 264.682 24.7489L264.682 24.7623L264.669 24.7662L264.536 24.8009L264.535 24.7815C264.513 24.5367 264.48 24.3586 264.089 24.3549H263.577L263.577 25.3105H264.013C264.232 25.3082 264.271 25.1971 264.296 24.9936L264.297 24.9784H264.443L264.443 24.9957C264.436 25.1431 264.431 25.2897 264.431 25.4367C264.431 25.5794 264.436 25.7226 264.443 25.866L264.443 25.8797L264.43 25.8828L264.297 25.909L264.296 25.8913C264.27 25.6609 264.268 25.5347 264.016 25.532H263.577V26.3947C263.578 26.624 263.777 26.6228 264.024 26.624C264.481 26.6213 264.664 26.599 264.779 26.1759L264.783 26.1606L264.799 26.1632L264.92 26.1946L264.917 26.2102C264.868 26.4098 264.822 26.6093 264.788 26.809L264.785 26.8224H264.772ZM264.758 26.7894C264.791 26.5986 264.834 26.4081 264.881 26.2181L264.806 26.1994C264.693 26.6214 264.472 26.6591 264.024 26.6563C263.785 26.6563 263.546 26.6563 263.544 26.3942V25.4992H264.016C264.282 25.4965 264.308 25.6553 264.327 25.8699L264.409 25.8532C264.402 25.7141 264.398 25.5745 264.398 25.4362C264.398 25.2946 264.402 25.1532 264.409 25.0108H264.327C264.306 25.2079 264.244 25.3454 264.013 25.343H263.544V24.3217H264.089C264.484 24.3186 264.549 24.5217 264.566 24.759L264.648 24.7369C264.642 24.6305 264.637 24.4937 264.637 24.3677C264.637 24.3032 264.639 24.2419 264.641 24.1885C264.383 24.1896 263.998 24.2033 263.686 24.2033C263.374 24.2033 262.99 24.1896 262.757 24.1885V24.2687H262.794C262.929 24.269 263.091 24.2923 263.092 24.5009V26.4775C263.091 26.6857 262.929 26.7087 262.794 26.7097H262.757V26.7894C262.978 26.7887 263.417 26.7745 263.751 26.7745C264.086 26.7745 264.513 26.7887 264.758 26.7894Z" fill="white"/>
<path fill-rule="evenodd" clip-rule="evenodd" d="M265.414 24.5724C265.414 24.2974 265.262 24.2861 265.144 24.2861H265.075V24.1729C265.197 24.1729 265.432 24.1878 265.664 24.1878C265.891 24.1878 266.074 24.1729 266.275 24.1729C266.753 24.1729 267.179 24.301 267.179 24.8371C267.179 25.1764 266.951 25.3836 266.651 25.5013L267.3 26.4666C267.407 26.6262 267.482 26.6709 267.669 26.6931V26.8064C267.543 26.8064 267.422 26.7919 267.297 26.7919C267.179 26.7919 267.057 26.8064 266.94 26.8064C266.647 26.4256 266.397 26.0183 266.15 25.5837H265.9V26.3916C265.9 26.6821 266.036 26.6931 266.21 26.6931H266.279V26.8064C266.062 26.8064 265.843 26.7919 265.626 26.7919C265.444 26.7919 265.265 26.8064 265.075 26.8064V26.6931H265.144C265.285 26.6931 265.414 26.6292 265.414 26.4898V24.5724ZM265.9 25.4476H266.085C266.465 25.4476 266.67 25.3046 266.67 24.8592C266.67 24.5237 266.454 24.3087 266.115 24.3087C266.001 24.3087 265.953 24.3202 265.9 24.3239V25.4476Z" fill="white"/>
<path fill-rule="evenodd" clip-rule="evenodd" d="M267.669 26.8224C267.541 26.8224 267.421 26.8073 267.296 26.8073C267.18 26.8073 267.059 26.8224 266.926 26.8161C266.635 26.4362 266.385 26.0312 266.14 25.6005H265.916V26.3907C265.92 26.6747 266.035 26.6726 266.21 26.6766H266.295V26.8224H266.278C266.061 26.8224 265.841 26.8073 265.626 26.8073C265.444 26.8073 265.266 26.8224 265.075 26.8224H265.059V26.6766H265.144C265.28 26.6756 265.396 26.6165 265.396 26.4897V24.5723C265.393 24.3048 265.262 24.3061 265.144 24.3023H265.059V24.1562H265.075C265.198 24.1562 265.432 24.171 265.664 24.171C265.891 24.171 266.073 24.1562 266.275 24.1562C266.754 24.1572 267.194 24.2882 267.196 24.8363C267.196 25.1768 266.969 25.3896 266.676 25.5083L267.314 26.4574C267.42 26.6139 267.486 26.653 267.671 26.6766L267.685 26.6787V26.8224H267.669ZM265.899 25.5668H266.159L266.164 25.5752C266.411 26.0086 266.66 26.4161 266.94 26.7897C267.055 26.7897 267.178 26.7745 267.296 26.7745C267.417 26.7745 267.534 26.7877 267.652 26.7894V26.7065C267.474 26.685 267.391 26.6316 267.287 26.4752L266.626 25.4931L266.645 25.4855C266.942 25.3691 267.162 25.1676 267.162 24.8358C267.162 24.3124 266.752 24.191 266.275 24.1885C266.075 24.1885 265.893 24.2038 265.664 24.2038C265.441 24.2038 265.216 24.1896 265.091 24.1885V24.2687H265.144C265.262 24.269 265.429 24.2884 265.429 24.5718V26.4892C265.429 26.6406 265.287 26.7094 265.144 26.7097H265.091V26.7894C265.274 26.7887 265.447 26.7745 265.626 26.7745C265.838 26.7745 266.052 26.7887 266.262 26.7894V26.7097H266.21C266.037 26.7094 265.883 26.6881 265.883 26.3902V25.5668H265.899ZM265.899 25.4637H265.883V24.3085L265.897 24.3073C265.949 24.3032 266 24.2928 266.115 24.2928C266.461 24.2928 266.686 24.516 266.686 24.86C266.685 25.3105 266.468 25.4635 266.085 25.4637H265.899ZM266.085 25.4313C266.461 25.4276 266.65 25.2981 266.654 24.8598C266.652 24.5302 266.446 24.3256 266.115 24.3242C266.013 24.3242 265.964 24.3336 265.916 24.3384V25.4313H266.085Z" fill="white"/>
<path fill-rule="evenodd" clip-rule="evenodd" d="M270.247 26.0628L270.253 26.0554V24.641C270.253 24.3314 270.038 24.2861 269.924 24.2861H269.84V24.1729C270.019 24.1729 270.193 24.1878 270.372 24.1878C270.528 24.1878 270.682 24.1729 270.839 24.1729V24.2861H270.782C270.623 24.2861 270.444 24.3162 270.444 24.7652V26.4818C270.444 26.6141 270.448 26.746 270.467 26.8631H270.323L268.368 24.6971V26.2519C268.368 26.5804 268.432 26.6931 268.724 26.6931H268.789V26.8064C268.626 26.8064 268.462 26.7917 268.299 26.7917C268.127 26.7917 267.953 26.8064 267.782 26.8064V26.6931H267.835C268.097 26.6931 268.177 26.5157 268.177 26.2148V24.6251C268.177 24.4141 268.002 24.2861 267.832 24.2861H267.782V24.1729C267.926 24.1729 268.075 24.1878 268.219 24.1878C268.332 24.1878 268.443 24.1729 268.557 24.1729L270.247 26.0628Z" fill="white"/>
<path fill-rule="evenodd" clip-rule="evenodd" d="M270.466 26.8788L270.311 26.8735L268.383 24.7398V26.2516C268.388 26.5802 268.438 26.673 268.724 26.6766H268.804V26.8224H268.788C268.624 26.8224 268.461 26.8067 268.298 26.8067C268.129 26.8067 267.953 26.8224 267.782 26.8224H267.765V26.6766H267.835C268.086 26.6756 268.158 26.5149 268.16 26.2136V24.625C268.16 24.4239 267.994 24.3023 267.832 24.3023H267.765V24.1562H267.782C267.927 24.1562 268.076 24.171 268.219 24.171C268.331 24.171 268.441 24.1563 268.568 24.1611L270.237 26.0285V24.6408C270.236 24.3412 270.034 24.3041 269.924 24.3023H269.823V24.1562H269.84C270.019 24.1562 270.194 24.171 270.372 24.171C270.527 24.171 270.682 24.1562 270.839 24.1562H270.855V24.3023H270.782C270.625 24.3061 270.464 24.3201 270.46 24.7651V26.4817C270.46 26.6138 270.464 26.7446 270.483 26.8603L270.485 26.8788H270.466ZM270.323 26.8455H270.447C270.43 26.7327 270.427 26.6067 270.427 26.4812V24.7646C270.427 24.3117 270.619 24.2697 270.782 24.2687H270.822V24.1885C270.673 24.1896 270.522 24.2033 270.372 24.2033C270.197 24.2033 270.028 24.1896 269.856 24.1885V24.2687H269.924C270.041 24.2697 270.27 24.3206 270.27 24.6403L270.265 26.0666L270.258 26.0739L270.246 26.0863L268.557 24.1885C268.444 24.1885 268.334 24.2033 268.219 24.2033C268.078 24.2033 267.936 24.1896 267.798 24.1885V24.2687H267.832C268.01 24.2697 268.193 24.4036 268.193 24.6245V26.2131C268.193 26.5159 268.107 26.7087 267.835 26.7097L267.798 26.7094V26.7895C267.962 26.7884 268.131 26.7745 268.298 26.7745C268.457 26.7745 268.615 26.7884 268.772 26.7895V26.7097H268.724C268.425 26.7094 268.351 26.5797 268.35 26.2511V24.6548L270.323 26.8455ZM270.246 26.0626L270.259 26.0518L270.246 26.0626ZM270.237 26.0556V26.0546L270.234 26.0518L270.237 26.0556Z" fill="white"/>
<path fill-rule="evenodd" clip-rule="evenodd" d="M271.45 26.2669C271.412 26.3947 271.366 26.4938 271.366 26.5608C271.366 26.6743 271.526 26.693 271.651 26.693H271.693V26.8063C271.541 26.7981 271.386 26.7917 271.233 26.7917C271.096 26.7917 270.96 26.7981 270.823 26.8063V26.693H270.846C270.994 26.693 271.12 26.606 271.176 26.4475L271.784 24.7164C271.833 24.5764 271.902 24.3879 271.925 24.2479C272.046 24.2067 272.198 24.1317 272.27 24.0858C272.282 24.082 272.289 24.0781 272.3 24.0781C272.312 24.0781 272.319 24.0781 272.327 24.09C272.338 24.1198 272.35 24.1538 272.361 24.1839L273.06 26.1575C273.106 26.2891 273.151 26.4287 273.2 26.5425C273.246 26.6483 273.326 26.693 273.451 26.693H273.474V26.8063C273.303 26.7981 273.132 26.7917 272.95 26.7917C272.764 26.7917 272.574 26.7981 272.38 26.8063V26.693H272.422C272.509 26.693 272.658 26.678 272.658 26.5836C272.658 26.5349 272.624 26.433 272.581 26.3117L272.433 25.8743H271.571L271.45 26.2669ZM272.005 24.5957H271.997L271.644 25.6635H272.353L272.005 24.5957Z" fill="white"/>
<path fill-rule="evenodd" clip-rule="evenodd" d="M273.473 26.823C273.302 26.8157 273.131 26.8073 272.95 26.8073C272.764 26.8073 272.575 26.8157 272.381 26.823L272.363 26.8238V26.6765H272.422C272.51 26.6765 272.64 26.6569 272.641 26.5842C272.641 26.5412 272.607 26.4378 272.566 26.3179L272.421 25.891H271.583L271.465 26.2723C271.427 26.4005 271.381 26.5002 271.382 26.5616C271.383 26.6538 271.525 26.6765 271.651 26.6765H271.709V26.8238L271.692 26.823C271.54 26.8157 271.385 26.8073 271.233 26.8073C271.098 26.8073 270.96 26.8157 270.824 26.823L270.807 26.8238V26.6765H270.846C270.987 26.6762 271.105 26.5961 271.16 26.4428L271.768 24.7111C271.817 24.5714 271.886 24.3838 271.919 24.2329C272.038 24.1928 272.191 24.1167 272.264 24.0711C272.274 24.0674 272.285 24.0626 272.3 24.0626C272.309 24.062 272.33 24.0644 272.342 24.0841C272.353 24.1151 272.365 24.149 272.376 24.1794L273.076 26.1526C273.12 26.2847 273.166 26.4241 273.215 26.5359C273.259 26.6365 273.329 26.6762 273.451 26.6765H273.49V26.8238L273.473 26.823ZM272.397 26.7899C272.584 26.7833 272.769 26.776 272.95 26.776C273.126 26.776 273.292 26.7833 273.457 26.7899V26.7109H273.451C273.321 26.7117 273.231 26.6609 273.185 26.5496C273.135 26.4357 273.089 26.2956 273.044 26.1635L272.345 24.1901C272.334 24.16 272.323 24.1263 272.313 24.0994C272.309 24.0957 272.31 24.0957 272.307 24.0957H272.3C272.292 24.0957 272.288 24.098 272.278 24.1004C272.205 24.1475 272.053 24.2219 271.94 24.2514C271.917 24.3943 271.848 24.5828 271.799 24.7226L271.191 26.454C271.134 26.6179 271 26.7112 270.846 26.7109H270.84V26.7899C270.97 26.7833 271.101 26.776 271.233 26.776C271.38 26.776 271.53 26.7833 271.675 26.7899V26.7109H271.651C271.527 26.7092 271.354 26.6957 271.35 26.5621C271.35 26.4872 271.396 26.3907 271.434 26.2632L271.45 26.2679L271.434 26.2627L271.559 25.8596H272.444L272.596 26.3076C272.639 26.429 272.673 26.5295 272.673 26.5846C272.668 26.7002 272.508 26.7087 272.422 26.7109H272.397V26.7899ZM271.62 25.6801L271.984 24.5793H272.004V24.596L272 24.5971L272.004 24.596V24.5793H272.016L272.377 25.6801H271.62ZM271.666 25.6467H272.331L272 24.6357L271.666 25.6467ZM271.988 24.6004L271.996 24.5977L271.988 24.6004Z" fill="white"/>
<path fill-rule="evenodd" clip-rule="evenodd" d="M273.641 24.3613C273.356 24.3613 273.345 24.4295 273.287 24.7046H273.173C273.188 24.5989 273.208 24.4934 273.219 24.384C273.234 24.2779 273.242 24.1726 273.242 24.0635H273.333C273.363 24.1768 273.458 24.1726 273.561 24.1726H275.521C275.623 24.1726 275.717 24.1689 275.725 24.0557L275.816 24.0711C275.802 24.1726 275.787 24.2746 275.775 24.3767C275.766 24.4785 275.766 24.5801 275.766 24.6819L275.653 24.7239C275.646 24.5845 275.627 24.3613 275.372 24.3613H274.749V26.3685C274.749 26.6596 274.882 26.6928 275.064 26.6928H275.137V26.8062C274.989 26.8062 274.723 26.7917 274.518 26.7917C274.29 26.7917 274.024 26.8062 273.876 26.8062V26.6928H273.948C274.157 26.6928 274.263 26.6743 274.263 26.3764V24.3613H273.641Z" fill="white"/>
<path fill-rule="evenodd" clip-rule="evenodd" d="M275.137 26.8229C274.988 26.8229 274.722 26.8079 274.518 26.8079C274.291 26.8079 274.025 26.8229 273.876 26.8229H273.859V26.6771H273.948C274.158 26.6723 274.242 26.6696 274.247 26.3769L274.246 24.378H273.641V24.345H274.28V26.3769C274.28 26.6798 274.157 26.7097 273.948 26.7104H273.892V26.7907C274.042 26.7894 274.298 26.7755 274.518 26.7755C274.716 26.7755 274.97 26.7894 275.12 26.7907V26.7104H275.064C274.881 26.7097 274.733 26.666 274.733 26.3691V24.345H275.372C275.627 24.346 275.66 24.5611 275.668 24.7015L275.75 24.6713C275.75 24.5728 275.751 24.4741 275.759 24.3754C275.769 24.2782 275.783 24.1816 275.797 24.0854L275.74 24.0754C275.722 24.1852 275.615 24.1913 275.521 24.1896H273.542C273.452 24.1906 273.355 24.1855 273.321 24.08H273.259C273.258 24.1843 273.25 24.2857 273.235 24.3863C273.225 24.4904 273.207 24.5902 273.192 24.6895H273.274C273.324 24.4263 273.357 24.3409 273.641 24.345V24.378C273.359 24.3829 273.366 24.4303 273.304 24.709L273.301 24.7219H273.154L273.157 24.7032C273.173 24.5971 273.191 24.4911 273.202 24.3824C273.218 24.2769 273.225 24.1722 273.225 24.0641V24.0474H273.345L273.349 24.0592C273.375 24.1544 273.444 24.1551 273.542 24.1568H275.521C275.626 24.1551 275.702 24.1536 275.709 24.0552L275.71 24.0371L275.727 24.0405L275.835 24.0574L275.832 24.0741C275.817 24.1754 275.802 24.2769 275.791 24.378C275.783 24.4791 275.783 24.5807 275.783 24.6825V24.6939L275.772 24.6983L275.638 24.7472L275.637 24.7253C275.627 24.5834 275.612 24.378 275.372 24.378H274.766V26.3691C274.77 26.6536 274.883 26.6736 275.064 26.6771H275.153V26.8229H275.137Z" fill="white"/>
<path fill-rule="evenodd" clip-rule="evenodd" d="M275.956 26.6931H276.009C276.146 26.6931 276.29 26.6745 276.29 26.4781V24.5016C276.29 24.305 276.146 24.2862 276.009 24.2862H275.956V24.1729C276.104 24.1729 276.332 24.1878 276.517 24.1878C276.708 24.1878 276.936 24.1729 277.115 24.1729V24.2862H277.061C276.924 24.2862 276.78 24.305 276.78 24.5016V26.4781C276.78 26.6745 276.924 26.6931 277.061 26.6931H277.115V26.8064C276.932 26.8064 276.704 26.7919 276.514 26.7919C276.328 26.7919 276.104 26.8064 275.956 26.8064V26.6931Z" fill="white"/>
<path fill-rule="evenodd" clip-rule="evenodd" d="M277.115 26.8224C276.931 26.8224 276.704 26.8067 276.515 26.8067C276.329 26.8067 276.105 26.8224 275.956 26.8224H275.94V26.6766H276.01C276.146 26.6743 276.273 26.6623 276.273 26.4779V24.5014C276.273 24.3171 276.146 24.3048 276.01 24.3023H275.94V24.1562H275.956C276.105 24.1562 276.333 24.171 276.518 24.171C276.707 24.171 276.935 24.1562 277.115 24.1562H277.13V24.3023H277.061C276.923 24.3048 276.798 24.3171 276.796 24.5014V26.4779C276.798 26.6623 276.923 26.6743 277.061 26.6766H277.13V26.8224H277.115ZM277.097 26.7894V26.7094H277.061C276.925 26.7094 276.764 26.6857 276.764 26.4775V24.5009C276.764 24.2923 276.925 24.269 277.061 24.2687H277.097V24.1885C276.922 24.1896 276.702 24.2033 276.518 24.2033C276.337 24.2033 276.12 24.1896 275.973 24.1885V24.2687H276.01C276.144 24.269 276.306 24.2923 276.307 24.5009V26.4775C276.306 26.6857 276.144 26.7094 276.01 26.7094H275.973V26.7894C276.119 26.7877 276.334 26.7745 276.515 26.7745C276.699 26.7745 276.918 26.7884 277.097 26.7894Z" fill="white"/>
<path fill-rule="evenodd" clip-rule="evenodd" d="M278.629 24.1162C279.438 24.1162 280.083 24.6148 280.083 25.4184C280.083 26.2862 279.457 26.8631 278.648 26.8631C277.843 26.8631 277.228 26.3197 277.228 25.5083C277.228 24.724 277.839 24.1162 278.629 24.1162ZM278.686 26.697C279.423 26.697 279.551 26.0513 279.551 25.5012C279.551 24.9498 279.252 24.2823 278.621 24.2823C277.957 24.2823 277.76 24.871 277.76 25.3761C277.76 26.0513 278.071 26.697 278.686 26.697Z" fill="white"/>
<path fill-rule="evenodd" clip-rule="evenodd" d="M277.211 25.5082C277.213 24.7147 277.831 24.1009 278.629 24.0996V24.1326C277.848 24.1326 277.244 24.7321 277.244 25.5082C277.245 26.3103 277.851 26.8456 278.649 26.8459C279.449 26.8456 280.067 26.2771 280.068 25.4176C280.067 24.624 279.432 24.1333 278.629 24.1326V24.0996C279.444 24.1005 280.099 24.6039 280.1 25.4176C280.099 26.2945 279.465 26.8773 278.649 26.8787C277.837 26.8773 277.213 26.3285 277.211 25.5082ZM277.743 25.3763C277.744 24.8686 277.944 24.2656 278.622 24.2656C279.267 24.2671 279.567 24.947 279.569 25.5014C279.567 26.0515 279.437 26.7126 278.687 26.7126V26.6806C279.409 26.68 279.534 26.0515 279.535 25.5014C279.535 24.9548 279.239 24.2999 278.622 24.2989C277.97 24.2996 277.778 24.8737 277.776 25.3763C277.776 26.0483 278.085 26.6796 278.687 26.6806V26.7126C278.056 26.712 277.744 26.0555 277.743 25.3763Z" fill="white"/>
<path fill-rule="evenodd" clip-rule="evenodd" d="M282.642 26.0628L282.65 26.0554V24.641C282.65 24.3314 282.433 24.2861 282.319 24.2861H282.236V24.1729C282.414 24.1729 282.589 24.1878 282.767 24.1878C282.923 24.1878 283.079 24.1729 283.235 24.1729V24.2861H283.178C283.019 24.2861 282.84 24.3162 282.84 24.7652V26.4818C282.84 26.6141 282.844 26.746 282.863 26.8631H282.718L280.762 24.6971V26.2519C280.762 26.5804 280.827 26.6931 281.119 26.6931H281.184V26.8064C281.021 26.8064 280.858 26.7917 280.694 26.7917C280.523 26.7917 280.349 26.8064 280.178 26.8064V26.6931H280.231C280.494 26.6931 280.573 26.5157 280.573 26.2148V24.6251C280.573 24.4141 280.399 24.2861 280.227 24.2861H280.178V24.1729C280.322 24.1729 280.47 24.1878 280.615 24.1878C280.728 24.1878 280.838 24.1729 280.952 24.1729L282.642 26.0628Z" fill="white"/>
<path fill-rule="evenodd" clip-rule="evenodd" d="M282.863 26.8788L282.706 26.8735L280.779 24.7398V26.2517C280.784 26.5802 280.834 26.6726 281.119 26.6759H281.201V26.8224H281.185C281.02 26.8224 280.857 26.8073 280.695 26.8073C280.525 26.8073 280.35 26.8224 280.178 26.8224H280.162V26.6759H280.231C280.481 26.6752 280.554 26.5149 280.557 26.2145V24.625C280.557 24.4239 280.391 24.3023 280.227 24.3023H280.162V24.1562H280.178C280.323 24.1562 280.471 24.171 280.615 24.171C280.727 24.171 280.837 24.1563 280.965 24.1621L282.634 26.0285V24.6408C282.632 24.3412 282.43 24.3048 282.319 24.3023H282.219V24.1562H282.237C282.415 24.1562 282.59 24.171 282.767 24.171C282.923 24.171 283.078 24.1562 283.235 24.1562H283.251V24.3023H283.178C283.022 24.3063 282.86 24.3206 282.857 24.7651V26.4817C282.857 26.6138 282.86 26.7454 282.878 26.8603L282.882 26.8788H282.863ZM282.719 26.8455H282.843C282.827 26.732 282.823 26.6067 282.823 26.4812V24.7646C282.823 24.311 283.015 24.2697 283.178 24.2687H283.219V24.1885C283.068 24.1896 282.919 24.2033 282.767 24.2033C282.594 24.2033 282.425 24.1896 282.253 24.1885V24.2687H282.319C282.437 24.2697 282.666 24.3213 282.666 24.6403L282.662 26.0666L282.655 26.0739L282.643 26.0863L280.953 24.1885C280.84 24.1885 280.73 24.2033 280.615 24.2033C280.475 24.2033 280.332 24.1896 280.194 24.1885V24.2687H280.227C280.406 24.2697 280.589 24.4036 280.589 24.6245V26.214C280.589 26.5159 280.505 26.7087 280.231 26.7097L280.194 26.7094V26.7895C280.359 26.7884 280.528 26.7745 280.695 26.7745C280.853 26.7745 281.011 26.7884 281.168 26.7895V26.7097H281.119C280.821 26.7094 280.746 26.5797 280.746 26.2513V24.6542L282.719 26.8455ZM282.643 26.0626L282.655 26.0518L282.643 26.0626ZM282.634 26.0556V26.0546L282.631 26.0518L282.634 26.0556Z" fill="white"/>
<path fill-rule="evenodd" clip-rule="evenodd" d="M283.845 26.2669C283.808 26.3947 283.762 26.4938 283.762 26.5608C283.762 26.6743 283.922 26.693 284.047 26.693H284.089V26.8063C283.937 26.7981 283.781 26.7917 283.629 26.7917C283.492 26.7917 283.356 26.7981 283.22 26.8063V26.693H283.241C283.39 26.693 283.516 26.606 283.571 26.4475L284.18 24.7164C284.229 24.5764 284.298 24.3879 284.32 24.2479C284.442 24.2067 284.593 24.1317 284.667 24.0858C284.677 24.082 284.685 24.0781 284.697 24.0781C284.708 24.0781 284.715 24.0781 284.723 24.09C284.734 24.1198 284.745 24.1538 284.757 24.1839L285.456 26.1575C285.501 26.2891 285.547 26.4287 285.596 26.5425C285.642 26.6483 285.722 26.693 285.847 26.693H285.87V26.8063C285.699 26.7981 285.528 26.7917 285.346 26.7917C285.16 26.7917 284.97 26.7981 284.776 26.8063V26.693H284.818C284.905 26.693 285.054 26.678 285.054 26.5836C285.054 26.5349 285.02 26.433 284.977 26.3117L284.829 25.8743H283.967L283.845 26.2669ZM284.401 24.5957H284.393L284.039 25.6635H284.75L284.401 24.5957Z" fill="white"/>
<path fill-rule="evenodd" clip-rule="evenodd" d="M285.868 26.8228C285.697 26.8161 285.527 26.8076 285.346 26.8076C285.16 26.8076 284.97 26.8161 284.777 26.8228L284.76 26.8236V26.677H284.818C284.906 26.677 285.037 26.6567 285.037 26.584C285.038 26.541 285.003 26.438 284.961 26.3176L284.817 25.8908H283.978L283.861 26.2721C283.823 26.4013 283.778 26.5 283.778 26.5611C283.778 26.6535 283.921 26.677 284.046 26.677H284.104V26.8236L284.087 26.8228C283.936 26.8161 283.78 26.8076 283.629 26.8076C283.493 26.8076 283.357 26.8161 283.22 26.8228L283.203 26.8236V26.677H283.241C283.383 26.6762 283.501 26.5957 283.557 26.4426L284.164 24.7109C284.213 24.5712 284.281 24.3835 284.315 24.2333C284.434 24.1922 284.587 24.1165 284.66 24.0709C284.67 24.0672 284.681 24.0626 284.696 24.0626C284.706 24.0618 284.726 24.0642 284.738 24.0848C284.749 24.1145 284.76 24.1488 284.773 24.1792L285.471 26.1524C285.517 26.2845 285.562 26.4239 285.611 26.5364C285.656 26.6363 285.725 26.676 285.846 26.677H285.885V26.8236L285.868 26.8228ZM284.792 26.7892C284.98 26.7823 285.164 26.775 285.346 26.775C285.522 26.775 285.687 26.7823 285.853 26.7889L285.853 26.7099H285.846C285.718 26.7102 285.628 26.6599 285.581 26.5487C285.531 26.4347 285.485 26.2946 285.44 26.1629L284.741 24.1891C284.73 24.159 284.718 24.1253 284.709 24.0992C284.706 24.0947 284.706 24.0947 284.704 24.0947H284.696C284.688 24.0947 284.684 24.0973 284.675 24.0999C284.601 24.146 284.449 24.2217 284.337 24.2504C284.313 24.3933 284.244 24.5816 284.195 24.7217L283.587 26.453C283.529 26.6169 283.397 26.7102 283.241 26.7099H283.236V26.7889C283.366 26.7823 283.497 26.775 283.629 26.775C283.776 26.775 283.926 26.7823 284.072 26.7889V26.7099H284.046C283.923 26.7082 283.75 26.6952 283.745 26.5608C283.746 26.4863 283.793 26.39 283.83 26.2622L283.845 26.2669L283.83 26.2618L283.955 25.8586H284.84L284.992 26.3066C285.034 26.428 285.069 26.5285 285.069 26.5837C285.063 26.6992 284.904 26.7078 284.818 26.7099H284.792V26.7892ZM284.016 25.6797L284.381 24.5791H284.4V24.5958L284.396 24.5969L284.4 24.5958V24.5791H284.412L284.771 25.6797H284.016ZM284.062 25.6471H284.726L284.396 24.6367L284.062 25.6471ZM284.385 24.6004L284.392 24.5977L284.385 24.6004Z" fill="white"/>
<path fill-rule="evenodd" clip-rule="evenodd" d="M286.826 26.4364C286.826 26.5881 286.932 26.6328 287.054 26.6485C287.209 26.6598 287.38 26.6598 287.555 26.6405C287.715 26.6215 287.851 26.5315 287.919 26.4364C287.98 26.3536 288.014 26.2479 288.037 26.1651H288.147C288.105 26.3802 288.052 26.5917 288.007 26.8064C287.673 26.8064 287.338 26.7919 287.004 26.7919C286.67 26.7919 286.336 26.8064 286.002 26.8064V26.6931H286.055C286.192 26.6931 286.34 26.6745 286.34 26.4406V24.5016C286.34 24.305 286.192 24.2861 286.055 24.2861H286.002V24.1729C286.203 24.1729 286.401 24.1878 286.602 24.1878C286.796 24.1878 286.985 24.1729 287.179 24.1729V24.2861H287.084C286.94 24.2861 286.826 24.2901 286.826 24.49V26.4364Z" fill="white"/>
<path fill-rule="evenodd" clip-rule="evenodd" d="M288.007 26.8224C287.672 26.8224 287.337 26.8073 287.004 26.8073C286.67 26.8073 286.336 26.8224 286.001 26.8224H285.985V26.6766H286.055C286.192 26.6733 286.322 26.6637 286.324 26.4404V24.5007C286.322 24.3171 286.192 24.3048 286.055 24.3023H285.985V24.1562H286.001C286.204 24.1562 286.401 24.171 286.601 24.171C286.795 24.171 286.984 24.1562 287.179 24.1562H287.195V24.3023H287.084C286.937 24.3061 286.845 24.2995 286.842 24.4899V26.4362C286.843 26.5773 286.936 26.615 287.055 26.6319C287.121 26.6365 287.192 26.6389 287.265 26.6389C287.358 26.6389 287.454 26.6346 287.553 26.6243C287.707 26.606 287.84 26.5172 287.906 26.4272C287.965 26.3466 287.998 26.2432 288.021 26.161L288.024 26.1486H288.167L288.164 26.1685C288.121 26.3841 288.068 26.5946 288.022 26.8097L288.019 26.8224H288.007ZM287.993 26.7894C288.037 26.5844 288.087 26.3841 288.128 26.1806H288.049C288.026 26.2627 287.992 26.3639 287.933 26.446C287.862 26.5437 287.721 26.636 287.556 26.6563C287.457 26.6663 287.358 26.6714 287.265 26.6714C287.192 26.6714 287.121 26.6681 287.051 26.6633C286.928 26.6498 286.809 26.5971 286.809 26.4358V24.4894C286.809 24.2796 286.942 24.2687 287.084 24.2687H287.162V24.1885C286.975 24.1896 286.79 24.2038 286.601 24.2038C286.405 24.2038 286.213 24.1896 286.018 24.1885V24.2687H286.055C286.19 24.2687 286.356 24.2923 286.356 24.5002V26.4399C286.356 26.6841 286.191 26.7094 286.055 26.7094H286.018V26.7894C286.346 26.7887 286.675 26.7745 287.004 26.7745C287.335 26.7745 287.664 26.7887 287.993 26.7894Z" fill="white"/>
<path fill-rule="evenodd" clip-rule="evenodd" d="M288.101 24.0664C288.33 24.0664 288.501 24.2412 288.501 24.4646C288.501 24.6878 288.33 24.8607 288.101 24.8607C287.872 24.8607 287.701 24.6878 287.701 24.4646C287.701 24.2412 287.872 24.0664 288.101 24.0664ZM288.101 24.7869C288.28 24.7869 288.417 24.6354 288.417 24.4646C288.417 24.2935 288.282 24.1408 288.101 24.1408C287.921 24.1408 287.784 24.2935 287.784 24.4646C287.784 24.6354 287.921 24.7869 288.101 24.7869ZM287.902 24.6741V24.6548C287.951 24.6478 287.96 24.6491 287.96 24.6194V24.3249C287.96 24.2835 287.956 24.2692 287.904 24.2715V24.2512H288.108C288.179 24.2512 288.243 24.2846 288.243 24.3569C288.243 24.4159 288.204 24.4597 288.149 24.4767L288.215 24.5678C288.245 24.609 288.28 24.6478 288.303 24.6615V24.6741H288.225C288.188 24.6741 288.154 24.5961 288.081 24.4914H288.037V24.6231C288.037 24.6491 288.046 24.6478 288.095 24.6548V24.6741H287.902ZM288.037 24.4643H288.084C288.136 24.4643 288.159 24.4256 288.159 24.3629C288.159 24.2998 288.123 24.2773 288.081 24.2773H288.037V24.4643Z" fill="white"/>
<path fill-rule="evenodd" clip-rule="evenodd" d="M264.384 10.8537C264.384 7.32468 267.263 4.46387 270.815 4.46387C274.367 4.46387 277.246 7.32468 277.246 10.8537C277.246 14.3827 274.367 17.2437 270.815 17.2437C267.263 17.2437 264.384 14.3827 264.384 10.8537Z" fill="#0069AA"/>
<path fill-rule="evenodd" clip-rule="evenodd" d="M274.704 10.7281C274.702 9.0918 273.672 7.69624 272.222 7.14355V14.3124C273.672 13.759 274.702 12.3648 274.704 10.7281ZM269.454 14.3103V7.14355C268.005 7.69795 266.977 9.09151 266.973 10.7274C266.977 12.3629 268.005 13.7563 269.454 14.3103ZM270.839 4.66895C267.471 4.67023 264.742 7.38195 264.742 10.7283C264.742 14.0743 267.471 16.7855 270.839 16.7861C274.207 16.7855 276.936 14.0743 276.937 10.7283C276.936 7.38195 274.207 4.67023 270.839 4.66895ZM270.824 17.3575C267.138 17.3749 264.105 14.4083 264.105 10.797C264.105 6.85023 267.138 4.12038 270.824 4.12109H272.551C276.193 4.12038 279.517 6.84895 279.517 10.797C279.517 14.407 276.193 17.3575 272.551 17.3575H270.824Z" fill="white"/>
<rect x="184" width="52" height="31" rx="4" fill="black"/>
<mask id="mask0_8089_2502" style="mask-type:luminance" maskUnits="userSpaceOnUse" x="195" y="10" width="13" height="10">
<path fill-rule="evenodd" clip-rule="evenodd" d="M195.96 19.7773V10.666H207.365V19.7773H195.96Z" fill="white"/>
</mask>
<g mask="url(#mask0_8089_2502)">
<path fill-rule="evenodd" clip-rule="evenodd" d="M204.225 14.3116L198.448 16.8352C198.439 16.7343 198.434 16.6322 198.434 16.5289C198.434 14.6765 199.916 13.1748 201.743 13.1748C202.731 13.1748 203.619 13.6146 204.225 14.3116ZM201.743 10.666C204.469 10.666 206.754 12.5781 207.365 15.1515L205.034 16.1846L205.033 16.1797L202.649 17.2418L196.929 19.7773C196.317 18.8473 195.96 17.7302 195.96 16.5285C195.96 13.2907 198.549 10.666 201.743 10.666Z" fill="white"/>
</g>
<path fill-rule="evenodd" clip-rule="evenodd" d="M205.32 20.202C203.38 22.2772 200.815 22.4809 198.56 20.9379L199.834 18.7547C201.117 19.6191 202.406 19.4788 203.7 18.333L205.32 20.202Z" fill="white"/>
<path fill-rule="evenodd" clip-rule="evenodd" d="M207.933 19.1379L207.92 8H209.796V18.8372C209.796 18.9411 209.807 19.0327 209.928 19.0857L211.56 19.7996L210.825 21.95L208.913 21.0402C208.189 20.6951 207.934 20.1952 207.933 19.1379Z" fill="white"/>
<path fill-rule="evenodd" clip-rule="evenodd" d="M215.72 18.7365C214.975 18.1367 214.496 17.2005 214.496 16.1477C214.496 15.2117 214.875 14.3679 215.482 13.7706L214.199 11.6162C212.909 12.6749 212.08 14.3106 212.08 16.1477C212.08 18.1278 213.042 19.8747 214.508 20.9162L215.72 18.7365Z" fill="#009DD7"/>
<path fill-rule="evenodd" clip-rule="evenodd" d="M216.856 13.2924C217.226 13.1671 217.625 13.0984 218.041 13.0984C219.54 13.0984 220.819 13.986 221.319 15.233L224.04 15.019C223.383 12.4735 220.947 10.583 218.041 10.583C217.22 10.583 216.436 10.7352 215.72 11.0091L216.856 13.2924Z" fill="#FFC100"/>
<path fill-rule="evenodd" clip-rule="evenodd" d="M221.465 16.7832C221.379 18.3796 219.902 19.6506 218.092 19.6506C217.808 19.6506 217.533 19.6189 217.269 19.5601L216.24 21.6866C216.823 21.8566 217.445 21.9499 218.092 21.9499C221.298 21.9499 223.911 19.6882 224.04 16.8555L221.465 16.7832Z" fill="#E33206"/>
<rect x="308" width="52" height="31" rx="4" fill="#B3131B"/>
<rect x="314.76" y="10.8506" width="39" height="10.85" fill="white"/>
<path fill-rule="evenodd" clip-rule="evenodd" d="M330.452 25.8267L311.12 25.8336V25.7871C311.12 25.7615 311.151 25.5955 311.189 25.4183C311.226 25.241 311.285 24.9591 311.319 24.7918C311.353 24.6245 311.411 24.3401 311.448 24.1599L311.584 23.493C311.622 23.3064 311.682 23.0115 311.717 22.8377C311.752 22.664 311.81 22.3796 311.846 22.2059C311.882 22.0321 311.944 21.732 311.983 21.5389C312.023 21.3458 312.082 21.051 312.116 20.8836C312.15 20.7163 312.204 20.4583 312.235 20.3103C312.267 20.1623 312.308 19.9622 312.325 19.8656C312.343 19.7691 312.4 19.4848 312.453 19.2338C312.505 18.9828 312.563 18.6985 312.581 18.6019C312.6 18.5054 312.658 18.2211 312.71 17.9701C312.763 17.7191 312.821 17.4347 312.839 17.3382C312.857 17.2417 312.915 16.9573 312.969 16.7064C313.022 16.4554 313.079 16.1763 313.096 16.0862C313.113 15.9961 313.159 15.7644 313.199 15.5713C313.239 15.3783 313.314 15.015 313.366 14.764C313.419 14.513 313.508 14.0759 313.565 13.7928C313.622 13.5096 313.69 13.1726 313.716 13.0439C313.742 12.9152 313.79 12.6835 313.822 12.5291C313.853 12.3746 313.911 12.0955 313.95 11.9089C313.988 11.7223 314.051 11.4169 314.09 11.2302C314.128 11.0436 314.187 10.754 314.221 10.5867C314.254 10.4194 314.312 10.1403 314.349 9.96653C314.386 9.79277 314.449 9.48737 314.489 9.28786C314.53 9.08836 314.598 8.78296 314.64 8.6092C314.682 8.43544 314.742 8.22482 314.773 8.14116C314.804 8.05749 314.889 7.87613 314.962 7.73813L315.096 7.48722L315.217 7.3286C315.283 7.24135 315.402 7.10348 315.481 7.02223C315.56 6.94097 315.693 6.8187 315.776 6.75052C315.86 6.68233 315.981 6.59031 316.045 6.54603C316.11 6.50175 316.236 6.42422 316.326 6.37375C316.416 6.32328 316.542 6.25718 316.607 6.22687C316.671 6.19656 316.803 6.14125 316.899 6.10395C316.996 6.06665 317.18 6.00413 317.309 5.96501C317.437 5.9259 317.679 5.86694 317.846 5.83399C318.012 5.80105 318.275 5.75704 318.43 5.73621L318.713 5.69833L338.056 5.69096L357.4 5.68359V5.7301C357.4 5.75568 357.369 5.92162 357.331 6.09885C357.293 6.27609 357.23 6.57906 357.19 6.77213C357.151 6.9652 357.093 7.24427 357.062 7.39229C357.031 7.54031 356.972 7.82464 356.932 8.02415C356.891 8.22365 356.828 8.52905 356.792 8.70281C356.757 8.87657 356.699 9.16091 356.663 9.33467C356.628 9.50843 356.57 9.79277 356.534 9.96653C356.497 10.1403 356.441 10.4141 356.409 10.575C356.376 10.7359 356.317 11.0255 356.278 11.2185C356.239 11.4116 356.175 11.717 356.138 11.8972C356.1 12.0774 356.042 12.3565 356.009 12.5174L355.878 13.1609C355.839 13.354 355.776 13.6594 355.738 13.8396C355.7 14.0198 355.644 14.2936 355.613 14.448C355.581 14.6025 355.523 14.8921 355.482 15.0916C355.442 15.2911 355.383 15.5807 355.351 15.7352C355.32 15.8896 355.263 16.1634 355.226 16.3436C355.188 16.5238 355.124 16.8345 355.083 17.034C355.043 17.2335 354.984 17.5178 354.954 17.6658C354.923 17.8139 354.866 18.0929 354.827 18.286C354.787 18.4791 354.725 18.7845 354.687 18.9647C354.65 19.1449 354.592 19.4292 354.558 19.5965C354.524 19.7638 354.464 20.0535 354.426 20.2401L354.287 20.9187L354.16 21.5389C354.128 21.6934 354.07 21.9777 354.031 22.1708C353.992 22.3638 353.928 22.6681 353.889 22.8469L353.819 23.1719L353.735 23.3968C353.688 23.5205 353.619 23.6849 353.58 23.7621C353.542 23.8393 353.463 23.9756 353.405 24.0649C353.348 24.1542 353.268 24.2686 353.227 24.3192C353.187 24.3697 353.065 24.5003 352.956 24.6092L352.759 24.8073L352.569 24.9423C352.465 25.0165 352.352 25.092 352.319 25.1101C352.286 25.1281 352.16 25.1923 352.039 25.2528C351.919 25.3133 351.748 25.3902 351.66 25.4238C351.573 25.4574 351.399 25.5146 351.274 25.5509C351.15 25.5872 351.016 25.623 350.978 25.6304C350.939 25.6377 350.805 25.6655 350.68 25.692C350.555 25.7185 350.302 25.7581 350.118 25.78L349.784 25.8198L330.452 25.8267ZM323.574 20.8251H324.077L324.091 20.7881C324.099 20.7678 324.106 20.7199 324.106 20.6817C324.106 20.6436 324.122 20.5049 324.143 20.3736C324.163 20.2422 324.21 19.9399 324.248 19.7018C324.286 19.4637 324.343 19.1057 324.374 18.9062C324.406 18.7066 324.444 18.4513 324.459 18.3386C324.475 18.226 324.494 18.1339 324.501 18.1339C324.509 18.1339 324.542 18.1836 324.574 18.2445L324.632 18.3551L324.762 18.4858L324.892 18.6165L325.051 18.6804L325.211 18.7443L325.401 18.769L325.591 18.7937L325.833 18.7789L326.074 18.764L326.336 18.6963L326.597 18.6287L326.738 18.5646C326.815 18.5293 326.952 18.4525 327.042 18.3938L327.206 18.2871L327.359 18.1344C327.443 18.0505 327.561 17.9158 327.622 17.8352C327.683 17.7547 327.732 17.6828 327.732 17.6756C327.732 17.6684 327.762 17.6185 327.799 17.5647C327.835 17.5109 327.91 17.3616 327.965 17.2329C328.019 17.1042 328.105 16.8725 328.155 16.718L328.246 16.4372L328.292 16.194C328.318 16.0602 328.351 15.839 328.366 15.7025L328.393 15.4543L328.378 15.2437L328.362 15.0331L328.313 14.8225L328.264 14.6119L328.185 14.4542L328.106 14.2965L327.954 14.1346L327.801 13.9727L327.62 13.8794L327.44 13.786L327.241 13.7384L327.042 13.6908L326.843 13.6762L326.644 13.6616L326.423 13.687L326.201 13.7125L326.02 13.7587L325.84 13.8048L325.682 13.8776C325.596 13.9176 325.47 13.9855 325.403 14.0285C325.336 14.0716 325.266 14.1211 325.249 14.1385C325.231 14.156 325.189 14.1884 325.156 14.2105L325.094 14.2507L325.137 14.0451C325.161 13.9321 325.181 13.8264 325.181 13.8103L325.182 13.7811H324.753H324.324L324.249 14.255C324.207 14.5156 324.142 14.9184 324.104 15.1501C324.065 15.3818 324.007 15.7293 323.975 15.9224C323.942 16.1154 323.885 16.4577 323.846 16.6829C323.808 16.9082 323.745 17.2662 323.706 17.4786L323.579 18.169L323.45 18.871C323.409 19.0899 323.345 19.4374 323.306 19.6433C323.267 19.8493 323.205 20.1757 323.166 20.3688C323.128 20.5619 323.091 20.7435 323.084 20.7725L323.071 20.8251H323.574ZM325.545 18.1312L325.74 18.1194L325.935 18.1077L326.134 18.0401L326.332 17.9726L326.418 17.9086C326.465 17.8733 326.541 17.8129 326.586 17.7742C326.631 17.7355 326.706 17.6496 326.754 17.5833C326.802 17.5169 326.884 17.3794 326.938 17.2776L327.036 17.0925L327.115 16.8639C327.159 16.7381 327.222 16.517 327.255 16.3724L327.315 16.1096L327.327 15.665L327.339 15.2203L327.3 15.0699C327.278 14.9871 327.236 14.8708 327.206 14.8114L327.151 14.7033L327.05 14.6013L326.948 14.4993L326.827 14.4435L326.706 14.3878L326.535 14.3512L326.363 14.3147L326.153 14.3271L325.942 14.3394L325.779 14.3901L325.615 14.4408L325.489 14.5121C325.42 14.5513 325.303 14.6335 325.23 14.6949L325.095 14.8066L325.034 15.1305C325 15.3086 324.94 15.6386 324.901 15.8639C324.861 16.0891 324.802 16.4156 324.769 16.5894L324.708 16.9053L324.696 17.107L324.684 17.3087L324.714 17.4346C324.731 17.5039 324.768 17.6132 324.796 17.6776L324.849 17.7946L324.939 17.8811L325.03 17.9676L325.159 18.0269L325.289 18.0861L325.417 18.1086L325.545 18.1312ZM330.598 18.7628L330.856 18.7657L331.113 18.7422C331.255 18.7293 331.486 18.7024 331.628 18.6825C331.769 18.6625 332.014 18.6179 332.171 18.5833L332.457 18.5203L332.472 18.4149C332.479 18.3569 332.512 18.1842 332.543 18.0311L332.6 17.7529L332.588 17.7403L332.575 17.7277L332.487 17.7699C332.439 17.7931 332.29 17.8486 332.155 17.8931L331.909 17.974L331.652 18.0239L331.394 18.0738L330.984 18.0746L330.575 18.0754L330.435 18.0305C330.357 18.0059 330.244 17.9607 330.182 17.9303L330.07 17.8748L329.978 17.7913L329.885 17.7078L329.813 17.5817L329.741 17.4557L329.696 17.2976L329.651 17.1394L329.651 16.8468L329.65 16.5542L329.69 16.2932L329.73 16.0322L330.083 16.0157L330.435 15.9993L331.736 16.0076L333.038 16.016L333.077 15.8492C333.099 15.7575 333.132 15.568 333.15 15.428L333.185 15.1735L333.185 14.9594L333.186 14.7453L333.149 14.5855L333.112 14.4257L333.051 14.3198C333.017 14.2616 332.958 14.1773 332.919 14.1324C332.88 14.0875 332.81 14.0242 332.764 13.9917C332.718 13.9593 332.628 13.9047 332.564 13.8705L332.447 13.8083L332.242 13.759L332.038 13.7097L331.786 13.6857L331.534 13.6616L331.3 13.6768L331.066 13.6921L330.786 13.746L330.505 13.7999L330.329 13.8701C330.233 13.9087 330.085 13.9791 330.002 14.0265C329.918 14.0739 329.802 14.1511 329.744 14.1981C329.687 14.245 329.586 14.3362 329.522 14.4008C329.457 14.4654 329.361 14.5814 329.309 14.6587C329.257 14.7359 329.177 14.8728 329.131 14.9629C329.086 15.053 329.026 15.1794 328.999 15.2437C328.972 15.3081 328.923 15.4397 328.89 15.5362C328.857 15.6328 328.805 15.8171 328.775 15.9458C328.744 16.0745 328.703 16.2864 328.682 16.4166L328.645 16.6534L328.645 17.0017L328.645 17.3499L328.681 17.502C328.701 17.5857 328.738 17.7121 328.764 17.7829C328.79 17.8537 328.839 17.959 328.872 18.0169C328.905 18.0748 328.975 18.1681 329.028 18.2241C329.081 18.2802 329.177 18.3652 329.241 18.4131C329.306 18.4611 329.42 18.5284 329.496 18.5629L329.633 18.6255L329.825 18.6719C329.931 18.6974 330.09 18.7276 330.179 18.739C330.268 18.7505 330.457 18.7612 330.598 18.7628ZM329.861 15.4557C329.861 15.4614 330.391 15.466 331.039 15.466H332.217L332.242 15.2379L332.266 15.0097L332.245 14.8726L332.223 14.7354L332.19 14.6736C332.172 14.6397 332.125 14.5771 332.086 14.5346L332.014 14.4574L331.884 14.3976L331.753 14.3378L331.574 14.3147L331.394 14.2916L331.16 14.3066C331.031 14.3148 330.884 14.3323 330.832 14.3456C330.781 14.3588 330.67 14.4024 330.587 14.4424L330.435 14.5151L330.28 14.6691L330.125 14.823L330.055 14.9632C330.016 15.0402 329.957 15.1803 329.923 15.2744C329.889 15.3685 329.861 15.4501 329.861 15.4557ZM338.039 18.7629L338.296 18.7658L338.589 18.7311C338.75 18.712 338.964 18.6805 339.064 18.6609C339.165 18.6414 339.328 18.6026 339.427 18.5747C339.526 18.5468 339.615 18.5167 339.625 18.5077C339.636 18.4988 339.664 18.3926 339.687 18.2717C339.711 18.1509 339.741 17.9888 339.753 17.9116C339.766 17.8343 339.773 17.767 339.768 17.762C339.763 17.7569 339.746 17.7634 339.73 17.7765C339.713 17.7895 339.599 17.8378 339.475 17.8839L339.249 17.9675L338.929 18.0297L338.608 18.0919L338.335 18.0826L338.062 18.0733L337.907 18.0195L337.752 17.9658L337.633 17.861L337.513 17.7563L337.433 17.6116L337.354 17.4669L337.316 17.2734L337.278 17.0798L337.279 16.8287L337.279 16.5776L337.325 16.2734L337.371 15.9692L337.419 15.8054C337.446 15.7153 337.476 15.61 337.487 15.5714C337.497 15.5327 337.54 15.4222 337.582 15.3256C337.624 15.2291 337.699 15.0799 337.749 14.9941L337.84 14.838L337.951 14.7228L338.062 14.6075L338.18 14.5344L338.298 14.4613L338.449 14.4147C338.532 14.3891 338.679 14.3558 338.776 14.3408L338.951 14.3134L339.209 14.3264L339.466 14.3393L339.77 14.4002L340.075 14.4611L340.198 14.5072C340.266 14.5326 340.325 14.5534 340.329 14.5534C340.332 14.5534 340.348 14.4665 340.365 14.3603C340.381 14.2541 340.41 14.0794 340.429 13.9721C340.448 13.8647 340.46 13.7723 340.454 13.7666C340.448 13.761 340.357 13.7465 340.251 13.7344C340.145 13.7223 339.856 13.7008 339.61 13.6866L339.162 13.6609L338.846 13.6851L338.53 13.7094L338.296 13.7585L338.062 13.8077L337.912 13.868C337.829 13.9011 337.707 13.961 337.642 14.0009C337.576 14.0409 337.493 14.0947 337.457 14.1204C337.42 14.1462 337.31 14.2466 337.211 14.3436L337.032 14.52L336.932 14.6666C336.877 14.7472 336.782 14.9153 336.721 15.0401L336.609 15.2671L336.524 15.5128C336.477 15.648 336.411 15.8691 336.378 16.0043L336.317 16.25L336.296 16.4723L336.274 16.6947L336.274 16.9872L336.274 17.2797L336.296 17.4499L336.318 17.6201L336.388 17.7951L336.458 17.9702L336.539 18.0967L336.62 18.2233L336.749 18.35L336.878 18.4767L337.014 18.5487L337.15 18.6206L337.329 18.6703C337.427 18.6977 337.569 18.729 337.645 18.74C337.72 18.751 337.898 18.7613 338.039 18.7629ZM341.888 18.7542L341.888 18.7542L341.572 18.7633L341.434 18.7415C341.358 18.7296 341.224 18.6994 341.136 18.6745L340.976 18.6291L340.836 18.5441L340.696 18.4591L340.617 18.367C340.574 18.3164 340.51 18.2226 340.475 18.1586L340.412 18.0421L340.378 17.8636L340.344 17.6851V17.4707V17.2563L340.379 17.0519L340.415 16.8475L340.493 16.6658C340.536 16.5658 340.606 16.4314 340.65 16.367C340.693 16.3027 340.792 16.1868 340.87 16.1095L341.01 15.9691L341.189 15.858C341.287 15.7968 341.377 15.7468 341.389 15.7468C341.401 15.7468 341.455 15.7257 341.508 15.6998C341.562 15.6739 341.73 15.6187 341.881 15.5772L342.157 15.5016L342.999 15.4986L343.84 15.4955L343.881 15.2994L343.921 15.1033L343.922 14.9246L343.923 14.7458L343.847 14.6325L343.771 14.5191L343.635 14.4521L343.5 14.385L343.296 14.3494L343.093 14.3137L342.777 14.3267L342.461 14.3397L342.11 14.3995C341.917 14.4324 341.66 14.4859 341.539 14.5185C341.418 14.551 341.316 14.5743 341.312 14.5701C341.308 14.566 341.334 14.4473 341.371 14.3064C341.408 14.1655 341.45 13.9896 341.465 13.9156L341.493 13.7811L341.685 13.7803L341.876 13.7796L342.157 13.7455C342.311 13.7268 342.613 13.7005 342.827 13.6873L343.217 13.6631L343.52 13.6862L343.823 13.7092L344.043 13.7581L344.263 13.8071L344.41 13.8818L344.558 13.9566L344.647 14.0429L344.737 14.1291L344.804 14.2646L344.87 14.4001L344.868 14.6932L344.866 14.9863L344.803 15.3256C344.768 15.5123 344.71 15.8334 344.673 16.0394C344.636 16.2453 344.579 16.5718 344.546 16.7649C344.513 16.9579 344.459 17.3107 344.425 17.5488L344.364 17.9818L344.351 18.3152L344.337 18.6487H343.908H343.479L343.479 18.5025C343.479 18.422 343.494 18.2511 343.513 18.1226C343.531 17.9941 343.543 17.8859 343.539 17.8821C343.535 17.8783 343.49 17.9308 343.439 17.9987C343.387 18.0666 343.294 18.1734 343.231 18.236C343.168 18.2985 343.058 18.3884 342.987 18.4357C342.917 18.483 342.801 18.549 342.73 18.5825L342.601 18.6434L342.402 18.6943L342.204 18.7452L341.888 18.7542ZM342.18 18.0999L341.993 18.1096L341.869 18.078C341.801 18.0607 341.697 18.0219 341.639 17.992L341.533 17.9375L341.475 17.8687C341.443 17.8309 341.395 17.7567 341.367 17.7037L341.317 17.6073L341.307 17.3824L341.297 17.1574L341.337 17.0209C341.359 16.9459 341.41 16.8157 341.451 16.7315L341.525 16.5786L341.667 16.4377L341.809 16.2968L341.959 16.2243L342.11 16.1517L342.297 16.1073L342.484 16.0628H343.069H343.654L343.691 16.0781L343.728 16.0934L343.697 16.277C343.68 16.378 343.639 16.5607 343.606 16.683C343.573 16.8052 343.515 16.985 343.477 17.0824C343.439 17.1798 343.408 17.2659 343.408 17.2738C343.408 17.2816 343.37 17.3526 343.323 17.4315L343.238 17.575L343.097 17.714C343.02 17.7905 342.948 17.8531 342.938 17.8531C342.928 17.8531 342.88 17.8794 342.833 17.9116L342.747 17.9701L342.557 18.0301L342.367 18.0901L342.18 18.0999ZM350.018 18.7654L349.796 18.7626H349.796C349.674 18.7611 349.508 18.7513 349.429 18.7409C349.349 18.7305 349.217 18.7039 349.136 18.6816C349.055 18.6594 348.925 18.6099 348.848 18.5715L348.708 18.5018L348.605 18.4175L348.502 18.3333L348.412 18.2113L348.322 18.0894L348.273 17.9654C348.245 17.8972 348.209 17.794 348.192 17.7361L348.161 17.6307L348.134 17.3382L348.108 17.0457L348.143 16.6821L348.178 16.3186L348.25 16.0386C348.289 15.8846 348.349 15.6849 348.383 15.5948C348.418 15.5047 348.503 15.3118 348.573 15.1662L348.7 14.9015L348.808 14.7466C348.868 14.6614 348.98 14.5234 349.058 14.4399L349.199 14.2883L349.363 14.167L349.527 14.0457L349.749 13.9373L349.971 13.8288L350.205 13.7697L350.439 13.7105L350.697 13.6865L350.954 13.6626L351.258 13.6862L351.562 13.7099L351.785 13.7658C351.907 13.7965 352.025 13.8292 352.046 13.8384L352.086 13.8552L352.098 13.7772C352.105 13.7343 352.142 13.5096 352.181 13.2779C352.219 13.0463 352.282 12.6566 352.321 12.4121C352.36 12.1675 352.398 11.9016 352.406 11.8212L352.421 11.6749H352.922H353.422V11.6924C353.423 11.7021 353.397 11.8311 353.366 11.9791C353.335 12.1271 353.277 12.4167 353.237 12.6227C353.198 12.8286 353.138 13.1445 353.105 13.3247L352.977 14.0151C352.94 14.2146 352.878 14.5516 352.839 14.764C352.801 14.9764 352.743 15.3028 352.711 15.4894C352.679 15.6761 352.63 15.9551 352.602 16.1096C352.575 16.2641 352.527 16.5589 352.496 16.7649C352.465 16.9708 352.408 17.4078 352.369 17.7361L352.299 18.3328V18.4908V18.6487H351.84H351.381L351.397 18.4908C351.405 18.4039 351.422 18.2802 351.433 18.2158C351.444 18.1514 351.459 18.0461 351.465 17.9818L351.477 17.8648L351.464 17.8999C351.456 17.9192 351.393 18.0113 351.323 18.1046L351.196 18.2743L351.075 18.3806L350.954 18.4869L350.814 18.5589C350.736 18.5984 350.621 18.6457 350.556 18.6639C350.492 18.6821 350.345 18.7124 350.229 18.7312L350.018 18.7654ZM350.195 18.0986L350.018 18.108L349.899 18.0866C349.833 18.0748 349.728 18.0431 349.666 18.0162L349.552 17.9674L349.456 17.8888L349.36 17.8102L349.289 17.6737L349.217 17.5371L349.185 17.385L349.153 17.2329L349.155 16.9287L349.158 16.6244L349.196 16.3553L349.233 16.0862L349.292 15.899C349.324 15.796 349.351 15.6989 349.351 15.6831C349.351 15.6673 349.383 15.5831 349.422 15.4959C349.461 15.4087 349.525 15.2741 349.566 15.1969C349.606 15.1197 349.681 14.9993 349.733 14.9294C349.785 14.8595 349.877 14.7541 349.938 14.6954C349.999 14.6366 350.096 14.5594 350.154 14.524L350.259 14.4595L350.443 14.3958L350.627 14.3322L351.013 14.3319H351.399L351.621 14.3936C351.743 14.4275 351.873 14.4669 351.909 14.481L351.976 14.5068L351.963 14.571C351.956 14.6064 351.928 14.7616 351.901 14.9161C351.874 15.0705 351.821 15.3654 351.783 15.5713C351.745 15.7773 351.687 16.088 351.654 16.2617C351.621 16.4355 351.573 16.6566 351.547 16.7532C351.521 16.8497 351.485 16.9834 351.467 17.0503C351.448 17.1172 351.404 17.233 351.369 17.3077C351.333 17.3824 351.271 17.4909 351.231 17.5488C351.19 17.6068 351.122 17.687 351.079 17.7271C351.036 17.7673 350.943 17.8386 350.872 17.8857L350.744 17.9712L350.558 18.0302L350.372 18.0893L350.195 18.0986ZM315.76 18.6487H315.76H315.191V18.6107C315.191 18.5898 315.218 18.4397 315.252 18.2772C315.285 18.1147 315.321 17.9291 315.332 17.8648C315.343 17.8004 315.378 17.6214 315.41 17.4669C315.442 17.3125 315.501 17.0123 315.541 16.8C315.582 16.5876 315.64 16.2822 315.67 16.1213C315.7 15.9604 315.758 15.6497 315.797 15.4309C315.837 15.2121 315.901 14.833 315.94 14.5885L316.068 13.7811C316.1 13.5816 316.158 13.2183 316.198 12.9737C316.237 12.7291 316.28 12.4606 316.293 12.3769C316.306 12.2933 316.333 12.1327 316.353 12.0201L316.389 11.8153H316.963H317.536L317.522 11.8524C317.514 11.8728 317.486 12.0097 317.46 12.1566C317.435 12.3035 317.397 12.5001 317.378 12.5934C317.358 12.6867 317.332 12.8368 317.319 12.9269C317.307 13.017 317.27 13.2329 317.237 13.4066C317.204 13.5804 317.157 13.8226 317.132 13.9449C317.107 14.0672 317.072 14.2563 317.053 14.3652C317.034 14.4741 317.021 14.5651 317.023 14.5673C317.026 14.5696 317.348 14.579 317.739 14.5883L318.449 14.6051L319.298 14.588L320.146 14.5708L320.185 14.3105C320.207 14.1673 320.256 13.8606 320.294 13.629C320.333 13.3973 320.389 13.0656 320.421 12.8918C320.452 12.718 320.498 12.4548 320.524 12.3067C320.549 12.1587 320.577 11.9876 320.586 11.9265L320.601 11.8153H321.179H321.757L321.718 11.985C321.696 12.0783 321.646 12.3337 321.606 12.5525C321.566 12.7713 321.507 13.0977 321.474 13.2779C321.442 13.4581 321.383 13.7793 321.344 13.9917C321.305 14.2041 321.242 14.5411 321.204 14.7406C321.167 14.9401 321.11 15.256 321.077 15.4426C321.045 15.6293 320.987 15.9768 320.948 16.2149C320.908 16.453 320.845 16.8269 320.807 17.0457C320.77 17.2645 320.717 17.5699 320.691 17.7243C320.665 17.8788 320.633 18.0842 320.619 18.1807C320.606 18.2772 320.584 18.422 320.57 18.5025L320.544 18.6487H319.974H319.403L319.403 18.6195C319.402 18.6034 319.44 18.3849 319.485 18.1339C319.53 17.8829 319.593 17.5459 319.624 17.385C319.655 17.2241 319.713 16.9135 319.753 16.6946C319.793 16.4758 319.857 16.1283 319.895 15.9224C319.934 15.7164 319.977 15.4871 319.991 15.4128L320.018 15.2777L320.001 15.2607L319.984 15.2437H318.455H316.927L316.913 15.2568C316.906 15.264 316.875 15.4115 316.844 15.5845C316.813 15.7574 316.76 16.0569 316.727 16.25C316.694 16.4431 316.635 16.7959 316.595 17.034L316.466 17.8063C316.435 17.9929 316.391 18.2588 316.369 18.3972L316.328 18.6487H315.76ZM322.053 18.6487H322.556L322.571 18.6117C322.578 18.5914 322.585 18.538 322.585 18.493C322.585 18.4481 322.616 18.2147 322.655 17.9743C322.694 17.7338 322.758 17.3423 322.797 17.1042C322.837 16.8661 322.895 16.5186 322.927 16.3319C322.958 16.1453 323.015 15.8346 323.052 15.6416C323.089 15.4485 323.146 15.1484 323.179 14.9746C323.212 14.8008 323.276 14.4702 323.322 14.24C323.368 14.0097 323.411 13.812 323.418 13.8007L323.43 13.7802L322.921 13.7865L322.413 13.7928L322.37 14.097C322.347 14.2643 322.296 14.5961 322.257 14.8342C322.218 15.0723 322.159 15.4356 322.126 15.6416C322.093 15.8475 322.035 16.1792 321.998 16.3787L321.87 17.0574C321.837 17.2311 321.779 17.5365 321.74 17.736C321.701 17.9356 321.649 18.1988 321.624 18.3211C321.599 18.4434 321.572 18.5671 321.564 18.5961L321.55 18.6487H322.053ZM334.323 18.6487H333.824V18.6487H333.324V18.6282C333.324 18.6169 333.339 18.5353 333.357 18.4468C333.376 18.3584 333.423 18.1228 333.462 17.9233C333.501 17.7238 333.565 17.3973 333.603 17.1978C333.642 16.9983 333.7 16.6929 333.732 16.5191C333.765 16.3454 333.823 16.0136 333.861 15.782C333.899 15.5503 333.957 15.1922 333.99 14.9863C334.023 14.7803 334.076 14.4503 334.108 14.2529C334.14 14.0554 334.167 13.8685 334.167 13.8375V13.7811H334.613H335.059L335.046 13.822C335.04 13.8445 335.012 13.9893 334.985 14.1438C334.958 14.2983 334.927 14.4668 334.916 14.5182L334.895 14.6118L334.929 14.565C334.947 14.5393 335.017 14.4445 335.083 14.3544C335.149 14.2643 335.255 14.1403 335.317 14.0787C335.38 14.0172 335.488 13.9304 335.558 13.8859C335.628 13.8414 335.74 13.7844 335.809 13.7592C335.877 13.7341 336.002 13.7014 336.085 13.6866L336.237 13.6597L336.354 13.6742C336.419 13.6821 336.548 13.7118 336.641 13.7402C336.734 13.7686 336.81 13.7985 336.81 13.8066C336.81 13.8148 336.784 13.9507 336.752 14.1087C336.72 14.2667 336.693 14.4208 336.693 14.4513C336.693 14.4817 336.687 14.5065 336.68 14.5065C336.672 14.5065 336.606 14.4887 336.533 14.467L336.401 14.4275L336.132 14.4261L335.863 14.4246L335.687 14.5087L335.511 14.5928L335.368 14.725L335.225 14.8572L335.119 15.0154C335.06 15.1023 334.974 15.2552 334.929 15.355C334.883 15.4548 334.845 15.5509 334.845 15.5685C334.845 15.5861 334.829 15.645 334.81 15.6994C334.791 15.7538 334.734 16.0052 334.684 16.2581C334.634 16.5111 334.56 16.9181 334.521 17.1627C334.481 17.4073 334.427 17.7465 334.401 17.9166C334.375 18.0867 334.347 18.3211 334.338 18.4373L334.323 18.6487ZM345.682 18.6487H346.193V18.4924V18.3361L346.252 17.9483C346.284 17.735 346.337 17.3973 346.37 17.1978C346.403 16.9983 346.444 16.7456 346.462 16.6362C346.479 16.5268 346.524 16.2898 346.563 16.1096C346.602 15.9294 346.65 15.7346 346.67 15.6767C346.69 15.6187 346.707 15.558 346.707 15.5416C346.707 15.5253 346.751 15.4201 346.804 15.308L346.9 15.104L347.028 14.935L347.155 14.7659L347.294 14.6613C347.371 14.6037 347.494 14.5273 347.568 14.4915L347.702 14.4264L347.994 14.4284L348.287 14.4304L348.402 14.4674L348.517 14.5044L348.537 14.4924L348.556 14.4804L348.557 14.4057C348.558 14.3647 348.583 14.2118 348.613 14.0661L348.667 13.8012L348.606 13.7771C348.572 13.7639 348.492 13.7364 348.427 13.7162L348.31 13.6793L348.1 13.6799L347.889 13.6804L347.718 13.7408L347.546 13.8012L347.417 13.8789L347.288 13.9566L347.121 14.1321L346.953 14.3076L346.863 14.4438C346.814 14.5187 346.77 14.5766 346.766 14.5725C346.763 14.5684 346.789 14.4124 346.826 14.2257C346.863 14.0391 346.893 13.8627 346.894 13.8338L346.895 13.7811H346.462H346.029V13.796C346.029 13.8042 346.007 13.9543 345.981 14.1295C345.955 14.3047 345.902 14.6429 345.863 14.881C345.825 15.1191 345.762 15.5035 345.724 15.7352C345.685 15.9669 345.627 16.2986 345.594 16.4724C345.562 16.6461 345.504 16.9515 345.466 17.151C345.428 17.3505 345.366 17.6717 345.327 17.8648L345.214 18.4323L345.171 18.6488L345.682 18.6487ZM323.185 12.9386L323.043 12.9381L322.901 12.9376L322.803 12.8931L322.705 12.8485L322.654 12.7489L322.603 12.6492L322.613 12.4487L322.624 12.2482L322.678 12.1195L322.733 11.9908L322.802 11.9163L322.872 11.8418L322.992 11.7882L323.111 11.7346L323.287 11.7346H323.463L323.545 11.785L323.626 11.8355L323.673 11.9131L323.72 11.9908L323.718 12.1897L323.716 12.3887L323.663 12.5238L323.611 12.6588L323.511 12.7602L323.411 12.8616L323.298 12.9001L323.185 12.9386Z" fill="#B3131B"/>
</svg>
