<svg width="97" height="24" viewBox="0 0 97 24" fill="none" xmlns="http://www.w3.org/2000/svg">
<path d="M45.3235 8.18805C46.0214 8.18805 46.664 8.29393 47.2332 8.50311C47.8019 8.71275 48.3348 9.03158 48.8163 9.4511L49.3449 9.91166V6.66088L49.2066 6.57292C48.6494 6.2173 48.0214 5.93809 47.3397 5.74284C46.657 5.54734 45.9403 5.4483 45.2095 5.4483C43.0427 5.4483 41.1645 6.17698 39.6271 7.61454C38.0898 9.05233 37.3105 10.8252 37.3105 12.8837C37.3105 14.9247 38.0898 16.6886 39.6271 18.126C41.1638 19.5633 43.0419 20.292 45.2095 20.292C45.9185 20.292 46.6284 20.1979 47.3201 20.0123C48.0141 19.826 48.6487 19.5506 49.2068 19.1942L49.3449 19.106V15.81L48.8115 16.2934C48.3315 16.729 47.7961 17.0551 47.2204 17.2636C46.6422 17.473 46.0041 17.5793 45.3235 17.5793C43.9531 17.5793 42.8135 17.1336 41.8394 16.2168C40.8654 15.2999 40.3922 14.2097 40.3922 12.8837C40.3922 11.5577 40.8654 10.4672 41.8394 9.55038C42.8135 8.63351 43.9531 8.18805 45.3235 8.18805Z" fill="#c9d8f7"/>
<path d="M63.9477 12.8837C63.9477 14.1944 63.4875 15.3181 62.5793 16.2229C61.6637 17.1358 60.5634 17.5793 59.2158 17.5793C57.8868 17.5793 56.791 17.1351 55.8655 16.2217C54.9489 15.3174 54.4842 14.1944 54.4842 12.8837C54.4842 11.5551 54.9489 10.4229 55.8655 9.51855C56.7907 8.60522 57.8868 8.16117 59.2158 8.16117C60.5636 8.16117 61.6637 8.60474 62.5793 9.5176C63.4875 10.4224 63.9477 11.5549 63.9477 12.8837ZM64.7982 7.6143C63.261 6.17698 61.3828 5.4483 59.2158 5.4483C57.0488 5.4483 55.1708 6.17698 53.6339 7.61454C52.0964 9.05233 51.317 10.8252 51.317 12.8837C51.317 14.9245 52.0964 16.6884 53.6339 18.126C55.1703 19.5633 57.0483 20.292 59.2158 20.292C61.3833 20.292 63.2615 19.5633 64.7982 18.126C66.3354 16.6884 67.115 14.9245 67.115 12.8837C67.115 10.8252 66.3354 9.05233 64.7982 7.6143Z" fill="#c9d8f7"/>
<path d="M77.3825 5.58461C76.2358 5.45279 75.1623 5.6497 74.1938 6.1718C73.5755 6.50549 73.0559 6.93444 72.6408 7.45278V5.7702H69.4451V19.9701H72.6408V12.6153C72.6408 11.1379 73.0745 10.035 73.9293 9.33674C74.7951 8.62975 75.8964 8.3845 77.2963 8.58707L77.6591 8.63966V5.61645L77.3825 5.58461Z" fill="#c9d8f7"/>
<path d="M82.1278 3.59861H82.1561C82.6952 3.59861 83.1575 3.42599 83.53 3.0857C83.9058 2.74329 84.0962 2.31056 84.0962 1.79931C84.0962 1.28876 83.9058 0.856026 83.53 0.512908C83.157 0.172384 82.6945 0 82.1561 0H82.1278C81.5894 0 81.1272 0.172384 80.7539 0.513144C80.3782 0.856026 80.1878 1.28876 80.1878 1.79931C80.1878 2.31033 80.3782 2.74329 80.7539 3.08547C81.1267 3.42599 81.5887 3.59861 82.1278 3.59861Z" fill="#c9d8f7"/>
<path d="M80.5584 19.9703H83.7541V5.77038H80.5584V19.9703Z" fill="#c9d8f7"/>
<path d="M96.2336 13.7998C95.7947 13.2145 95.077 12.6988 94.1009 12.267L91.5641 11.1403C90.5768 10.6969 90.1993 10.4177 90.0562 10.2611C89.8681 10.056 89.7762 9.81661 89.7762 9.52914C89.7762 9.08556 89.955 8.74127 90.3231 8.47597C90.7111 8.19605 91.2462 8.05385 91.9136 8.05385C92.5332 8.05385 93.1685 8.18167 93.8011 8.43329C94.4444 8.68915 95.1038 9.08037 95.7607 9.59564L96.277 10.0008V6.8599L96.1537 6.77099C95.5577 6.34109 94.8883 6.00953 94.1643 5.7855C93.4418 5.56171 92.675 5.44828 91.8851 5.44828C90.4265 5.44828 89.1964 5.84752 88.2292 6.63445C87.2489 7.43223 86.7516 8.44248 86.7516 9.63644C86.7516 10.467 86.9781 11.1804 87.425 11.7565C87.8689 12.3302 88.64 12.8568 89.7832 13.3664L92.3781 14.5207C92.9778 14.7865 93.3814 15.0386 93.5779 15.2697C93.7617 15.4857 93.8509 15.7588 93.8509 16.1045C93.8509 16.5981 93.6467 16.9759 93.2269 17.2591C92.7799 17.5607 92.1559 17.7137 91.372 17.7137C90.6189 17.7137 89.8593 17.5635 89.1133 17.2673C88.3624 16.9693 87.6698 16.5415 87.0542 15.996L86.5236 15.5256V18.8058L86.6546 18.8945C87.2865 19.3223 88.0308 19.6661 88.8673 19.9161C89.7015 20.1656 90.5635 20.2924 91.4289 20.2924C92.9593 20.2924 94.2633 19.8908 95.3047 19.0992C96.3662 18.2922 96.9043 17.2485 96.9043 15.997C96.9043 15.1341 96.6788 14.3948 96.2336 13.7998Z" fill="#c9d8f7"/>
<path d="M24.0558 23.4672L24.0042 23.4004C23.5858 22.8576 23.6863 22.1122 24.2169 21.665C26.806 19.4818 28.3205 16.3355 28.3205 13.0366C28.3205 9.57384 26.681 6.32378 23.8814 4.13466C23.3423 3.71301 23.2373 2.97254 23.6297 2.42568L23.6795 2.35634C24.1365 1.71963 25.0762 1.60054 25.7037 2.09199C29.1412 4.78505 31.1539 8.78008 31.1539 13.0366C31.1539 17.1048 29.283 20.9838 26.0855 23.67C25.4778 24.1805 24.5343 24.0878 24.0558 23.4672Z" fill="#c9d8f7"/>
<path d="M8.00213 23.4669C7.52363 24.0875 6.58015 24.1802 5.97238 23.6694C2.77521 20.9832 0.904297 17.1042 0.904297 13.0365C0.904297 8.87738 2.84335 4.94155 6.15652 2.25084C6.77406 1.74925 7.71553 1.85467 8.18375 2.48313L8.23436 2.55128C8.64321 3.10003 8.53098 3.84357 7.99286 4.2822C5.3085 6.46919 3.73797 9.66266 3.73797 13.0365C3.73797 16.3352 5.25213 19.4813 7.84129 21.6647C8.37165 22.1118 8.47211 22.8573 8.05373 23.4001L8.00213 23.4669Z" fill="#c9d8f7"/>
<path d="M18.7884 11.1567C18.4577 10.9491 18.1516 10.8051 17.87 10.7244C17.5879 10.644 17.2758 10.6034 16.933 10.6034C16.2351 10.6034 15.6471 10.8225 15.1694 11.2604C14.6919 11.6986 14.4531 12.252 14.4531 12.9206C14.4531 13.5776 14.6946 14.1254 15.1786 14.5631C15.6624 15.0015 16.2471 15.2203 16.933 15.2203C17.2883 15.2203 17.6097 15.1802 17.8976 15.0993C18.1852 15.0187 18.4823 14.8746 18.7884 14.6671V17.209C18.5066 17.3243 18.1944 17.4137 17.8515 17.4771C17.5087 17.5403 17.1472 17.5721 16.7677 17.5721C15.3715 17.5721 14.1803 17.1227 13.1947 16.2233C12.2087 15.3241 11.7156 14.2235 11.7156 12.9206C11.7156 11.6064 12.2087 10.4994 13.1947 9.60026C14.1803 8.70107 15.3715 8.2516 16.7677 8.2516C17.135 8.2516 17.4902 8.28344 17.8332 8.34664C18.1759 8.41007 18.4946 8.50511 18.7884 8.63198V11.1567ZM16.0289 4.28865C10.9696 4.28865 6.86776 8.14949 6.86776 12.9119C6.86776 17.6743 10.9696 21.5351 16.0289 21.5351C21.0882 21.5351 25.1898 17.6743 25.1898 12.9119C25.1898 8.14949 21.0882 4.28865 16.0289 4.28865Z" fill="#c9d8f7"/>
</svg>
