<svg width="54" height="38" viewBox="0 0 54 38" fill="none" xmlns="http://www.w3.org/2000/svg">
<g clip-path="url(#clip0_10706_4940)">
<path fill-rule="evenodd" clip-rule="evenodd" d="M6.38478 33.4829C3.87838 32.7429 1.42419 30.9457 1.4764 27.9857C1.52862 25.6072 2.78182 23.7572 4.97493 22.0657C6.07148 21.22 7.63798 20.5857 9.04783 20.1629C11.0843 19.5287 12.8074 19.2643 14.9484 19.2643C16.306 19.3172 17.7158 19.4229 18.5513 19.6872C18.8123 19.74 19.2823 19.74 19.4912 19.6343C19.8045 19.5287 19.9089 19.4757 20.17 19.2115H20.6922L19.439 23.7043L18.8123 23.7572C18.8123 22.4887 18.238 21.3257 17.3503 20.7443C16.8804 20.4272 15.836 20.11 14.5306 20.11C12.5464 20.11 9.98774 21.0615 8.47345 22.9115C7.42911 24.18 6.437 25.5543 6.07148 27.4572C5.91483 28.4087 5.81039 29.3072 6.07148 30.2057C6.54143 31.8443 7.84685 33.1657 9.93556 33.1129C10.6143 33.1129 11.3454 32.9543 11.8675 32.8486C11.9198 32.5843 12.2853 31.7915 12.4942 31.3687L13.434 28.8843C13.6951 28.1972 13.6951 27.7743 13.4863 27.5629C13.2774 27.3515 12.7553 27.0343 11.7109 27.0343L11.8675 26.6643H15.9405H19.8044L19.7523 27.0343C19.1257 27.0343 18.5513 27.1929 18.2902 27.4572C18.0291 27.6687 17.768 28.1443 17.507 28.8315L15.9926 32.9543C14.8961 33.43 13.6951 33.6415 12.4419 33.8C10.4577 33.9586 8.26458 34.0643 6.38478 33.4829ZM25.5484 31.1572L29.7257 20.3215C28.2114 20.2687 26.6449 20.85 26.2794 21.0087C25.2873 21.4315 24.1385 22.33 23.5119 23.2287H22.9375L24.3995 19.5287H32.1277H39.2813L38.0281 23.1229H37.506C37.6104 22.1187 37.4015 21.4843 36.6183 20.9557C35.9916 20.5329 34.9995 20.3743 33.8508 20.3215L29.6735 31.1572C29.4123 31.8443 29.4123 32.32 29.6735 32.5315C30.039 32.8486 30.4567 32.9015 31.6054 32.9543L31.5011 33.3243H26.8015H22.3109L22.4675 33.0072C23.4074 32.9543 24.1385 32.8486 24.504 32.6372C24.8695 32.4257 25.2872 31.8443 25.5484 31.1572ZM37.6626 30.9457L50.9257 18.8943H51.5001L50.9779 31.4743C50.9257 32.4786 51.9178 32.7429 52.7533 32.7429L52.5444 33.1657H44.4508L44.6074 32.7957C45.5474 32.7429 45.9651 32.7429 46.435 32.32C47.2183 31.6329 47.0616 29.6772 47.1139 28.7257H41.37L38.968 30.9457C38.3936 31.4743 38.1326 31.95 38.237 32.2143C38.3936 32.69 39.3336 32.7957 39.8035 32.7957V33.2187H34.2163L34.3729 32.9015C34.8429 32.9015 35.6261 32.5315 35.9916 32.32C36.3572 32.1087 36.9316 31.6857 37.6626 30.9457ZM42.3622 27.88H47.1661L47.4794 23.3872L42.3622 27.88Z" fill="#c9d8f7"/>
<path fill-rule="evenodd" clip-rule="evenodd" d="M3.66869 34.6988L3.82534 35.4388H3.77313C3.7209 35.3331 3.61647 35.2274 3.51204 35.1216C3.35539 34.9631 3.14652 34.9103 2.88544 34.9103C2.62435 34.9103 2.41549 34.9631 2.25883 35.1216C2.04997 35.2803 1.99775 35.5445 1.99775 35.8616C1.99775 36.1788 2.10219 36.496 2.25883 36.7074C2.36327 36.8659 2.46771 36.9716 2.62435 37.0245C2.781 37.1303 2.98987 37.1831 3.19874 37.1831C3.35539 37.1831 3.51204 37.1303 3.56426 37.0774C3.61647 37.0245 3.61647 36.9716 3.66869 36.9188C3.66869 36.8659 3.66869 36.8131 3.66869 36.7603V36.1788C3.66869 35.9145 3.66869 35.756 3.61647 35.7031C3.56426 35.6503 3.56426 35.6503 3.51204 35.5974H3.45982V35.5445H4.34751V35.5974C4.24307 35.5974 4.19086 35.6503 4.19086 35.7031C4.19086 35.756 4.13864 35.8616 4.13864 36.0203V36.9716V37.1831C4.13864 37.2359 4.19086 37.2888 4.24307 37.3416C4.24307 37.3416 4.29529 37.3416 4.34751 37.3945V37.4474H3.14652C2.781 37.4474 2.46771 37.3945 2.25883 37.2888C1.99775 37.1303 1.73667 36.9188 1.63224 36.6545C1.5278 36.4431 1.47559 36.2316 1.47559 35.9674C1.47559 35.756 1.5278 35.5974 1.58002 35.4388C1.63224 35.2803 1.73667 35.1745 1.8411 35.016C2.10219 34.8045 2.41549 34.6988 2.83323 34.6988C2.98987 34.6988 3.14652 34.6988 3.35539 34.7517H3.45982C3.56426 34.8045 3.61647 34.7516 3.66869 34.6988ZM5.2352 34.6988V37.0245V37.2888C5.2352 37.3945 5.33962 37.4474 5.49627 37.4474V37.5003H4.60859V37.4474C4.71303 37.4474 4.76524 37.3945 4.76524 37.3416C4.76524 37.2888 4.81745 37.2888 4.81745 37.1831C4.81745 37.1831 4.81745 37.1303 4.81745 37.0245V35.2803C4.81745 35.1745 4.81745 35.0688 4.81745 35.016C4.81745 34.9103 4.71303 34.8574 4.55637 34.8574V34.8045L5.2352 34.6988ZM6.95834 35.4388C7.115 35.4388 7.27165 35.4916 7.4283 35.5445C7.58495 35.5974 7.68938 35.7031 7.79382 35.756C7.95047 35.9145 8.00268 36.1788 8.00268 36.4431C8.00268 36.7603 7.89824 37.0245 7.68938 37.2359C7.58495 37.3416 7.48051 37.3945 7.32386 37.4474C7.16721 37.5003 7.01056 37.5003 6.85392 37.5003C6.69726 37.5003 6.54061 37.4474 6.38396 37.3945C6.22731 37.3416 6.12288 37.2359 6.01844 37.1303C5.86179 36.9716 5.80958 36.7074 5.80958 36.4431C5.80958 36.126 5.91401 35.9145 6.12288 35.7031C6.33175 35.5445 6.59283 35.4388 6.95834 35.4388ZM6.90613 35.5974C6.80169 35.5974 6.69726 35.5974 6.64504 35.6503C6.54061 35.7031 6.4884 35.756 6.43617 35.8088C6.33175 35.9674 6.27952 36.126 6.27952 36.3374C6.27952 36.5488 6.33175 36.7603 6.43617 36.9188C6.54061 37.1303 6.74948 37.2359 6.95834 37.2359C7.115 37.2359 7.21943 37.1831 7.37608 37.0774C7.53273 36.9188 7.63716 36.7074 7.63716 36.3903C7.63716 36.1788 7.58495 35.9674 7.48051 35.8088C7.32386 35.7031 7.115 35.5974 6.90613 35.5974ZM8.9948 35.4388H9.3081C9.67362 35.4388 9.93474 35.4916 10.1435 35.6503C10.3003 35.756 10.4046 35.8616 10.4569 36.0203C10.5613 36.1788 10.5613 36.3374 10.5613 36.5488C10.5613 36.8131 10.5091 37.0245 10.3524 37.1831C10.248 37.3416 10.0914 37.3945 9.93474 37.4474C9.77805 37.5003 9.6214 37.5003 9.41254 37.5003H8.31598V37.4474C8.42041 37.4474 8.47263 37.3945 8.47263 37.3416C8.47263 37.2888 8.52485 37.2888 8.52485 37.1831C8.52485 37.1831 8.52485 37.1303 8.52485 37.0245V35.2803C8.52485 35.1745 8.52485 35.0688 8.52485 35.016C8.52485 34.9103 8.42041 34.8574 8.26376 34.8574V34.8045L8.94258 34.6988V35.4388H8.9948ZM8.9948 35.6503V37.0245C8.9948 37.0774 8.9948 37.1303 9.04702 37.1831C9.09923 37.2359 9.20366 37.2888 9.36031 37.2888C9.6214 37.2888 9.8303 37.1831 9.98692 37.0245C10.0914 36.8659 10.1435 36.7074 10.1435 36.496C10.1435 36.2316 10.0391 36.0203 9.8303 35.8616C9.67362 35.7031 9.46475 35.6503 9.25588 35.6503C9.20366 35.5974 9.09923 35.6503 8.9948 35.6503ZM12.3889 37.0774C12.2845 37.1831 12.2322 37.2888 12.1278 37.3416C11.9711 37.4474 11.7623 37.5003 11.5534 37.5003C11.3445 37.5003 11.1879 37.4474 11.0835 37.3416C10.979 37.2359 10.9268 37.1303 10.9268 37.0245C10.9268 36.8131 11.0313 36.6545 11.1879 36.5488C11.3968 36.3903 11.7623 36.2845 12.3366 36.126C12.3366 36.0731 12.3366 36.0731 12.3366 36.0203C12.3366 35.8616 12.2845 35.8088 12.2322 35.756C12.18 35.7031 12.0756 35.6503 11.919 35.6503C11.6579 35.6503 11.449 35.7031 11.2924 35.8616C11.1879 35.9145 11.1356 36.0731 11.0313 36.2316L11.0835 35.5974C11.1356 35.6503 11.1356 35.6503 11.1879 35.6503C11.2401 35.6503 11.2924 35.6503 11.449 35.5974C11.6056 35.5445 11.8145 35.4916 12.0234 35.4916C12.2845 35.4916 12.4411 35.5445 12.5977 35.6503C12.65 35.7031 12.7022 35.756 12.7022 35.8616V36.126V36.9716C12.7022 37.1831 12.7544 37.3416 12.8066 37.3945C12.8589 37.4474 12.9111 37.5003 13.0155 37.5003V37.5531H12.4411C12.3889 37.5003 12.3366 37.4474 12.3366 37.3945C12.3889 37.2359 12.3889 37.1831 12.3889 37.0774ZM12.3366 36.2845C12.1278 36.3374 11.919 36.3903 11.8145 36.4431C11.5012 36.6016 11.3968 36.7603 11.3968 36.9716C11.3968 37.0774 11.449 37.1303 11.5012 37.2359C11.5534 37.2888 11.6056 37.2888 11.7101 37.2888C11.8667 37.2888 12.0234 37.2359 12.1278 37.1303C12.2322 37.0774 12.2845 36.9716 12.3366 36.8131C12.3366 36.7074 12.3889 36.6016 12.3889 36.4431V36.2845H12.3366ZM14.0076 34.6988V37.0245V37.2888C14.0076 37.3945 14.1121 37.4474 14.2687 37.4474V37.5003H13.381V37.4474C13.4855 37.4474 13.5376 37.3945 13.5376 37.3416C13.5376 37.2888 13.5899 37.2888 13.5899 37.1831C13.5899 37.1831 13.5899 37.1303 13.5899 37.0245V35.2803C13.5899 35.1745 13.5899 35.0688 13.5899 35.016C13.5899 34.9103 13.4855 34.8574 13.3288 34.8574V34.8045L14.0076 34.6988ZM18.446 35.016V36.866C18.446 37.1303 18.446 37.2888 18.4983 37.3416C18.5504 37.3945 18.5504 37.3945 18.6027 37.4474H18.7072V37.5003H17.6628V37.4474C17.715 37.4474 17.7672 37.4474 17.8194 37.3945C17.8717 37.3416 17.9239 37.2888 17.9239 37.1831C17.9239 37.1303 17.9239 37.0245 17.9239 36.866V35.016C17.715 35.016 17.5062 35.016 17.4017 35.1216C17.1928 35.2274 17.0362 35.3331 16.9839 35.5974H16.9317L17.0884 34.8045L17.1406 34.8574H17.2973H19.0204H19.177C19.177 34.8574 19.2293 34.8574 19.2293 34.8045L19.4382 35.5974H19.3859C19.3337 35.4388 19.2293 35.3331 19.177 35.2274C19.0204 35.0688 18.8115 35.016 18.5504 35.016C18.5504 35.016 18.4983 35.016 18.446 35.016ZM20.4303 35.9145C20.4825 35.8088 20.5347 35.7031 20.6391 35.6503C20.7958 35.5445 20.9524 35.4388 21.1091 35.4388H21.2658L21.1613 35.8088C21.0569 35.756 21.0046 35.7031 20.9003 35.7031C20.7958 35.7031 20.6914 35.756 20.5869 35.8616C20.5347 35.9145 20.4825 36.0731 20.4303 36.2845V36.7074V36.9716V37.2359C20.4303 37.3416 20.5347 37.3945 20.6914 37.3945V37.4474H19.7514V37.3945C19.8559 37.3945 19.9081 37.3416 19.9603 37.2888C19.9603 37.2359 20.0125 37.2359 20.0125 37.1303C20.0125 37.1303 20.0125 37.0774 20.0125 36.9716V35.9145C20.0125 35.8088 20.0125 35.7031 20.0125 35.6503C20.0125 35.5445 19.9081 35.4916 19.8037 35.4916V35.4388L20.378 35.386C20.4303 35.5974 20.4303 35.756 20.4303 35.9145ZM22.9366 37.0774C22.8322 37.1831 22.78 37.2888 22.6756 37.3416C22.519 37.4474 22.3623 37.5003 22.1012 37.5003C21.8924 37.5003 21.7357 37.4474 21.6313 37.3416C21.5268 37.2359 21.4746 37.1303 21.4746 37.0245C21.4746 36.8131 21.579 36.6545 21.7356 36.5488C21.9445 36.3903 22.3101 36.2845 22.8845 36.126C22.8845 36.0731 22.8845 36.0731 22.8845 36.0203C22.8845 35.8616 22.8322 35.8088 22.78 35.756C22.7278 35.7031 22.6234 35.6503 22.4667 35.6503C22.2056 35.6503 21.9968 35.7031 21.8401 35.8616C21.7356 35.9145 21.6835 36.0731 21.579 36.2316L21.6313 35.5974C21.6835 35.6503 21.6835 35.6503 21.7356 35.6503C21.7879 35.6503 21.8401 35.6503 21.9968 35.5974C22.1534 35.5445 22.3623 35.4916 22.5711 35.4916C22.8322 35.4916 22.9889 35.5445 23.1455 35.6503C23.1977 35.7031 23.25 35.756 23.25 35.8616V36.126V36.9716C23.25 37.1831 23.3022 37.3416 23.3544 37.3945C23.4066 37.4474 23.4589 37.5003 23.5632 37.5003V37.5531H22.9889C22.9366 37.5003 22.8845 37.4474 22.8845 37.3945C22.9366 37.2359 22.9366 37.1831 22.9366 37.0774ZM22.9366 36.2845C22.7278 36.3374 22.519 36.3903 22.4145 36.4431C22.1012 36.6016 21.9968 36.7603 21.9968 36.9716C21.9968 37.0774 22.049 37.1303 22.1012 37.2359C22.1534 37.2888 22.2056 37.2888 22.3101 37.2888C22.4667 37.2888 22.6234 37.2359 22.7278 37.1303C22.8322 37.0774 22.8845 36.9716 22.9366 36.8131C22.9366 36.7074 22.9889 36.6016 22.9889 36.4431V36.2845H22.9366ZM24.8165 37.1303C24.8687 37.0774 24.8687 36.9716 24.9209 36.866L25.2865 35.8616C25.3386 35.7031 25.3386 35.6503 25.3386 35.5974C25.3386 35.5445 25.2865 35.4916 25.182 35.4916V35.4388H25.7563V35.4916C25.7042 35.4916 25.652 35.5445 25.5997 35.5445C25.5475 35.5974 25.5475 35.6503 25.4431 35.8088L24.9209 37.0245C24.8687 37.1303 24.8687 37.1831 24.8165 37.2359V37.2888C24.8165 37.3416 24.8687 37.3945 24.9209 37.3945V37.4474H24.2421V37.3945C24.2943 37.3945 24.3465 37.3416 24.3465 37.2888C24.3465 37.2359 24.3465 37.2359 24.3465 37.1831L23.8244 35.756C23.7721 35.6503 23.7721 35.5974 23.72 35.5445C23.6677 35.4916 23.6677 35.4916 23.5632 35.4916V35.4388H24.3465V35.4916C24.2421 35.4916 24.1899 35.5445 24.1899 35.6503C24.1899 35.7031 24.1899 35.756 24.2421 35.8616L24.6076 36.866C24.7642 36.9716 24.8165 37.0774 24.8165 37.1303ZM28.0017 36.126L26.4352 36.5488C26.4874 36.7603 26.5396 36.9188 26.6441 37.0245C26.7485 37.1303 26.8007 37.1831 26.9573 37.2359C27.0618 37.2888 27.1662 37.2888 27.2707 37.2888C27.3751 37.2888 27.4796 37.2888 27.5317 37.2359C27.6362 37.1831 27.6884 37.1303 27.7928 37.0774C27.8451 37.0245 27.8973 36.9188 28.0017 36.8131H28.0539L27.7928 37.5003C27.7406 37.5003 27.7406 37.4474 27.6884 37.4474C27.6884 37.4474 27.6362 37.4474 27.5839 37.4474C27.4796 37.5003 27.3229 37.5003 27.2184 37.5003C26.8007 37.5003 26.4874 37.3945 26.2786 37.1831C26.0697 36.9716 25.9652 36.7603 25.9652 36.496C25.9652 36.1788 26.0697 35.9145 26.3307 35.7031C26.5396 35.5445 26.7485 35.4916 27.0096 35.4916C27.2707 35.4916 27.4796 35.5445 27.6362 35.7031C27.8451 35.756 27.9494 35.9145 28.0017 36.126ZM26.383 36.3903L27.4796 36.0731C27.3751 35.8088 27.2184 35.6503 26.9573 35.6503C26.8007 35.6503 26.6963 35.7031 26.5396 35.8088C26.4874 35.9145 26.383 36.126 26.383 36.3903ZM29.046 34.6988V37.0245V37.2888C29.046 37.3945 29.1504 37.4474 29.3072 37.4474V37.5003H28.3672V37.4474C28.4717 37.4474 28.5239 37.3945 28.5239 37.3416C28.5239 37.2888 28.5761 37.2888 28.5761 37.1831C28.5761 37.1831 28.5761 37.1303 28.5761 37.0245V35.2803C28.5761 35.1745 28.5761 35.0688 28.5761 35.016C28.5761 34.9103 28.4717 34.8574 28.315 34.8574V34.8045L29.046 34.6988ZM33.119 36.2845L32.8579 36.9716C32.8056 37.0774 32.8056 37.1303 32.8056 37.2359C32.8056 37.3416 32.8579 37.4474 33.0145 37.4474V37.5003H32.179V37.4474C32.2313 37.4474 32.2835 37.3945 32.3356 37.3945C32.3879 37.3416 32.4924 37.2359 32.5968 36.9716L33.2756 35.1745C33.3278 35.1216 33.3278 35.016 33.3278 35.016C33.3278 34.9631 33.2756 34.9103 33.2234 34.8574V34.8045H34.1111V34.8574C34.0066 34.9103 34.0066 34.9103 34.0066 35.016C34.0066 35.0688 34.0066 35.1216 34.0589 35.2274L34.7376 37.1303C34.7899 37.2888 34.8421 37.3416 34.8421 37.3945C34.8943 37.4474 34.9465 37.4474 34.9987 37.5003V37.5531H34.0589V37.5003C34.1111 37.5003 34.1632 37.4474 34.2155 37.3945C34.2677 37.3416 34.2677 37.2888 34.2677 37.2359C34.2677 37.0774 34.2155 36.9716 34.1111 36.8131C33.9544 36.6545 33.7977 36.496 33.5366 36.4431C33.38 36.3374 33.2756 36.2845 33.119 36.2845ZM33.1711 36.0731C33.4845 36.0731 33.7977 36.1788 34.0066 36.3903L33.5366 35.1216L33.1711 36.0731ZM36.6697 35.4916L36.7219 36.126H36.6697C36.6697 36.0731 36.6175 35.9674 36.6175 35.9674C36.5652 35.9145 36.5652 35.8616 36.5131 35.8088C36.3563 35.7031 36.1997 35.6503 35.9908 35.6503C35.8865 35.6503 35.782 35.6503 35.7298 35.7031C35.6253 35.756 35.5731 35.8088 35.5731 35.9145C35.5731 35.9674 35.6253 36.0203 35.6776 36.0731C35.7298 36.0731 35.782 36.126 35.9386 36.1788L36.3563 36.3374C36.5131 36.3903 36.6697 36.4431 36.7219 36.496C36.8263 36.6016 36.8786 36.7074 36.8786 36.866C36.8786 36.9716 36.8786 37.0774 36.8263 37.1303C36.7741 37.2359 36.7219 37.2888 36.6175 37.3416C36.4086 37.4474 36.1997 37.5003 35.9386 37.5003C35.782 37.5003 35.5731 37.4474 35.3642 37.3945C35.2598 37.3945 35.2076 37.3416 35.2076 37.3416C35.1554 37.3416 35.1554 37.3416 35.1032 37.3945L35.051 36.6016H35.1032C35.1554 36.7603 35.2076 36.8659 35.2598 36.9716C35.3642 37.0774 35.4687 37.1831 35.5731 37.1831C35.6776 37.2359 35.782 37.2359 35.8865 37.2359C36.0431 37.2359 36.1997 37.1831 36.252 37.1303C36.3563 37.0774 36.4086 36.9716 36.4086 36.866C36.4086 36.8131 36.3563 36.7074 36.3042 36.6545C36.252 36.6016 36.1997 36.6016 36.0953 36.5488L35.7298 36.4431C35.5209 36.3903 35.3642 36.2845 35.2598 36.2316C35.1554 36.1788 35.1554 36.0731 35.1554 35.9674C35.1554 35.8088 35.2076 35.6503 35.3642 35.5445C35.521 35.4388 35.6776 35.386 35.8865 35.386C36.0431 35.386 36.1997 35.386 36.4086 35.4388H36.5131C36.5652 35.5445 36.6175 35.4916 36.6697 35.4916ZM38.7062 35.4916L38.7583 36.126H38.7062C38.7062 36.0731 38.6539 35.9674 38.6539 35.9674C38.6017 35.9145 38.6017 35.8616 38.5494 35.8088C38.3928 35.7031 38.2362 35.6503 38.0273 35.6503C37.9229 35.6503 37.8184 35.6503 37.7662 35.7031C37.6618 35.756 37.6096 35.8088 37.6096 35.9145C37.6096 35.9674 37.6618 36.0203 37.7141 36.0731C37.7662 36.0731 37.8184 36.126 37.9751 36.1788L38.3928 36.3374C38.5494 36.3903 38.7062 36.4431 38.7583 36.496C38.8628 36.6016 38.915 36.7074 38.915 36.866C38.915 36.9716 38.915 37.0774 38.8628 37.1303C38.8106 37.2359 38.7583 37.2888 38.6539 37.3416C38.4973 37.4474 38.2884 37.5003 38.0273 37.5003C37.8707 37.5003 37.6618 37.4474 37.4529 37.3945C37.3485 37.3945 37.2963 37.3416 37.2963 37.3416C37.2441 37.3416 37.2441 37.3416 37.1918 37.3945L37.1396 36.6016H37.1918C37.2441 36.7603 37.2963 36.8659 37.3485 36.9716C37.4529 37.0774 37.5573 37.1831 37.6618 37.1831C37.7662 37.2359 37.8707 37.2359 37.9751 37.2359C38.1317 37.2359 38.2884 37.1831 38.3406 37.1303C38.4451 37.0774 38.4973 36.9716 38.4973 36.866C38.4973 36.8131 38.4451 36.7074 38.3928 36.6545C38.3406 36.6016 38.2884 36.6016 38.1839 36.5488L37.7662 36.496C37.5573 36.4431 37.4007 36.3374 37.2963 36.2845C37.1918 36.1788 37.1396 36.0731 37.1396 35.9674C37.1396 35.8088 37.1918 35.6503 37.3485 35.5445C37.5052 35.4388 37.6618 35.386 37.8707 35.386C38.0273 35.386 38.1839 35.386 38.3928 35.4388H38.4973C38.6017 35.5445 38.6539 35.4916 38.7062 35.4916ZM39.8549 35.4388V36.9716V37.2359C39.8549 37.3416 39.9593 37.3945 40.116 37.3945V37.4474H39.2283V37.3945C39.3327 37.3945 39.3849 37.3416 39.4372 37.2888C39.4372 37.2359 39.4894 37.2359 39.4894 37.1303C39.4894 37.1303 39.4894 37.0774 39.4894 36.9716V35.9145C39.4894 35.8088 39.4894 35.7031 39.4894 35.6503C39.4894 35.5445 39.3849 35.4916 39.2805 35.4916V35.4388H39.8549ZM39.646 34.5931C39.6983 34.5931 39.8027 34.646 39.8549 34.6988C39.9072 34.7516 39.9072 34.8045 39.9072 34.9103C39.9072 35.016 39.8549 35.0688 39.8027 35.1216C39.7504 35.1745 39.6983 35.2274 39.5938 35.2274C39.4894 35.2274 39.4372 35.1745 39.3849 35.1216C39.3327 35.0688 39.3327 35.016 39.3327 34.9103C39.3327 34.8045 39.3327 34.7516 39.3849 34.6988C39.4894 34.646 39.5416 34.5931 39.646 34.5931ZM41.9435 35.4916L41.9958 36.126H41.9435C41.9435 36.0731 41.8914 35.9674 41.8914 35.9674C41.8391 35.9145 41.8391 35.8616 41.7869 35.8088C41.6303 35.7031 41.4736 35.6503 41.2648 35.6503C41.1603 35.6503 41.0559 35.6503 41.0037 35.7031C40.8993 35.756 40.847 35.8088 40.847 35.9145C40.847 35.9674 40.8993 36.0203 40.9514 36.0731C41.0037 36.0731 41.0559 36.126 41.2125 36.1788L41.6303 36.3374C41.7869 36.3903 41.9435 36.4431 41.9958 36.496C42.1003 36.6016 42.1524 36.7074 42.1524 36.866C42.1524 36.9716 42.1524 37.0774 42.1003 37.1303C42.048 37.2359 41.9958 37.2888 41.8914 37.3416C41.7347 37.4474 41.5258 37.5003 41.2648 37.5003C41.1081 37.5003 40.8993 37.4474 40.6904 37.3945C40.5859 37.3945 40.5337 37.3416 40.5337 37.3416C40.4815 37.3416 40.4815 37.3416 40.4293 37.3945L40.377 36.6545H40.4293C40.4815 36.8131 40.5337 36.9188 40.5859 37.0245C40.6904 37.1303 40.7948 37.2359 40.8993 37.2359C41.0037 37.2888 41.1081 37.2888 41.2125 37.2888C41.3692 37.2888 41.5258 37.2359 41.578 37.1831C41.6825 37.1303 41.7347 37.0245 41.7347 36.9188C41.7347 36.8659 41.6825 36.7603 41.6303 36.7074C41.578 36.6545 41.5259 36.6545 41.4214 36.6016L41.0559 36.496C40.847 36.4431 40.6904 36.3374 40.5859 36.2845C40.4815 36.1788 40.4293 36.0731 40.4293 35.9674C40.4293 35.8088 40.4815 35.6503 40.6382 35.5445C40.7948 35.4388 40.9514 35.386 41.1603 35.386C41.317 35.386 41.4736 35.386 41.6825 35.4388H41.7869C41.8914 35.5445 41.9435 35.4916 41.9435 35.4916ZM43.6145 35.4388L43.5101 35.7031C43.5101 35.7031 43.4579 35.6503 43.4056 35.6503H43.0401V36.866C43.0401 36.9716 43.0401 37.0774 43.0924 37.1303C43.1445 37.1831 43.249 37.2359 43.3534 37.2359C43.5101 37.2359 43.6145 37.1831 43.719 37.0245L43.5623 37.3416C43.4056 37.3945 43.249 37.3945 43.0401 37.3945C42.8835 37.3945 42.7268 37.3416 42.6746 37.2359C42.6224 37.1831 42.6224 37.1303 42.5701 37.0245C42.5701 36.9716 42.5701 36.9188 42.5701 36.866V35.5974H42.3091V35.5445C42.4135 35.4916 42.518 35.4388 42.5701 35.386C42.6224 35.2803 42.6746 35.1745 42.6746 35.0688C42.6746 35.016 42.6746 34.9631 42.6746 34.8574C42.779 34.8045 42.9356 34.7516 43.0401 34.6988V35.4388H43.4056H43.5623C43.5623 35.4916 43.6145 35.4388 43.6145 35.4388ZM45.4421 37.0774C45.3376 37.1831 45.2855 37.2888 45.181 37.3416C45.0244 37.4474 44.8155 37.5003 44.6066 37.5003C44.3977 37.5003 44.2411 37.4474 44.1366 37.3416C44.0322 37.2359 43.98 37.1303 43.98 37.0245C43.98 36.8131 44.0845 36.6545 44.2411 36.5488C44.45 36.3903 44.8155 36.2845 45.3899 36.126C45.3899 36.0731 45.3899 36.0731 45.3899 36.0203C45.3899 35.8616 45.3376 35.8088 45.2855 35.756C45.2332 35.7031 45.1288 35.6503 44.9721 35.6503C44.7111 35.6503 44.5022 35.7031 44.3455 35.8616C44.2411 35.9145 44.1889 36.0731 44.0845 36.2316L44.1366 35.5974C44.1889 35.6503 44.1889 35.6503 44.2411 35.6503C44.2934 35.6503 44.3455 35.6503 44.5022 35.5974C44.6589 35.5445 44.8677 35.4916 45.0766 35.4916C45.3377 35.4916 45.4943 35.5445 45.651 35.6503C45.7032 35.7031 45.7554 35.756 45.7554 35.8616V36.126V36.9716C45.7554 37.1831 45.8076 37.3416 45.8598 37.3945C45.9121 37.4474 45.9642 37.5003 46.0687 37.5003V37.5531H45.4943C45.4421 37.5003 45.3899 37.4474 45.3899 37.3945C45.4421 37.2359 45.4421 37.1831 45.4421 37.0774ZM45.3899 36.2845C45.181 36.3374 44.9721 36.3903 44.8677 36.4431C44.5544 36.6016 44.45 36.7603 44.45 36.9716C44.45 37.0774 44.5022 37.1303 44.5544 37.2359C44.6066 37.2888 44.6589 37.2888 44.7632 37.2888C44.92 37.2888 45.0766 37.2359 45.181 37.1303C45.2855 37.0774 45.3376 36.9716 45.3899 36.8131C45.3899 36.7074 45.4421 36.6016 45.4421 36.4431V36.2845H45.3899ZM47.0608 35.9145C47.1652 35.8088 47.2697 35.7031 47.3219 35.6503C47.5308 35.4916 47.6874 35.4388 47.8963 35.4388C48.1052 35.4388 48.2618 35.4916 48.3141 35.6503C48.3662 35.756 48.3662 35.8616 48.3662 36.0731V37.0245V37.2888C48.3662 37.3945 48.4707 37.4474 48.6273 37.4474V37.5003H47.7396V37.4474C47.8441 37.4474 47.8963 37.3945 47.9485 37.3416C47.9485 37.2888 48.0007 37.2888 48.0007 37.1831C48.0007 37.1831 48.0007 37.1303 48.0007 37.0245V36.2316C48.0007 36.0731 48.0007 35.9145 47.9485 35.8616C47.8963 35.756 47.7918 35.7031 47.6874 35.7031C47.5308 35.7031 47.4263 35.756 47.3219 35.8616C47.2175 35.9674 47.1131 36.0731 47.1131 36.1788C47.1131 36.2316 47.0608 36.3374 47.0608 36.496V36.9716V37.2359C47.0608 37.3416 47.1652 37.3945 47.2697 37.3945V37.4474H46.382V37.3945C46.4865 37.3945 46.5386 37.3416 46.5908 37.2888C46.5908 37.2359 46.6431 37.2359 46.6431 37.1303C46.6431 37.1303 46.6431 37.0774 46.6431 36.9716V35.9145C46.6431 35.8088 46.6431 35.7031 46.6431 35.6503C46.6431 35.5445 46.5386 35.4916 46.4342 35.4916V35.4388L47.0086 35.386C47.0608 35.4388 47.0608 35.5445 47.0608 35.5445V35.9145ZM50.9249 36.9188L50.716 37.5003C50.6638 37.5003 50.6638 37.5003 50.6115 37.5003C50.6115 37.5003 50.5593 37.5003 50.5072 37.5003C50.3504 37.5003 50.1938 37.5531 50.1416 37.5531C49.9327 37.5531 49.7761 37.5003 49.6194 37.4474C49.4628 37.3945 49.3062 37.2888 49.2017 37.1831C48.9928 36.9716 48.8884 36.7603 48.8884 36.4431C48.8884 36.126 48.9928 35.9145 49.2017 35.756C49.3583 35.5974 49.6194 35.4916 49.8805 35.4916C49.9327 35.4916 50.0894 35.4916 50.246 35.5445H50.4027C50.4549 35.5445 50.5072 35.5445 50.5593 35.4916L50.6638 36.126C50.5072 35.8616 50.2983 35.7031 49.9849 35.7031C49.7761 35.7031 49.6194 35.756 49.515 35.9145C49.3583 36.0731 49.3062 36.2316 49.3062 36.496C49.3062 36.7074 49.3583 36.9188 49.515 37.0774C49.5672 37.1831 49.6717 37.2359 49.7761 37.2888C49.8805 37.3416 49.9849 37.3945 50.1416 37.3945C50.2983 37.3945 50.5072 37.3416 50.6115 37.2359C50.7682 37.0774 50.8727 36.9716 50.9249 36.9188ZM53.118 36.126L51.5514 36.5488C51.6037 36.7603 51.6559 36.9188 51.7603 37.0245C51.8648 37.1303 51.917 37.1831 52.0736 37.2359C52.178 37.2888 52.2825 37.2888 52.3869 37.2888C52.4914 37.2888 52.5958 37.2888 52.648 37.2359C52.7524 37.1831 52.8046 37.1303 52.9091 37.0774C52.9613 37.0245 53.0135 36.9188 53.118 36.8131H53.1701L52.9613 37.5003C52.9091 37.5003 52.9091 37.4474 52.8569 37.4474C52.8569 37.4474 52.8046 37.4474 52.7524 37.4474C52.648 37.4474 52.4914 37.5003 52.3869 37.5003C51.9692 37.5003 51.6559 37.3945 51.447 37.1831C51.2382 36.9716 51.1337 36.7603 51.1337 36.496C51.1337 36.1788 51.2382 35.9145 51.4993 35.7031C51.7081 35.5445 51.917 35.4916 52.178 35.4916C52.4391 35.4916 52.648 35.5445 52.8046 35.7031C52.9613 35.756 53.0658 35.9145 53.118 36.126ZM51.5514 36.3903L52.648 36.0731C52.5435 35.8088 52.3869 35.6503 52.1259 35.6503C51.9692 35.6503 51.8648 35.7031 51.7081 35.8088C51.6037 35.9145 51.5514 36.126 51.5514 36.3903ZM15.6263 35.5974C15.8352 35.5974 15.9918 35.756 15.9918 35.9674C15.9918 36.1788 15.8352 36.3374 15.6263 36.3374C15.4175 36.3374 15.2608 36.1788 15.2608 35.9674C15.2086 35.756 15.4175 35.5974 15.6263 35.5974ZM30.6648 35.5974C30.8736 35.5974 31.0303 35.756 31.0303 35.9674C31.0303 36.1788 30.8736 36.3374 30.6648 36.3374C30.4559 36.3374 30.2993 36.1788 30.2993 35.9674C30.2993 35.756 30.4559 35.5974 30.6648 35.5974Z" fill="#c9d8f7"/>
<path fill-rule="evenodd" clip-rule="evenodd" d="M27.7402 0.5C28.5234 0.5 29.2544 0.605715 29.9855 0.817143H25.5471C26.2258 0.605715 26.9569 0.5 27.7402 0.5ZM32.0219 1.76857C32.1786 1.87428 32.3352 1.98 32.4919 2.08572H22.9885C23.1451 1.98 23.3017 1.87428 23.4584 1.76857H32.0219ZM27.5835 3.03715C27.3747 3.14285 27.1658 3.30143 27.0091 3.46H21.6308C21.7352 3.30143 21.8919 3.19572 21.9963 3.03715H27.5835ZM26.0692 4.35857C25.9126 4.51715 25.8081 4.72857 25.7037 4.94H20.6909C20.7954 4.72857 20.8998 4.57 21.0042 4.35857H26.0692ZM25.286 5.68C25.1816 5.89143 25.1293 6.10285 25.0248 6.31428H20.0643C20.1165 6.10285 20.2209 5.89143 20.2731 5.68H25.286ZM24.8682 7.05428C24.816 7.26572 24.816 7.47715 24.7638 7.68857H19.8032C19.8554 7.47715 19.8554 7.26572 19.9076 7.05428H24.8682ZM24.7638 8.27C24.7638 8.53428 24.7638 8.74572 24.816 8.95715H19.751C19.751 8.85143 19.751 8.79857 19.751 8.69285C19.751 8.53428 19.751 8.37572 19.751 8.21715H24.7638V8.27ZM24.9205 9.53857C24.9727 9.80282 25.0771 10.0672 25.1816 10.3315H19.9076C19.8554 10.0672 19.8032 9.80282 19.8032 9.53857H24.9205ZM25.3904 10.7543C25.5471 11.0715 25.7037 11.3357 25.8603 11.6H20.2731C20.1688 11.3357 20.0643 11.0185 20.012 10.7543H25.3904ZM26.1214 12.0228C26.4347 12.3928 26.7481 12.71 27.1136 13.0272H20.8475C20.6909 12.71 20.482 12.3928 20.3776 12.0228H26.1214ZM27.5313 13.2385C28.4189 13.82 29.4633 14.1372 30.612 14.1372C31.7609 14.1372 32.8052 13.82 33.6929 13.2385H34.4239C34.1628 13.6085 33.9017 14.0315 33.5885 14.3485H21.8919C21.5786 13.9785 21.3175 13.6085 21.0564 13.2385H27.5313ZM34.0584 12.9743C34.4239 12.71 34.7895 12.34 35.0505 11.97C34.8938 12.2872 34.7372 12.6572 34.5806 12.9743H34.0584ZM33.3796 14.56C32.9619 14.9828 32.4919 15.3528 31.9697 15.7228H23.4584C22.9362 15.4057 22.4662 15.0357 22.0485 14.56H33.3796ZM31.6042 15.9343C30.4554 16.6215 29.15 16.9915 27.7402 16.9915C26.3303 16.9915 25.0248 16.6215 23.8761 15.9343H31.6042Z" fill="#c9d8f7"/>
<path d="M31.9714 13.2383C33.1826 13.2383 34.1644 12.2444 34.1644 11.0183C34.1644 9.79226 33.1826 8.79834 31.9714 8.79834C30.7602 8.79834 29.7783 9.79226 29.7783 11.0183C29.7783 12.2444 30.7602 13.2383 31.9714 13.2383Z" fill="#c9d8f7"/>
</g>
<defs>
<clipPath id="clip0_10706_4940">
<rect width="53" height="37" fill="white" transform="translate(0.683594 0.5)"/>
</clipPath>
</defs>
</svg>
