<svg width="97" height="38" viewBox="0 0 97 38" fill="none" xmlns="http://www.w3.org/2000/svg">
<g clip-path="url(#clip0_10706_4946)">
<path d="M35.9753 22.1183C36.5027 22.1183 36.9248 22.1711 37.2412 22.3297C37.6104 22.4354 37.8741 22.6468 38.0852 22.8583C38.2962 23.0697 38.4544 23.3868 38.5072 23.704C38.6126 24.0211 38.6654 24.3911 38.6654 24.7611V28.8311C38.4017 28.884 38.0852 28.9368 37.6104 29.0426C37.1358 29.0955 36.6082 29.1483 35.9753 29.1483C35.5533 29.1483 35.1841 29.0955 34.8676 29.0426C34.5511 28.9897 34.2346 28.8311 34.0236 28.6726C33.8126 28.514 33.6017 28.3026 33.4962 27.9855C33.3907 27.7211 33.2852 27.3511 33.2852 26.9811C33.2852 26.6111 33.338 26.294 33.4962 26.0297C33.6544 25.7655 33.8654 25.554 34.0764 25.3955C34.3401 25.2368 34.6039 25.1311 34.9731 25.0255C35.2895 24.9726 35.6588 24.9197 36.028 24.9197C36.1863 24.9197 36.3972 24.9197 36.5555 24.9726C36.7665 24.9726 36.9248 25.0255 37.1357 25.0783V24.814C37.1357 24.6555 37.1358 24.444 37.083 24.2855C37.0303 24.1268 36.9775 23.9683 36.872 23.8626C36.7664 23.7568 36.6082 23.6511 36.45 23.5983C36.2918 23.5455 36.0808 23.4926 35.8171 23.4926C35.4478 23.4926 35.1313 23.4926 34.8149 23.5454C34.4984 23.5983 34.2873 23.6511 34.0764 23.704L33.8654 22.4355C34.0764 22.3826 34.3401 22.2768 34.7094 22.224C35.1313 22.1183 35.5533 22.1183 35.9753 22.1183ZM36.0808 27.8797C36.5555 27.8797 36.9248 27.8797 37.1885 27.8268V26.1355C37.083 26.1355 36.9775 26.0826 36.8192 26.0826C36.661 26.0826 36.5027 26.0297 36.2918 26.0297C36.1335 26.0297 35.9226 26.0297 35.7643 26.0826C35.606 26.0826 35.4478 26.1355 35.2895 26.2411C35.1313 26.294 35.0258 26.3997 34.9731 26.5055C34.8676 26.6111 34.8676 26.7697 34.8676 26.9811C34.8676 27.3511 34.9731 27.6155 35.2368 27.7211C35.395 27.774 35.7116 27.8797 36.0808 27.8797Z" fill="#c9d8f7"/>
<path d="M42.2515 27.8273C42.6735 27.8273 42.9372 27.7745 43.1482 27.6687C43.3592 27.563 43.4119 27.4045 43.4119 27.1402C43.4119 26.9287 43.3064 26.7173 43.0955 26.6116C42.8845 26.453 42.568 26.2945 42.0933 26.1359C41.8295 26.0302 41.5658 25.9245 41.3021 25.8187C41.0911 25.713 40.8801 25.5545 40.7218 25.3959C40.5636 25.2373 40.4054 25.0787 40.2999 24.8145C40.1944 24.603 40.1417 24.3387 40.1417 24.0216C40.1417 23.3873 40.3526 22.9116 40.8273 22.5945C41.3021 22.2245 41.8823 22.0659 42.6735 22.0659C43.0427 22.0659 43.4647 22.1187 43.7812 22.1716C44.1504 22.2245 44.4141 22.3302 44.5724 22.383L44.3087 23.6516C44.1504 23.5987 43.9395 23.493 43.6757 23.4402C43.4119 23.3873 43.0955 23.3345 42.779 23.3345C42.4626 23.3345 42.1987 23.3873 41.9878 23.493C41.7768 23.5987 41.6713 23.7573 41.6713 23.9687C41.6713 24.0745 41.6713 24.1802 41.7241 24.2859C41.7768 24.3916 41.8295 24.4445 41.935 24.4973C42.0405 24.5502 42.146 24.6559 42.3043 24.7087C42.4626 24.7616 42.6208 24.8673 42.8845 24.9202C43.2537 25.0787 43.5703 25.1845 43.834 25.343C44.0977 25.4487 44.3087 25.6073 44.4669 25.7659C44.6251 25.9245 44.7307 26.1359 44.8362 26.3473C44.8889 26.5587 44.9417 26.823 44.9417 27.1402C44.9417 27.7745 44.7307 28.2502 44.2559 28.5673C43.7812 28.8845 43.0955 29.043 42.2515 29.043C41.6713 29.043 41.1966 28.9902 40.8273 28.8845C40.4581 28.7787 40.1944 28.7259 40.0889 28.673L40.3526 27.4573C40.5636 27.563 40.8801 27.6159 41.1966 27.7216C41.4603 27.7745 41.8295 27.8273 42.2515 27.8273Z" fill="#c9d8f7"/>
<path d="M48.0542 27.8273C48.4762 27.8273 48.7399 27.7745 48.951 27.6687C49.1619 27.563 49.2147 27.4045 49.2147 27.1402C49.2147 26.9287 49.1092 26.7173 48.8982 26.6116C48.6871 26.453 48.3707 26.2945 47.896 26.1359C47.6322 26.0302 47.3685 25.9245 47.1048 25.8187C46.8938 25.713 46.6828 25.5545 46.5246 25.3959C46.3662 25.2373 46.208 25.0787 46.1025 24.8145C45.9971 24.603 45.9443 24.3387 45.9443 24.0216C45.9443 23.3873 46.1553 22.9116 46.6301 22.5945C47.1048 22.2245 47.685 22.0659 48.4762 22.0659C48.8454 22.0659 49.2674 22.1187 49.5839 22.1716C49.9531 22.2245 50.2169 22.3302 50.3751 22.383L50.1114 23.6516C49.9531 23.5987 49.7421 23.493 49.4784 23.4402C49.2147 23.3873 48.8982 23.3345 48.5817 23.3345C48.2652 23.3345 48.0015 23.3873 47.7905 23.493C47.5794 23.5987 47.474 23.7573 47.474 23.9687C47.474 24.0745 47.474 24.1802 47.5267 24.2859C47.5794 24.3916 47.6322 24.4445 47.7378 24.4973C47.8433 24.5502 47.9487 24.6559 48.107 24.7087C48.2652 24.7616 48.4234 24.8673 48.6871 24.9202C49.0564 25.0787 49.3729 25.1845 49.6366 25.343C49.9003 25.4487 50.1114 25.6073 50.2696 25.7659C50.4279 25.9245 50.5333 26.1359 50.6388 26.3473C50.6916 26.5587 50.7443 26.823 50.7443 27.1402C50.7443 27.7745 50.5333 28.2502 50.0586 28.5673C49.5839 28.8845 48.8982 29.043 48.0542 29.043C47.474 29.043 46.9993 28.9902 46.6301 28.8845C46.2608 28.7787 45.9971 28.7259 45.8916 28.673L46.1553 27.4573C46.3663 27.563 46.6828 27.6159 46.9993 27.7216C47.3157 27.7745 47.685 27.8273 48.0542 27.8273Z" fill="#c9d8f7"/>
<path d="M53.9615 21.0082C53.9615 21.3254 53.8559 21.5369 53.6976 21.6954C53.4867 21.854 53.2757 21.9597 53.012 21.9597C52.7483 21.9597 52.5372 21.854 52.3262 21.6954C52.1153 21.5369 52.0625 21.2726 52.0625 21.0082C52.0625 20.6912 52.168 20.4797 52.3262 20.3212C52.5372 20.1626 52.7483 20.0569 53.012 20.0569C53.2757 20.0569 53.4867 20.1626 53.6976 20.3212C53.8559 20.4797 53.9615 20.744 53.9615 21.0082ZM53.8031 28.9369H52.2735V22.2769C52.2735 22.2769 52.5372 22.4882 53.012 22.4882C53.5394 22.4882 53.8031 22.2769 53.8031 22.2769V28.9369Z" fill="#c9d8f7"/>
<path d="M57.443 27.8273C57.8649 27.8273 58.1287 27.7745 58.3396 27.6687C58.5506 27.563 58.6033 27.4045 58.6033 27.1402C58.6033 26.9287 58.4979 26.7173 58.2869 26.6116C58.0759 26.453 57.7595 26.2945 57.2847 26.1359C57.021 26.0302 56.7572 25.9245 56.4935 25.8187C56.2826 25.713 56.0715 25.5545 55.9133 25.3959C55.755 25.2373 55.5968 25.0787 55.4913 24.8145C55.3858 24.603 55.3331 24.3387 55.3331 24.0216C55.3331 23.3873 55.5441 22.9116 56.0187 22.5945C56.4935 22.2245 57.0737 22.0659 57.8649 22.0659C58.2341 22.0659 58.6561 22.1187 58.9726 22.1716C59.3418 22.2245 59.6056 22.3302 59.7638 22.383L59.5001 23.6516C59.3418 23.5987 59.1309 23.493 58.8672 23.4402C58.6034 23.3873 58.2869 23.3345 57.9704 23.3345C57.654 23.3345 57.3902 23.3873 57.1792 23.493C56.9682 23.5987 56.8627 23.7573 56.8627 23.9687C56.8627 24.0745 56.8627 24.1802 56.9155 24.2859C56.9682 24.3916 57.021 24.4445 57.1264 24.4973C57.2319 24.5502 57.3374 24.6559 57.4957 24.7087C57.654 24.7616 57.8122 24.8673 58.0759 24.9202C58.4451 25.0787 58.7617 25.1845 59.0254 25.343C59.2891 25.4487 59.5001 25.6073 59.6583 25.7659C59.8165 25.9245 59.9221 26.1359 60.0276 26.3473C60.0803 26.5587 60.1331 26.823 60.1331 27.1402C60.1331 27.7745 59.9221 28.2502 59.4473 28.5673C58.9726 28.8845 58.2869 29.043 57.443 29.043C56.8627 29.043 56.388 28.9902 56.0187 28.8845C55.6495 28.7787 55.3858 28.7259 55.2803 28.673L55.5441 27.4045C55.755 27.5102 56.0715 27.563 56.388 27.6687C56.6518 27.7745 57.021 27.8273 57.443 27.8273Z" fill="#c9d8f7"/>
<path d="M61.5039 20.4802L63.0336 20.2159V22.2245H65.4072V23.493H63.0336V26.2416C63.0336 26.7702 63.139 27.1402 63.2974 27.4045C63.4556 27.6159 63.7721 27.7745 64.1413 27.7745C64.405 27.7745 64.6688 27.7216 64.8798 27.6688C65.0907 27.6159 65.249 27.563 65.4072 27.5102L65.671 28.7259C65.5127 28.7788 65.249 28.8845 64.9852 28.9373C64.7215 29.043 64.3522 29.043 63.983 29.043C63.5083 29.043 63.0863 28.9902 62.7699 28.8316C62.4534 28.7258 62.1897 28.5145 62.0314 28.2502C61.8204 27.9859 61.7149 27.7216 61.6622 27.3516C61.6094 26.9816 61.5567 26.6116 61.5567 26.1888V20.4802H61.5039Z" fill="#c9d8f7"/>
<path d="M69.152 22.1183C69.6795 22.1183 70.1015 22.1711 70.4179 22.3297C70.7872 22.4354 71.051 22.6468 71.2619 22.8583C71.4729 23.0697 71.6311 23.3868 71.6839 23.704C71.7894 24.0211 71.8422 24.3911 71.8422 24.7611V28.8311C71.5784 28.884 71.2619 28.9368 70.7872 29.0426C70.3124 29.0955 69.785 29.1483 69.152 29.1483C68.7301 29.1483 68.3609 29.0955 68.0443 29.0426C67.7278 28.9897 67.4114 28.8311 67.2004 28.6726C66.9895 28.514 66.7784 28.3026 66.6729 27.9855C66.5147 27.7211 66.4619 27.3511 66.4619 26.9811C66.4619 26.6111 66.5147 26.294 66.6729 26.0297C66.8311 25.7655 67.0422 25.554 67.2532 25.3955C67.5169 25.2368 67.7806 25.1311 68.1498 25.0255C68.4663 24.9726 68.8355 24.9197 69.2047 24.9197C69.363 24.9197 69.574 24.9197 69.7323 24.9726C69.9432 24.9726 70.1015 25.0255 70.3125 25.0783V24.814C70.3125 24.6555 70.3124 24.444 70.2597 24.2855C70.207 24.1268 70.1542 23.9683 70.0487 23.8626C69.9433 23.7568 69.785 23.6511 69.6268 23.5983C69.4686 23.5455 69.2575 23.4926 68.9938 23.4926C68.6246 23.4926 68.3081 23.4926 67.9916 23.5454C67.6751 23.5983 67.4641 23.6511 67.2532 23.704L67.0422 22.4355C67.2532 22.3826 67.5169 22.2768 67.8861 22.224C68.3081 22.1183 68.7301 22.1183 69.152 22.1183ZM69.2575 27.8797C69.7323 27.8797 70.1015 27.8797 70.3652 27.8268V26.1355C70.2597 26.1355 70.1542 26.0826 69.996 26.0826C69.8378 26.0826 69.6795 26.0297 69.4686 26.0297C69.3103 26.0297 69.152 26.0297 68.941 26.0826C68.7828 26.0826 68.6246 26.1355 68.4664 26.2411C68.3081 26.294 68.2026 26.3997 68.1498 26.5055C68.0443 26.6111 68.0443 26.7697 68.0443 26.9811C68.0443 27.3511 68.1499 27.6155 68.4136 27.7211C68.5718 27.774 68.8883 27.8797 69.2575 27.8797Z" fill="#c9d8f7"/>
<path d="M73.7422 22.4883C74.0587 22.3826 74.4279 22.3297 74.9027 22.224C75.3774 22.1711 75.9049 22.1183 76.4851 22.1183C77.0126 22.1183 77.4873 22.1711 77.8565 22.3297C78.2258 22.4883 78.4895 22.6997 78.7532 22.964C78.9642 23.2283 79.1224 23.5454 79.2279 23.9154C79.3334 24.2854 79.3862 24.7083 79.3862 25.184V28.9368H77.8565V25.3954C77.8565 25.0254 77.8565 24.7083 77.8037 24.4968C77.751 24.2326 77.6983 24.0211 77.5928 23.8626C77.4873 23.704 77.3291 23.5983 77.1708 23.4926C77.0126 23.4397 76.7488 23.3868 76.4851 23.3868C76.2741 23.3868 76.0631 23.3868 75.8522 23.4397C75.6411 23.4397 75.4829 23.4926 75.3774 23.4926V28.884H73.8477V22.4883H73.7422Z" fill="#c9d8f7"/>
<path d="M80.8613 25.6068C80.8613 25.1311 80.9141 24.6555 81.0723 24.2326C81.2306 23.8097 81.4416 23.4397 81.7053 23.1226C81.969 22.8054 82.3382 22.5411 82.7603 22.3826C83.1822 22.224 83.6043 22.1183 84.1317 22.1183C84.7647 22.1183 85.3449 22.224 85.9251 22.4883L85.6086 23.7568C85.4504 23.704 85.2394 23.5983 85.0284 23.5454C84.8174 23.4926 84.5536 23.4926 84.2899 23.4926C83.7097 23.4926 83.235 23.704 82.9185 24.074C82.602 24.444 82.4438 24.9726 82.4438 25.6597C82.4438 26.3468 82.602 26.8755 82.8658 27.2455C83.1822 27.6155 83.657 27.8268 84.3954 27.8268C84.6591 27.8268 84.9229 27.8268 85.1866 27.774C85.4504 27.7211 85.6613 27.6683 85.8723 27.5626L86.0834 28.8311C85.9251 28.9368 85.6613 28.9897 85.2921 29.0426C84.9229 29.0955 84.6064 29.1483 84.2372 29.1483C83.657 29.1483 83.1822 29.0426 82.7603 28.884C82.3382 28.7255 81.969 28.4611 81.7053 28.144C81.4416 27.8268 81.2306 27.4568 81.0723 27.034C80.9141 26.5583 80.8613 26.1355 80.8613 25.6068Z" fill="#c9d8f7"/>
<path d="M86.874 25.6597C86.874 25.0783 86.9795 24.5497 87.1377 24.1268C87.296 23.704 87.5598 23.334 87.8235 23.0168C88.0872 22.6997 88.4564 22.4883 88.8257 22.3297C89.1949 22.1711 89.5641 22.1183 89.9861 22.1183C90.8828 22.1183 91.6213 22.3826 92.1487 22.964C92.6762 23.5455 92.94 24.3911 92.94 25.5011V25.7655V26.0297H88.562C88.6147 26.5583 88.773 26.9811 89.1422 27.2983C89.4586 27.6155 89.9861 27.7211 90.6191 27.7211C90.9884 27.7211 91.3576 27.6683 91.6213 27.6155C91.9377 27.5626 92.2015 27.4568 92.3598 27.404L92.5708 28.6726C92.4653 28.7255 92.3598 28.7783 92.2016 28.8311C92.0432 28.884 91.885 28.9368 91.674 28.9368C91.4631 28.9897 91.2521 28.9897 91.0411 29.0426C90.83 29.0426 90.6191 29.0955 90.3553 29.0955C89.7752 29.0955 89.2476 28.9897 88.8257 28.8311C88.4036 28.6726 88.0344 28.4083 87.7707 28.0911C87.507 27.774 87.296 27.404 87.1377 26.9811C86.9267 26.6111 86.874 26.1355 86.874 25.6597ZM91.3576 24.9726C91.3576 24.7611 91.3048 24.5497 91.2521 24.3911C91.1993 24.1797 91.0938 24.0211 90.9884 23.9155C90.8828 23.7568 90.7245 23.6511 90.5663 23.5983C90.4081 23.4926 90.1971 23.4926 89.9861 23.4926C89.7752 23.4926 89.5641 23.5455 89.3531 23.6511C89.1949 23.7568 89.0367 23.8626 88.8784 24.0211C88.773 24.1797 88.6675 24.3383 88.6147 24.4968C88.562 24.7083 88.5092 24.8668 88.4564 25.0783H91.3576V24.9726Z" fill="#c9d8f7"/>
<path d="M37.8193 10.9655C38.1359 10.8598 38.6106 10.7541 39.138 10.7012C39.6655 10.5955 40.2984 10.5955 40.9315 10.5955C41.5644 10.5955 42.0919 10.7012 42.5138 10.8598C42.9359 11.0183 43.2523 11.2826 43.5161 11.5998C43.7798 11.9169 43.938 12.2869 44.0436 12.7098C44.1491 13.1326 44.2018 13.6083 44.2018 14.1369V18.4183H42.4611V14.4012C42.4611 13.9783 42.4084 13.6612 42.3556 13.3441C42.3029 13.0798 42.1974 12.8155 42.0919 12.6569C41.9864 12.4983 41.8282 12.3398 41.6172 12.2869C41.4061 12.1812 41.1424 12.1812 40.826 12.1812C40.615 12.1812 40.3512 12.1812 40.1402 12.2341C39.8765 12.2869 39.7183 12.2869 39.6128 12.2869V18.4712H37.8193V10.9655Z" fill="#c9d8f7"/>
<path d="M46.2598 8.69276L48.0531 8.37561V10.7013H50.7433V12.1813H48.0531V15.2999C48.0531 15.9342 48.1586 16.357 48.3696 16.6213C48.5807 16.8856 48.8971 16.9913 49.3718 16.9913C49.6884 16.9913 49.9521 16.9385 50.2158 16.8856C50.4795 16.8327 50.6378 16.7799 50.796 16.6742L51.1126 18.1013C50.9015 18.207 50.6378 18.2599 50.3213 18.3656C50.0048 18.4713 49.5828 18.5242 49.1609 18.5242C48.6334 18.5242 48.1586 18.4713 47.7894 18.3127C47.4202 18.1542 47.1564 17.9427 46.9454 17.6785C46.7345 17.4142 46.5762 17.0442 46.4708 16.6742C46.3653 16.3042 46.3653 15.8285 46.3653 15.2999V8.69276H46.2598Z" fill="#c9d8f7"/>
<path d="M51.9033 14.6126C51.9033 13.9255 52.0088 13.3441 52.2198 12.8683C52.4309 12.3398 52.6946 11.9169 53.011 11.5998C53.3275 11.2826 53.6968 11.0183 54.1715 10.8598C54.5934 10.7012 55.0155 10.5955 55.4901 10.5955C56.5451 10.5955 57.3364 10.9126 57.9693 11.5998C58.5495 12.2341 58.866 13.2383 58.866 14.5069V14.8241V15.1412H53.8023C53.855 15.7755 54.066 16.2512 54.4352 16.5683C54.8045 16.8855 55.3847 17.0969 56.1232 17.0969C56.5451 17.0969 56.967 17.0441 57.2836 16.9912C57.6528 16.9383 57.9165 16.8326 58.1275 16.7269L58.3386 18.1541C58.233 18.2069 58.1275 18.2598 57.9165 18.3126C57.7583 18.3655 57.5473 18.4183 57.3363 18.4712C57.1254 18.5241 56.8616 18.5769 56.6506 18.5769C56.3869 18.6298 56.1232 18.6298 55.8594 18.6298C55.1737 18.6298 54.5934 18.5241 54.1187 18.3126C53.644 18.1012 53.222 17.8369 52.9056 17.4669C52.5891 17.0969 52.3254 16.6741 52.1671 16.1983C51.9561 15.7226 51.9033 15.1412 51.9033 14.6126ZM57.0198 13.8198C57.0198 13.5555 56.9671 13.3441 56.9143 13.1326C56.8616 12.9212 56.7561 12.7098 56.5979 12.5512C56.4396 12.3926 56.2814 12.2869 56.1232 12.1812C55.9121 12.0755 55.7011 12.0226 55.4374 12.0226C55.1737 12.0226 54.91 12.0755 54.699 12.1812C54.4879 12.2869 54.3297 12.3926 54.1715 12.6041C54.0132 12.7626 53.9078 12.9741 53.855 13.1855C53.8023 13.3969 53.7495 13.6083 53.6968 13.8198H57.0198Z" fill="#c9d8f7"/>
<path d="M65.0372 12.3403C64.8789 12.2874 64.668 12.2345 64.4042 12.1817C64.1404 12.1288 63.824 12.076 63.5075 12.076C63.2965 12.076 63.0856 12.076 62.8745 12.1288C62.6635 12.1817 62.5053 12.1817 62.3998 12.2345V18.366H60.6064V11.0717C60.9229 10.966 61.3976 10.8074 61.8724 10.7016C62.3998 10.596 62.9272 10.5431 63.5603 10.5431H63.9822C64.1404 10.5431 64.2988 10.596 64.457 10.596C64.6152 10.596 64.7734 10.6488 64.9317 10.7016C65.0899 10.7545 65.1954 10.7545 65.3009 10.8074L65.0372 12.3403Z" fill="#c9d8f7"/>
<path d="M70.8947 14.3483C70.8947 13.5555 70.7892 12.9741 70.5781 12.6041C70.3671 12.2341 69.9979 12.0755 69.4704 12.0755C69.2594 12.0755 69.0485 12.0755 68.8375 12.1283C68.6265 12.1812 68.4156 12.1812 68.31 12.1812V18.3655H66.5166V10.9655C66.8331 10.8598 67.3079 10.7541 67.8353 10.7012C68.3628 10.5955 68.943 10.5955 69.576 10.5955C70.1034 10.5955 70.5254 10.6483 70.8947 10.8069C71.2111 10.9655 71.5276 11.1241 71.7386 11.3355C71.844 11.2826 72.0024 11.1769 72.1606 11.0712C72.3188 10.9655 72.5298 10.9126 72.7408 10.8069C72.9517 10.7541 73.1628 10.6483 73.3738 10.6483C73.5848 10.5955 73.8485 10.5955 74.0594 10.5955C74.6397 10.5955 75.1671 10.7012 75.5364 10.8598C75.9057 11.0183 76.2221 11.2826 76.4331 11.5998C76.644 11.9169 76.8024 12.2869 76.9079 12.7098C77.0134 13.1326 77.0134 13.6083 77.0134 14.1369V18.4183H75.2199V14.4012C75.2199 13.6083 75.1144 13.0269 74.9034 12.6569C74.6925 12.2869 74.3232 12.1283 73.7957 12.1283C73.532 12.1283 73.2683 12.1812 73.0045 12.2869C72.7408 12.3926 72.5826 12.4455 72.4243 12.5512C72.4771 12.8155 72.5298 13.0798 72.5826 13.3441C72.6353 13.6083 72.6353 13.9255 72.6353 14.2426V18.4712H70.8419V14.3483H70.8947Z" fill="#c9d8f7"/>
<path d="M81.7068 10.5431C82.287 10.5431 82.7617 10.596 83.1838 10.7545C83.6057 10.9131 83.9222 11.1245 84.1332 11.3888C84.397 11.6531 84.5552 11.9703 84.6607 12.3403C84.7662 12.7103 84.8189 13.1331 84.8189 13.556V18.2074C84.5552 18.2603 84.1332 18.3131 83.6057 18.4188C83.0783 18.5245 82.4453 18.5245 81.7596 18.5245C81.2848 18.5245 80.8629 18.4717 80.4936 18.4188C80.1244 18.3131 79.8079 18.2074 79.5442 17.996C79.2804 17.7845 79.0694 17.5731 78.9112 17.256C78.753 16.9388 78.7002 16.5688 78.7002 16.0931C78.7002 15.6703 78.8057 15.3003 78.9639 14.9831C79.1222 14.666 79.386 14.4545 79.6497 14.2431C79.9662 14.0317 80.2826 13.926 80.6519 13.8203C81.0211 13.7145 81.4431 13.7145 81.8651 13.7145C82.0761 13.7145 82.287 13.7145 82.498 13.7674C82.709 13.7674 82.92 13.8203 83.1838 13.8731V13.556C83.1838 13.3445 83.1838 13.1331 83.131 12.9745C83.0783 12.7631 82.9728 12.6045 82.8672 12.4988C82.7617 12.3403 82.6035 12.2345 82.3925 12.1817C82.1816 12.1288 81.9178 12.076 81.654 12.076C81.2321 12.076 80.8629 12.1288 80.5464 12.1817C80.2299 12.2345 79.9134 12.2874 79.7025 12.3931L79.4915 10.966C79.7024 10.9131 80.0189 10.8074 80.4936 10.7545C80.7574 10.596 81.2321 10.5431 81.7068 10.5431ZM81.8651 17.1503C82.3925 17.1503 82.8145 17.0974 83.131 17.0445V15.0888C83.0255 15.036 82.8672 15.036 82.709 14.9831C82.498 14.9303 82.3398 14.9303 82.0761 14.9303C81.8651 14.9303 81.7068 14.9303 81.4958 14.9831C81.2848 15.036 81.1266 15.0888 80.9684 15.1417C80.8101 15.1945 80.7047 15.3531 80.5992 15.4588C80.4936 15.6174 80.4408 15.776 80.4408 15.9874C80.4408 16.4103 80.5464 16.6745 80.8101 16.8331C81.0739 17.0445 81.4431 17.1503 81.8651 17.1503Z" fill="#c9d8f7"/>
<path d="M86.5586 14.5603C86.5586 13.9788 86.6641 13.4503 86.8223 12.9745C86.9805 12.4988 87.2443 12.076 87.5608 11.706C87.8773 11.336 88.2992 11.0717 88.774 10.8603C89.2487 10.6488 89.7762 10.5431 90.3564 10.5431C91.0949 10.5431 91.7806 10.6488 92.4136 10.9131L92.0444 12.3403C91.8333 12.2345 91.6223 12.1817 91.3586 12.1288C91.0949 12.076 90.8311 12.0231 90.5146 12.0231C89.829 12.0231 89.3014 12.2345 88.9322 12.6574C88.563 13.0803 88.4047 13.7145 88.4047 14.5074C88.4047 15.2474 88.563 15.8817 88.9322 16.3045C89.2487 16.7274 89.829 16.9917 90.6728 16.9917C90.9894 16.9917 91.2531 16.9388 91.5696 16.886C91.886 16.8331 92.0971 16.7803 92.3081 16.6745L92.5718 18.1545C92.3608 18.2603 92.0971 18.366 91.6751 18.4188C91.3059 18.4717 90.8839 18.5245 90.4619 18.5245C89.829 18.5245 89.2487 18.4188 88.774 18.2074C88.2992 17.996 87.8773 17.7317 87.5608 17.3617C87.2443 16.9917 87.0333 16.5688 86.8751 16.0931C86.6641 15.6703 86.5586 15.1417 86.5586 14.5603Z" fill="#c9d8f7"/>
<path d="M35.7633 9.32704C35.7633 9.64419 35.6578 9.90843 35.4467 10.1199C35.2357 10.3313 34.972 10.4371 34.7083 10.4371C34.3918 10.4371 34.128 10.3313 33.9171 10.1199C33.7061 9.90843 33.6006 9.64419 33.6006 9.32704C33.6006 9.00991 33.7061 8.69276 33.9171 8.53419C34.128 8.32276 34.3918 8.21704 34.7083 8.21704C35.0248 8.21704 35.2357 8.32276 35.4467 8.53419C35.6578 8.69276 35.7633 8.95704 35.7633 9.32704ZM35.605 18.3656H33.8643V10.7542C33.8643 10.7542 34.128 11.0184 34.7083 11.0184C35.2885 11.0184 35.605 10.7542 35.605 10.7542V18.3656Z" fill="#c9d8f7"/>
<path d="M16.3517 9.37987C18.9152 9.37987 20.9934 7.51034 20.9934 5.20415C20.9934 2.89797 18.9152 1.02844 16.3517 1.02844C13.7881 1.02844 11.71 2.89797 11.71 5.20415C11.71 7.51034 13.7881 9.37987 16.3517 9.37987Z" fill="#c9d8f7"/>
<path d="M26.5854 23.4933H22.8931C22.4711 23.4933 22.2601 23.1761 22.2074 22.859V15.6175C23.737 15.459 25.1613 15.4061 26.1634 15.4061C27.9569 15.4061 27.8514 13.239 27.8514 13.239V10.5433C27.8514 10.1733 27.5877 9.909 27.2184 9.909C9.44256 10.0147 10.3392 15.3533 10.3392 15.3533V19.4233V22.9647C10.2865 23.2818 10.0755 23.599 9.65356 23.599H5.96125C5.48652 23.599 4.69531 23.9161 4.69531 24.9733V28.409C4.69531 28.779 4.95905 29.0961 5.38103 29.0961H10.3392H22.2074H27.1656C27.5877 29.0961 27.8514 28.779 27.8514 28.409C27.8514 28.1975 27.8514 24.9733 27.8514 24.9733C27.8514 23.8104 27.0601 23.4933 26.5854 23.4933Z" fill="#c9d8f7"/>
<path d="M9.70651 15.1938C9.70651 15.1938 9.02079 12.3396 15.2977 10.701C12.8713 10.1196 9.97028 9.85528 5.27574 9.80237C4.95926 9.80237 4.69551 10.0667 4.64277 10.3838V13.1853C4.64277 13.1853 4.53728 15.3524 6.33068 15.3524C7.28014 15.3524 8.28233 15.3524 9.65376 15.511L9.70651 15.1938Z" fill="#c9d8f7"/>
<path d="M8.22933 35.1735C8.22933 35.4906 8.17657 35.7021 8.12383 35.9663C8.01833 36.1778 7.91284 36.3892 7.7546 36.4949C7.59635 36.6535 7.43811 36.7592 7.22712 36.8121C7.01614 36.8649 6.80515 36.9178 6.54141 36.9178C6.33042 36.9178 6.06669 36.8649 5.90844 36.8121C5.69746 36.7592 5.53921 36.6006 5.38097 36.4949C5.22273 36.3363 5.11724 36.1778 5.01174 35.9663C4.90624 35.7549 4.90625 35.4906 4.90625 35.1735C4.90625 34.8563 4.95899 34.6449 5.06448 34.3806C5.16998 34.1692 5.27548 33.9578 5.43371 33.7992C5.59196 33.6406 5.7502 33.5349 5.96119 33.4821C6.17218 33.4292 6.38317 33.3763 6.59416 33.3763C6.80515 33.3763 7.06888 33.4292 7.22712 33.4821C7.43811 33.5349 7.59635 33.6934 7.7546 33.7992C7.91284 33.9578 8.01833 34.1163 8.12383 34.3806C8.17657 34.6449 8.22933 34.9092 8.22933 35.1735ZM5.64471 35.1735C5.64471 35.3321 5.64471 35.4906 5.69746 35.6492C5.7502 35.8078 5.80295 35.9135 5.8557 36.0192C5.90844 36.1249 6.01394 36.1778 6.11943 36.2306C6.22493 36.2835 6.38317 36.2835 6.48866 36.2835C6.64691 36.2835 6.7524 36.2835 6.85789 36.2306C6.96339 36.1778 7.06888 36.1249 7.12163 36.0192C7.17438 35.9135 7.27987 35.8078 7.27987 35.6492C7.33262 35.4906 7.33262 35.3849 7.33262 35.1735C7.33262 35.0149 7.33262 34.8563 7.27987 34.6978C7.22712 34.5392 7.17438 34.4335 7.12163 34.3278C7.06888 34.2221 6.96339 34.1692 6.85789 34.1163C6.7524 34.0634 6.59416 34.0635 6.48866 34.0635C6.33042 34.0635 6.22493 34.1163 6.11943 34.1692C6.01394 34.2221 5.90844 34.2749 5.8557 34.3806C5.80295 34.4863 5.69746 34.5921 5.69746 34.7506C5.64471 34.9092 5.64471 35.0149 5.64471 35.1735Z" fill="#c9d8f7"/>
<path d="M14.8762 36.3376C14.9817 36.3376 15.0872 36.3376 15.14 36.2848C15.1927 36.2848 15.2455 36.232 15.2982 36.232C15.3509 36.1791 15.3509 36.1791 15.4037 36.1263C15.4037 36.0734 15.4037 36.0205 15.4037 35.9676C15.4037 35.862 15.3509 35.7563 15.2455 35.7034C15.14 35.6505 14.9817 35.5448 14.7179 35.492C14.6124 35.3863 14.507 35.3863 14.4015 35.3334C14.296 35.2805 14.1905 35.2276 14.085 35.122C13.9795 35.0691 13.9268 34.9634 13.874 34.8576C13.8213 34.752 13.7686 34.5934 13.7686 34.4348C13.7686 34.2763 13.8213 34.1176 13.874 34.012C13.9268 33.9063 14.0323 33.8005 14.1378 33.6948C14.2432 33.5891 14.4015 33.5363 14.507 33.4834C14.6652 33.4305 14.8234 33.4305 15.0345 33.4305C15.2455 33.4305 15.4564 33.4305 15.6147 33.4834C15.7729 33.5363 15.9311 33.5891 16.0366 33.642L15.8256 34.2234C15.7201 34.1705 15.6147 34.1176 15.5092 34.1176C15.4037 34.0648 15.2455 34.0648 15.0872 34.0648C14.929 34.0648 14.7707 34.0648 14.7179 34.1176C14.6124 34.1705 14.6124 34.2234 14.6124 34.3291C14.6124 34.382 14.6124 34.4348 14.6652 34.4876C14.7179 34.5405 14.7179 34.5934 14.7707 34.5934C14.8234 34.6463 14.8762 34.6463 14.9817 34.6991C15.0345 34.752 15.14 34.752 15.1927 34.8048C15.3509 34.8576 15.5092 34.9105 15.6674 35.0163C15.7729 35.0691 15.9311 35.1748 15.9839 35.2276C16.0894 35.3334 16.1422 35.3863 16.1949 35.5448C16.2477 35.6505 16.2477 35.8091 16.2477 35.9676C16.2477 36.2848 16.1422 36.5491 15.9311 36.7076C15.7201 36.8663 15.3509 36.972 14.929 36.972C14.7707 36.972 14.6652 36.972 14.507 36.9191C14.4015 36.9191 14.296 36.8663 14.1905 36.8663C14.085 36.8134 14.0323 36.8134 13.9268 36.7605C13.874 36.7076 13.8213 36.7076 13.7686 36.6548L13.9795 36.0205C14.085 36.0734 14.1905 36.1263 14.3487 36.1791C14.4542 36.2848 14.6652 36.3376 14.8762 36.3376Z" fill="#c9d8f7"/>
<path d="M18.7256 36.9186V33.5358H20.9937V34.1701H19.464V34.8572H20.8355V35.4915H19.464V36.3372H21.0992V36.9715H18.7256V36.9186Z" fill="#c9d8f7"/>
<path d="M25.3197 34.1176C24.9505 34.1176 24.6868 34.2234 24.5286 34.4348C24.3703 34.6463 24.2648 34.9105 24.2648 35.2276C24.2648 35.3863 24.2648 35.5448 24.3176 35.7034C24.3703 35.862 24.4231 35.9676 24.4758 36.0734C24.5286 36.1791 24.634 36.232 24.7923 36.2848C24.8978 36.3376 25.056 36.3905 25.2142 36.3905H25.4253H25.5835V35.2276H26.3219V36.9191C26.2164 36.972 26.0582 36.972 25.9 37.0248C25.7417 36.972 25.5308 36.972 25.2142 36.972C24.9505 36.972 24.7395 36.9191 24.5286 36.8663C24.3176 36.8134 24.1593 36.6548 24.001 36.4963C23.8428 36.3376 23.7373 36.1791 23.6846 35.9676C23.5791 35.7563 23.5791 35.492 23.5791 35.2276C23.5791 34.9634 23.6318 34.6991 23.7373 34.4876C23.8428 34.2763 23.9483 34.0648 24.1065 33.9063C24.2648 33.7476 24.4231 33.642 24.634 33.5363C24.845 33.4834 25.056 33.4305 25.3197 33.4305C25.478 33.4305 25.6363 33.4305 25.7417 33.4834C25.8472 33.4834 26.0055 33.5363 26.0582 33.5363C26.1637 33.5891 26.2164 33.5891 26.2692 33.642C26.3219 33.6948 26.3747 33.6948 26.3747 33.6948L26.1109 34.2763C26.0055 34.2234 25.9 34.1705 25.7417 34.1176C25.6363 34.1176 25.478 34.1176 25.3197 34.1176Z" fill="#c9d8f7"/>
<path d="M30.3822 36.9715C30.1185 36.9715 29.9602 36.9186 29.7493 36.8658C29.591 36.8129 29.4327 36.7072 29.3272 36.6015C29.2217 36.4958 29.1162 36.3372 29.0635 36.1786C29.0108 36.0201 28.958 35.8086 28.958 35.6501V33.5358H29.802V35.5972C29.802 35.7558 29.802 35.8615 29.8547 35.9672C29.9075 36.0729 29.9075 36.1258 29.9602 36.1786C30.013 36.2315 30.0657 36.2844 30.1712 36.2844C30.2239 36.3372 30.3294 36.3372 30.4349 36.3372C30.6459 36.3372 30.7515 36.2844 30.9097 36.1786C31.0152 36.0729 31.0679 35.8615 31.0679 35.5972V33.5358H31.8063V35.6501C31.8063 35.8615 31.7536 36.0201 31.7008 36.1786C31.6481 36.3372 31.5426 36.4958 31.4371 36.6015C31.3316 36.7072 31.1734 36.8129 31.0152 36.8658C30.857 36.9186 30.6459 36.9715 30.3822 36.9715Z" fill="#c9d8f7"/>
<path d="M35.4993 33.4829C36.0268 33.4829 36.396 33.5886 36.6597 33.7472C36.9235 33.9058 37.0817 34.2229 37.0817 34.5929C37.0817 34.8572 37.029 35.0158 36.9235 35.1744C36.818 35.3329 36.6597 35.4386 36.4487 35.5444C36.5014 35.6501 36.6069 35.7029 36.6597 35.8615C36.7125 35.9672 36.818 36.0729 36.8707 36.1786C36.9235 36.2844 37.029 36.4429 37.0817 36.5486C37.1345 36.6544 37.2399 36.8129 37.2927 36.9186H36.4487C36.396 36.8129 36.3432 36.7072 36.2377 36.6015C36.185 36.4958 36.1322 36.3901 36.0268 36.2844C35.974 36.1786 35.8685 36.0729 35.8158 35.9672C35.763 35.8615 35.7103 35.8086 35.6048 35.7029H35.2355V36.9186H34.4971V33.5886C34.6553 33.5358 34.8136 33.5358 35.0245 33.5358C35.1828 33.4829 35.341 33.4829 35.4993 33.4829ZM35.5521 34.1172C35.4993 34.1172 35.4465 34.1172 35.3937 34.1172C35.341 34.1172 35.2883 34.1172 35.2883 34.1172V35.0158H35.4993C35.763 35.0158 35.974 34.9629 36.1322 34.9101C36.2377 34.8572 36.3432 34.6986 36.3432 34.5401C36.3432 34.3815 36.2905 34.2758 36.1322 34.1701C35.974 34.1701 35.763 34.1172 35.5521 34.1172Z" fill="#c9d8f7"/>
<path d="M42.8837 35.1748C42.8837 35.492 42.8309 35.7034 42.7782 35.9676C42.6727 36.1791 42.5672 36.3905 42.409 36.4963C42.2507 36.6548 42.0924 36.7605 41.8815 36.8134C41.6177 36.9191 41.4068 36.972 41.1958 36.972C40.9847 36.972 40.721 36.9191 40.5628 36.8663C40.3518 36.8134 40.1936 36.6548 40.0354 36.5491C39.877 36.3905 39.7715 36.232 39.6661 36.0205C39.5606 35.8091 39.5078 35.5448 39.5078 35.2276C39.5078 34.9105 39.5606 34.6991 39.6661 34.4348C39.7715 34.2234 39.877 34.012 40.0354 33.8534C40.1936 33.6948 40.3518 33.5891 40.5628 33.5363C40.7738 33.4834 40.9847 33.4305 41.1958 33.4305C41.4068 33.4305 41.6705 33.4834 41.8287 33.5363C42.0397 33.5891 42.1979 33.7476 42.3562 33.8534C42.5145 34.012 42.62 34.1705 42.7254 34.4348C42.8309 34.6463 42.8837 34.9105 42.8837 35.1748ZM40.2463 35.1748C40.2463 35.3334 40.2463 35.492 40.2991 35.6505C40.3518 35.8091 40.4046 35.9148 40.4573 36.0205C40.51 36.1263 40.6155 36.1791 40.721 36.232C40.8265 36.2848 40.9847 36.2848 41.0902 36.2848C41.2485 36.2848 41.354 36.2848 41.4595 36.232C41.565 36.1791 41.6705 36.1263 41.7232 36.0205C41.776 35.9148 41.8815 35.8091 41.8815 35.6505C41.9342 35.492 41.9342 35.3863 41.9342 35.1748C41.9342 35.0163 41.9342 34.8576 41.8815 34.6991C41.8287 34.5405 41.776 34.4348 41.7232 34.3291C41.6705 34.2234 41.565 34.1705 41.4595 34.1176C41.354 34.0648 41.1957 34.0648 41.0902 34.0648C40.932 34.0648 40.8265 34.1176 40.721 34.1705C40.6155 34.2234 40.51 34.2763 40.4573 34.382C40.4046 34.4876 40.2991 34.5934 40.2991 34.752C40.2991 34.9105 40.2463 35.0163 40.2463 35.1748Z" fill="#c9d8f7"/>
<path d="M49.5824 36.9186C49.4241 36.6544 49.3186 36.3372 49.1604 36.0201C49.0549 35.7029 48.8967 35.3858 48.7912 35.1215C48.6857 34.8044 48.5802 34.5401 48.4748 34.2758C48.3692 34.0115 48.2637 33.7472 48.2109 33.5358H49.0549C49.1077 33.7472 49.2132 33.9586 49.2659 34.1701C49.3186 34.3815 49.4241 34.6458 49.5296 34.8572C49.6352 35.0686 49.6879 35.2801 49.7407 35.4915C49.7934 35.7029 49.8989 35.8615 49.9517 36.0201C50.0044 35.8615 50.1099 35.7029 50.1626 35.4915C50.2154 35.2801 50.3209 35.0686 50.3736 34.8572C50.4791 34.6458 50.5318 34.3815 50.5846 34.1701C50.6373 33.9586 50.7428 33.7472 50.7956 33.5358H51.5868C51.5341 33.7472 51.4286 34.0115 51.3231 34.2758C51.2176 34.5401 51.1121 34.8572 51.0066 35.1215C50.9011 35.4386 50.7428 35.7029 50.6373 36.0201C50.5318 36.3372 50.3736 36.6015 50.2154 36.9186H49.5824Z" fill="#c9d8f7"/>
<path d="M54.0674 33.4829H54.8058V36.8658H54.0674V33.4829Z" fill="#c9d8f7"/>
<path d="M59.8689 36.9186C59.8161 36.8129 59.8161 36.6544 59.7634 36.5486C59.7106 36.4429 59.6578 36.2844 59.6578 36.1786H58.2864C58.2336 36.2844 58.1809 36.4429 58.1809 36.5486C58.1282 36.6544 58.0754 36.8129 58.0754 36.9186H57.2314C57.337 36.5486 57.4952 36.2315 57.6007 35.9144C57.7062 35.5972 57.8117 35.3329 57.9172 35.0158C58.0227 34.7515 58.1282 34.4872 58.2336 34.2229C58.3391 33.9586 58.4446 33.7472 58.5502 33.4829H59.2886C59.3941 33.6944 59.4996 33.9586 59.6051 34.2229C59.7106 34.4872 59.8161 34.7515 59.9216 35.0158C60.0271 35.2801 60.1326 35.5972 60.2381 35.9144C60.3436 36.2315 60.449 36.5486 60.6073 36.9186H59.8689ZM58.9721 34.2758C58.9721 34.3286 58.9194 34.3815 58.9194 34.4872C58.8667 34.5929 58.8667 34.6458 58.8139 34.8044C58.7612 34.9101 58.7084 35.0158 58.6557 35.1744C58.6029 35.3329 58.5502 35.4386 58.4974 35.5972H59.4468C59.3941 35.4386 59.3413 35.3329 59.2886 35.1744C59.2359 35.0158 59.1831 34.9101 59.1304 34.8044C59.0776 34.6986 59.0249 34.5929 59.0249 34.4872C58.9721 34.3815 58.9721 34.3286 58.9721 34.2758Z" fill="#c9d8f7"/>
<path d="M64.6167 34.1172C64.2475 34.1172 63.9837 34.2229 63.8255 34.4344C63.6672 34.6458 63.5617 34.9101 63.5617 35.2272C63.5617 35.3858 63.5617 35.5444 63.6145 35.7029C63.6672 35.8615 63.72 35.9672 63.7727 36.0729C63.8255 36.1786 63.9309 36.2315 64.0892 36.2844C64.1947 36.3372 64.353 36.3901 64.5112 36.3901H64.7222H64.8804V35.2272H65.6189V36.9186C65.5134 36.9715 65.3552 36.9715 65.1969 37.0244C64.9859 37.0772 64.7222 37.0772 64.4585 37.0772C64.1948 37.0772 63.9837 37.0244 63.7727 36.9715C63.5617 36.9186 63.4035 36.7601 63.2453 36.6015C63.0871 36.4429 62.9815 36.2844 62.9287 36.0729C62.8232 35.8615 62.8232 35.5972 62.8232 35.3329C62.8232 35.0686 62.876 34.8044 62.9816 34.5929C63.0871 34.3815 63.1925 34.1701 63.3508 34.0115C63.509 33.8529 63.6672 33.7472 63.8782 33.6415C64.0892 33.5886 64.3003 33.5358 64.564 33.5358C64.7222 33.5358 64.8804 33.5358 64.9859 33.5886C65.0914 33.5886 65.2496 33.6415 65.3024 33.6415C65.408 33.6944 65.4607 33.6944 65.5134 33.7472C65.5662 33.8001 65.6189 33.8001 65.6189 33.8001L65.408 34.4344C65.3024 34.3815 65.1969 34.3286 65.0387 34.2758C64.9332 34.1172 64.7749 34.1172 64.6167 34.1172Z" fill="#c9d8f7"/>
<path d="M68.3613 36.9186V33.5358H70.6295V34.1701H69.0998V34.8572H70.4713V35.4915H69.0998V36.3372H70.735V36.9715H68.3613V36.9186Z" fill="#c9d8f7"/>
<path d="M74.1633 33.4829C74.2161 33.5886 74.2688 33.7472 74.3743 33.9058C74.4271 34.0644 74.5325 34.2229 74.638 34.4344C74.7435 34.5929 74.7963 34.8044 74.9017 35.0158C75.0072 35.2272 75.06 35.3858 75.1127 35.5444C75.1655 35.3858 75.271 35.1744 75.3238 35.0158C75.4293 34.8044 75.482 34.6458 75.5875 34.4344C75.693 34.2758 75.7457 34.0644 75.8512 33.9058C75.904 33.7472 76.0094 33.5886 76.0622 33.4829H76.7479C76.8007 33.6944 76.8007 33.9586 76.8534 34.2229C76.9062 34.4872 76.9062 34.8044 76.9062 35.1215C76.9062 35.4386 76.9589 35.7029 76.9589 36.0201C76.9589 36.3372 77.0117 36.6015 77.0117 36.8658H76.2732C76.2732 36.5486 76.2732 36.1786 76.2204 35.8086C76.2204 35.4386 76.1677 35.0158 76.1677 34.6458C76.1149 34.8044 76.0622 34.9101 75.9567 35.1215C75.904 35.2801 75.7985 35.4386 75.7457 35.5972C75.693 35.7558 75.5875 35.9144 75.5348 36.0729C75.482 36.2315 75.4293 36.3372 75.3765 36.4429H74.849C74.7963 36.3372 74.7435 36.2315 74.6908 36.0729C74.638 35.9144 74.5325 35.7558 74.4798 35.5972C74.4271 35.4386 74.3216 35.2801 74.2688 35.1215C74.2161 34.9629 74.1105 34.8044 74.0578 34.6458C74.005 35.0158 74.005 35.4386 74.005 35.8086C74.005 36.1786 73.9523 36.5486 73.9523 36.8658H73.2139C73.2139 36.6015 73.2666 36.3372 73.2666 36.0201C73.2666 35.7029 73.3194 35.4386 73.3194 35.1215C73.3194 34.8044 73.3721 34.5401 73.3721 34.2229C73.4248 33.9586 73.4248 33.6944 73.4776 33.4829H74.1633Z" fill="#c9d8f7"/>
<path d="M85.0298 36.9186C84.8188 36.5486 84.5551 36.1258 84.3441 35.7558C84.0804 35.3858 83.8166 35.0158 83.5529 34.6986V36.9186H82.8145V33.5358H83.4474C83.5529 33.6415 83.6583 33.8001 83.8166 33.9586C83.9221 34.1172 84.0804 34.2758 84.2386 34.4872C84.3968 34.6458 84.5023 34.8572 84.6606 35.0158C84.8188 35.2272 84.9243 35.3858 85.0298 35.5444V33.5358H85.7683V36.9186H85.0298Z" fill="#c9d8f7"/>
<path d="M88.0356 34.4348C88.0356 34.5934 88.0356 34.752 87.9829 34.8576C87.9301 34.9634 87.8774 35.0691 87.7719 35.1748C87.6664 35.2805 87.6136 35.3334 87.4554 35.3863C87.3499 35.4391 87.1916 35.4391 87.0862 35.4391C86.9279 35.4391 86.8224 35.4391 86.7169 35.3863C86.6115 35.3334 86.506 35.2805 86.4004 35.1748C86.2949 35.0691 86.2422 34.9634 86.1894 34.8576C86.1367 34.752 86.1367 34.5934 86.1367 34.4348C86.1367 34.2763 86.1367 34.1176 86.1894 34.012C86.2422 33.9063 86.2949 33.8005 86.4004 33.6948C86.506 33.5891 86.6115 33.5363 86.7169 33.4834C86.8224 33.4305 86.9807 33.4305 87.0862 33.4305C87.2444 33.4305 87.3499 33.4305 87.4554 33.4834C87.5608 33.5363 87.6664 33.5891 87.7719 33.6948C87.8774 33.8005 87.9301 33.9063 87.9829 34.012C88.0356 34.1176 88.0356 34.2763 88.0356 34.4348ZM87.4554 34.4348C87.4554 34.2763 87.4026 34.1705 87.3499 34.0648C87.2971 33.9591 87.1916 33.9063 87.0334 33.9063C86.9279 33.9063 86.8224 33.9591 86.7169 34.0648C86.6642 34.1705 86.6115 34.2763 86.6115 34.4348C86.6115 34.5934 86.6642 34.6991 86.7169 34.8048C86.7697 34.9105 86.8752 34.9634 87.0334 34.9634C87.1389 34.9634 87.2444 34.9105 87.3499 34.8048C87.4554 34.6991 87.4554 34.5934 87.4554 34.4348Z" fill="#c9d8f7"/>
<path d="M90.832 34.2229C90.9375 34.1701 91.043 34.1172 91.1486 34.0644C91.2541 34.0115 91.3595 33.9586 91.465 33.9058C91.5705 33.8529 91.676 33.8001 91.7287 33.6944C91.8342 33.6415 91.887 33.5358 91.9925 33.4829H92.52V36.8658H91.7815V34.4344C91.676 34.4872 91.5705 34.5401 91.465 34.5929C91.3595 34.6458 91.2013 34.6986 91.0958 34.7515L90.832 34.2229Z" fill="#c9d8f7"/>
</g>
<defs>
<clipPath id="clip0_10706_4946">
<rect width="96" height="37" fill="white" transform="translate(0.651367 0.5)"/>
</clipPath>
</defs>
</svg>
