<?xml version="1.0" encoding="UTF-8"?>
<svg id="Camada_1" xmlns="http://www.w3.org/2000/svg" version="1.1" viewBox="0 0 285.6 64.6">
  <!-- Generator: Adobe Illustrator 29.6.1, SVG Export Plug-In . SVG Version: 2.1.1 Build 9)  -->
  <g>
    <path d="M23.9,35.5v1.7c0,9.6-4.3,13.6-10.9,13.6s-10.8-4-10.8-13.6v-3.3c0-9.6,4.2-13.6,10.8-13.6s9.7,3.1,10.7,9.6h-3.6c-.9-4.4-3.3-6.2-7.1-6.2s-7.1,2.8-7.1,10.2v3.3c0,7.4,2.5,10.2,7.1,10.2s6.8-2.4,7.2-8.6h-7.1v-3.4h10.8,0Z"/>
    <path d="M46.6,50.4l-6.2-12.5h-7v12.5h-3.7v-29.7h9.5c6.8,0,10.8,2.8,10.8,8.6s-2.1,6.8-5.9,7.9l6.6,13.2s-4.1,0-4.1,0ZM39.1,34.5c5,0,7.1-1.6,7.1-5.2s-2.1-5.3-7.1-5.3h-5.8v10.5h5.8Z"/>
    <path d="M64.9,50.7c-6.6,0-10.8-4-10.8-13.6v-3.3c0-9.6,4.2-13.6,10.8-13.6s10.8,4,10.8,13.6v3.3c0,9.6-4.2,13.6-10.8,13.6ZM57.9,37.2c0,7.4,2.5,10.2,7.1,10.2s7.1-2.8,7.1-10.2v-3.3c0-7.4-2.5-10.2-7.1-10.2s-7.1,2.8-7.1,10.2v3.3Z"/>
    <path d="M89.2,50.4h-3.7l-7.2-29.7h3.9l5.4,23.3,6.5-23.3h3.7l6.7,23.5,5.4-23.5h3.9l-7.2,29.7h-3.7l-6.8-23.1-6.7,23.1h-.2Z"/>
  </g>
  <g>
    <path d="M185.3,27.3c-1.6-2.1-3.3-3.6-7.1-3.6s-5.8,1.5-5.8,4.7,2.7,4.7,7,5.5c5.7,1,9.2,3.1,9.2,8.6s-2.6,8.3-10,8.3-8.4-1.6-10.6-4.9l3.1-2.1c1.9,2.3,3.7,3.6,7.5,3.6s6.3-2.2,6.3-4.8-1.4-4.7-7-5.6c-5.6-.9-9.2-3.5-9.2-8.7s2.8-8,9.6-8,7.7,1.6,9.8,4.9l-2.9,2.1h0Z"/>
    <path d="M210.8,29.9c-1-4.7-3.4-6.2-7.1-6.2s-7.1,2.8-7.1,10.2v3.3c0,7.4,2.5,10.2,7.1,10.2s6.1-1.9,7.1-6.2h3.6c-.9,6.7-5,9.6-10.6,9.6s-10.8-4-10.8-13.6v-3.3c0-9.6,4.2-13.6,10.8-13.6s9.7,3.1,10.7,9.6h-3.7Z"/>
    <path d="M216.1,50.4l10.3-29.7h3.4l10.3,29.7h-3.9l-2.3-6.8h-11.7l-2.3,6.8h-3.9,0ZM223.5,40.2h9.4l-4.7-14-4.7,14Z"/>
    <path d="M248,47h14.2v3.4h-17.9v-29.7h3.7v26.4h0Z"/>
    <path d="M283.8,20.7v3.4h-14.2v9.3h12.9v3.4h-12.9v10.3h14.2v3.4h-17.9v-29.7h17.9Z"/>
  </g>
  <g>
    <path d="M172.4,36.3l-4.3-1.6s-5.8,9.1-9.8,14.5l-4.9,5.5c-4.6,4.3-12.2,9.9-19.8,9.9s-8.2-1.1-11.9-3.2c1.8.3,3.6.3,5.3.2.3,0,.6,0,.9,0,.4,0,.8,0,1.2-.2.3,0,.5,0,.8-.2.3,0,.5,0,.8-.2.3,0,.6,0,.9-.2.3,0,.6-.2.9-.3.3,0,.6-.2.8-.3.3,0,.6-.2.8-.3.3,0,.5-.2.8-.3.2,0,.5-.2.7-.3.3,0,.5-.3.8-.4.2,0,.5-.2.7-.4.2,0,.5-.2.7-.4.2,0,.5-.2.7-.4.9-.5,1.7-1,2.5-1.6.2,0,.4-.2.5-.4,2-1.4,3.3-2.6,3.8-3.1h.1c0,0,.1-.2.1-.2,1-.9,1.9-1.9,2.9-2.9l4.6-5.7c4.6-6.2,8-12.3,8-12.3l-3-1.7,10.5-6.1,3.8,12.7h0Z"/>
    <polygon points="170.6 62.5 160.6 62.5 153.3 54.8 158.2 49.3 170.6 62.5"/>
    <path d="M125.6,39h0l7.8-5.4,14.9,15.9,4.6-5.7-13.5-14.4h0l4.5-3.1c.5-.3,1-.7,1.5-1.1.2-.1.3-.3.5-.4,0,0,.2-.2.3-.3.6-.6,1.2-1.3,1.7-2,.1-.1.2-.3.3-.4.2-.3.4-.6.6-.9.1-.2.3-.5.4-.8.1-.2.2-.5.3-.8h0c0-.2.1-.3.2-.5,0-.2.1-.3.2-.5v-.2c.1-.4.2-.8.3-1.2q0-.3,0,0v-4.2C149.5,5.7,143,0,135.2,0s-12.4,4.2-14.4,10c-.5,1.4-.7,2.8-.7,4.4,0,3.5,1.3,6.7,3.4,9.2,0,0,0,.2.2.2l.4.5,3.7,3.9h0l-6.1,4.3-3.5,2.4h0c-2.6,2.3-5.8,6.5-5.8,12.8h0c0,6.2,3.7,10.9,8.7,13.7h0c1.8.3,3.6.3,5.3.2.3,0,.6,0,.9,0,.4,0,.8,0,1.2-.2.3,0,.5,0,.8-.2.3,0,.5,0,.8-.2.3,0,.6-.2.9-.2s.6-.2.9-.3c.3,0,.6-.2.8-.3.3,0,.6-.2.8-.3.3,0,.5-.2.8-.3.2,0,.5-.2.7-.3.3,0,.5-.3.8-.4.2,0,.5-.2.7-.4.2,0,.5-.2.7-.4.2,0,.5-.3.7-.4.9-.5,1.7-1,2.5-1.6.2,0,.4-.2.5-.4,2-1.4,3.3-2.6,3.8-3.1-7.7,6.7-19.2,3.2-21.9.8-2.5-2.4-4.4-8.8,2.2-14.4h.6ZM128.1,14.4c0-4,3.4-7.3,7.6-7.3s7.6,3.3,7.6,7.3-1,4-2.5,5.4h0c-.4.4-.9.7-1.4,1h0l-4.8,3.2-4-4.3c-.3-.3-.7-.6-.9-1-1-1.2-1.5-2.7-1.5-4.3h-.1Z"/>
  </g>
</svg>