<svg width="63" height="64" viewBox="0 0 63 64" fill="none" xmlns="http://www.w3.org/2000/svg">
<path d="M33.6297 54.1641C33.5247 54.22 33.4214 54.2777 33.3163 54.3337C32.6966 54.7161 32.0218 54.976 31.3451 55.2303C29.8885 56.0187 28.309 56.4841 26.7652 57.0417L26.7527 57.038C26.815 56.6123 27.2104 56.5852 27.4863 56.4373C33.4534 53.2747 38.9059 49.4319 43.1724 44.0701C46.7427 39.5833 49.0611 34.5535 49.1697 28.6901C49.2588 23.8804 47.9304 19.5271 44.5524 16.0199C39.855 11.1416 33.5692 11.1506 28.7702 15.9441C27.8621 16.8516 27.0625 17.8511 26.2862 18.9299C26.1455 18.7513 26.0494 18.6394 25.9639 18.5204C23.9606 15.7475 21.2843 15.2766 18.4369 17.1836C16.8771 18.2281 15.6768 19.6281 14.5853 21.1381C14.4874 21.2735 14.4553 21.49 14.1455 21.4773C14.3502 20.7953 14.5782 20.1531 14.9824 19.5849C16.4354 16.9544 18.5349 15.125 21.4107 14.2555C22.2547 13.9993 23.1183 13.9885 23.9642 14.1653C25.0415 14.3908 25.8517 15.0114 26.2826 16.1444C26.7599 15.4011 26.8311 14.5856 27.0483 13.8297C28.1986 9.8174 31.7885 7.11123 35.893 7.02464C40.8647 6.92001 44.9121 8.97668 48.4468 12.2998C51.8675 15.5148 54.031 19.4567 54.7077 24.1438C55.6568 30.718 54.1236 36.6571 49.9639 41.8403C47.1505 45.3456 43.7333 48.1528 39.9921 50.5812C37.9461 51.9089 35.8716 53.1863 33.6262 54.1478L33.6511 54.1641H33.6297Z" fill="#004A2A"/>
<path d="M33.8123 53.9609C35.9544 52.6998 38.1678 51.5661 40.2316 50.1704C44.8204 47.0707 49.1883 43.6748 51.9554 38.756C58.8858 26.4411 53.3248 12.526 41.5101 8.16331C38.9869 7.23229 36.3889 6.9668 33.7482 7.68614C30.9294 8.45392 28.9849 10.2478 27.7758 12.8866C27.206 14.1316 26.8374 15.4411 26.638 16.8044C26.549 16.7757 26.4635 16.7739 26.4493 16.7416C25.5981 14.5871 24.1771 13.8553 21.8623 14.4455C19.266 15.1074 17.3572 16.7488 15.8044 18.8745C15.6157 19.1328 15.5035 19.4665 15.167 19.5957C15.8525 16.7416 19.5421 13.3135 22.3377 12.9332C24.3676 12.657 25.6835 13.457 26.6736 15.633C26.8553 14.8599 26.9995 14.153 27.19 13.457C28.3438 9.22708 31.7984 6.46272 36.1165 6.06268C43.2088 5.40612 50.5612 9.9805 53.5474 16.3487C57.764 25.3396 56.4196 33.8426 50.474 41.5922C46.2609 47.085 40.6073 50.8019 34.4871 53.8371C34.2628 53.9484 34.0527 54.0148 33.8105 53.9591L33.8123 53.9609Z" fill="#004A2A"/>
<path d="M10.7564 29.6532C11.4181 27.8826 12.0781 26.3066 12.5935 24.6727C12.9127 23.6638 13.365 23.2614 14.3326 23.3719C15.3052 23.4842 15.3152 23.3981 14.9295 24.3807C13.8471 27.1452 12.7365 29.8985 11.6941 32.6816C11.4331 33.3797 11.1039 33.58 10.4571 33.5613C8.71641 33.5108 8.71143 33.5463 8.36395 31.611C7.9217 29.1385 7.49941 26.6586 7.03888 24.1898C6.93081 23.6133 7.0289 23.4337 7.57755 23.4224C9.64413 23.3794 9.64579 23.3588 10.0199 25.6366C10.221 26.8607 10.4189 28.0867 10.6201 29.3126C10.63 29.3706 10.6616 29.423 10.7531 29.6532H10.7564Z" fill="#004A2A"/>
<path d="M38.8443 33.5534C37.9753 33.5534 37.1044 33.5309 36.2354 33.5609C35.7132 33.5796 35.5118 33.4394 35.605 32.8785C36.0974 29.9323 36.5711 26.9842 37.0354 24.0342C37.0988 23.6342 37.2368 23.4716 37.6751 23.436C40.2318 23.2322 40.2355 23.2191 39.8458 25.7448C39.6127 27.2515 39.3926 28.7602 39.1073 30.2576C38.9749 30.953 39.1987 31.1325 39.8533 31.0951C40.6272 31.0502 41.4067 31.1025 42.1825 31.0783C42.63 31.0633 42.796 31.1848 42.7046 31.6653C42.3019 33.8002 42.852 33.4562 40.6141 33.5496C40.0248 33.574 39.4337 33.5534 38.8443 33.5534Z" fill="#004A2A"/>
<path d="M24.0106 23.3625C24.9589 23.3625 25.907 23.383 26.8535 23.355C27.3409 23.3401 27.51 23.514 27.3676 24.0095C27.3339 24.1274 27.3231 24.2546 27.3036 24.378C27.0919 25.7171 27.0919 25.7507 25.8128 25.7152C25.1901 25.6965 24.95 25.8667 24.861 26.5605C24.5941 28.6252 24.2046 30.673 23.9235 32.7359C23.8381 33.3567 23.6477 33.5643 23.0393 33.5625C20.981 33.5531 20.9881 33.5812 21.3226 31.4529C21.5841 29.794 21.8082 28.1296 22.0857 26.4745C22.1854 25.8835 22.0395 25.7227 21.4613 25.7395C20.1609 25.7787 20.2107 25.7489 20.3228 24.3911C20.3904 23.5813 20.6892 23.3457 21.4328 23.4092C22.2868 23.4821 23.1514 23.4261 24.0106 23.4261C24.0106 23.4055 24.0106 23.3849 24.0106 23.3643V23.3625Z" fill="#004A2A"/>
<path d="M15.1768 38.2505C15.184 35.5391 16.9516 34.0872 19.3499 34.7375C20.3643 35.0136 21.1734 35.972 21.2419 36.9874C21.2491 37.0979 21.2617 37.2832 21.2076 37.3117C20.7085 37.57 20.1553 37.4132 19.6274 37.4791C19.2328 37.529 19.2112 37.2511 19.1679 36.9786C19.0976 36.5457 18.8201 36.2588 18.3949 36.2428C17.9048 36.225 17.667 36.5919 17.5516 37.0213C17.348 37.7784 17.3408 38.5373 17.5318 39.3034C17.6345 39.7095 17.8255 40.023 18.2742 40.0783C18.7751 40.1406 19.0292 39.8556 19.2003 39.4209C19.3553 39.0219 20.9626 38.817 21.2293 39.1448C21.3734 39.3212 21.2293 39.4797 21.1914 39.6436C20.8995 40.8853 19.9643 41.6424 18.6273 41.7208C17.0669 41.8134 15.9155 41.1364 15.42 39.8271C15.2182 39.2944 15.1371 38.7387 15.1768 38.2523V38.2505Z" fill="#004A2A"/>
<path d="M16.4372 33.5625C15.0584 33.5625 15.0548 33.5625 15.2724 32.1525C15.6791 29.5017 16.1108 26.8547 16.4854 24.1982C16.5746 23.5703 16.8011 23.3748 17.3879 23.3635C19.4303 23.3259 19.416 23.3033 19.0842 25.3807C18.7239 27.6292 18.385 29.8796 18.0479 32.1318C17.8339 33.5625 17.841 33.5625 16.4372 33.5625Z" fill="#004A2A"/>
<path d="M31.5 55C32.1603 54.6077 32.7892 54.1434 33.5417 53.9792C32.9718 54.5933 32.2415 54.809 31.5 55Z" fill="#004A2A"/>
<path fill-rule="evenodd" clip-rule="evenodd" d="M31.6511 23.3576L31.6461 23.3577L31.6427 23.3596C31.4913 23.4426 31.3009 23.4186 31.104 23.3936C30.7596 23.3501 30.3949 23.304 30.1826 23.8239C29.1247 26.4178 28.0788 29.0171 27.0326 31.6172C26.8554 32.0575 26.6782 32.4979 26.501 32.9382C26.4905 32.9648 26.4778 32.9918 26.465 33.0193C26.4035 33.151 26.3379 33.2914 26.4828 33.4267C26.8825 33.8001 28.6466 33.345 28.7869 32.771C29.0694 31.6194 29.6789 31.1718 30.7095 31.391C30.8681 31.4244 31.0399 31.4114 31.2034 31.3928C31.5883 31.3501 31.7237 31.5693 31.7947 31.9686C32.0537 33.4342 32.0639 33.4341 33.3903 33.4304H33.3952C33.4533 33.4299 33.5113 33.4283 33.5693 33.4268C33.7044 33.4231 33.8392 33.4195 33.9733 33.4286C34.4853 33.4639 34.6274 33.2465 34.5365 32.6577C34.2849 31.0369 34.0508 29.4117 33.8168 27.7866C33.6775 26.8195 33.5382 25.8524 33.3952 24.8863C33.1675 23.339 33.1574 23.3391 31.6511 23.3576ZM31.2729 27.1134C31.2574 26.9964 31.242 26.8793 31.2266 26.7622L31.2249 26.7603C31.1753 26.7511 31.1241 26.7399 31.073 26.7287C30.9855 26.9439 30.8977 27.159 30.8099 27.3742C30.6142 27.8538 30.4183 28.3338 30.2256 28.8146C30.2234 28.8202 30.2211 28.8259 30.2188 28.8315C30.1417 29.0222 30.0689 29.2024 30.3561 29.3124C31.1192 29.6059 31.542 29.2548 31.4363 28.3819C31.3846 27.9585 31.3288 27.5362 31.2729 27.1134Z" fill="#004A2A"/>
<path fill-rule="evenodd" clip-rule="evenodd" d="M35.4489 41.568C35.4781 41.5588 35.5194 41.5459 35.5824 41.5285H35.5783C35.4696 41.3007 35.3634 41.0772 35.2588 40.8568C34.969 40.2463 34.6909 39.6603 34.4017 39.0783C34.2583 38.7862 34.1518 38.5694 34.5759 38.3512C35.5598 37.8442 35.6562 37.0052 35.443 36.141C35.2216 35.2425 34.4632 34.8131 33.4711 34.6832C32.545 34.5621 31.6142 34.5782 30.6831 34.5944C30.1158 34.6043 29.5485 34.6142 28.982 34.593C28.5003 34.5749 28.4326 34.8113 28.4367 35.1595C28.4543 36.699 28.4632 38.2385 28.472 39.778C28.4745 40.2178 28.477 40.6575 28.4798 41.0973C28.4799 41.1097 28.48 41.1221 28.48 41.1343C28.4808 41.3593 28.4815 41.5432 28.8529 41.6151C30.5112 41.938 31.0011 41.6151 31.0011 40.1338V39.4139C31.0011 39.2262 31.0195 39.0476 31.2737 38.9935C31.5688 38.9303 31.7103 39.0892 31.8066 39.2984C31.8384 39.3679 31.8686 39.4378 31.8989 39.5077C31.9291 39.5776 31.9593 39.6475 31.9911 39.717C32.5951 41.0473 33.7232 41.6704 35.3754 41.5862C35.3937 41.5852 35.4115 41.5797 35.4489 41.568ZM31.8744 36.1718H31.8722C31.7877 36.1772 31.6981 36.1737 31.6091 36.1703C31.2471 36.1564 30.8943 36.1429 30.9273 36.7221C30.9519 37.1678 30.9785 37.4727 31.6242 37.4186C31.7053 37.4116 31.7887 37.4074 31.8722 37.4031C32.3756 37.3773 32.8824 37.3515 32.9053 36.7402C32.9278 36.1601 32.3597 36.1664 31.8744 36.1718Z" fill="#004A2A"/>
<path fill-rule="evenodd" clip-rule="evenodd" d="M36.8849 41.5055C37.0953 41.7247 37.5171 41.7247 38.3681 41.7247L38.3663 41.7228C38.4927 41.7228 38.6195 41.7244 38.7464 41.726C39.0287 41.7295 39.3118 41.7331 39.5931 41.7192C41.3102 41.6352 42.5529 40.3952 42.7093 38.6257C42.8867 36.6096 41.8849 35.072 40.1291 34.6904C39.5544 34.5648 38.9732 34.5808 38.3918 34.5968C38.0097 34.6073 37.6273 34.6178 37.2468 34.5881C36.7318 34.5479 36.5929 34.7616 36.6052 35.2638C36.6457 36.8398 36.6615 38.4175 36.6703 39.9953C36.6755 40.8561 36.6764 41.2884 36.8849 41.5055ZM38.778 37.7152C38.7752 37.8367 38.7723 37.9583 38.7723 38.0797H38.8057C38.8057 38.2198 38.8079 38.3602 38.8101 38.5006C38.815 38.8137 38.8198 39.1269 38.8004 39.4383C38.7529 40.2035 39.1836 40.1414 39.6265 39.9387C40.3471 39.6082 40.4859 38.8923 40.4859 38.1911C40.4859 37.4624 40.3857 36.6973 39.6282 36.3503C39.1607 36.1367 38.688 36.0819 38.7653 36.9037C38.7908 37.1724 38.7844 37.4436 38.778 37.7152Z" fill="#004A2A"/>
<path fill-rule="evenodd" clip-rule="evenodd" d="M25.2517 40.759C25.3763 41.592 25.8149 41.7831 26.3973 41.6371H26.3991C27.2692 41.6371 27.5815 41.2422 27.3359 40.4526C27.1721 39.9242 27.0065 39.3961 26.8408 38.8679C26.5701 38.0045 26.2993 37.1409 26.0359 36.2751C25.7632 35.3771 25.629 34.9318 25.336 34.7301C25.0467 34.5308 24.6024 34.5691 23.7167 34.6434C23.4325 34.6668 23.2589 34.7048 23.1606 35.0509C22.7337 36.5579 22.2873 38.06 21.8409 39.5616C21.6764 40.1152 21.5119 40.6688 21.3484 41.2224C21.3424 41.2424 21.3359 41.2623 21.3294 41.282C21.2823 41.4249 21.2394 41.5553 21.4677 41.6425C22.1554 41.9076 23.0237 41.5451 23.1992 40.8204C23.3273 40.2903 23.6466 40.238 24.0378 40.3101C24.1624 40.3326 24.307 40.3137 24.4524 40.2947C24.8081 40.2481 25.1683 40.201 25.2517 40.759ZM24.5118 37.9084C24.4469 37.6208 24.3787 37.3185 24.1624 37.0216H24.1606C24.1315 37.137 24.1035 37.2473 24.0766 37.3538C23.9978 37.6646 23.9273 37.943 23.8606 38.2223C23.8535 38.2524 23.8429 38.2843 23.832 38.317C23.7858 38.4552 23.7359 38.6047 23.9431 38.6587C24.1308 38.7073 24.3518 38.7001 24.5395 38.6461C24.7156 38.5957 24.6553 38.4178 24.6135 38.2945C24.6103 38.2851 24.6073 38.2761 24.6044 38.2674C24.5666 38.1515 24.5395 38.0313 24.5118 37.9084Z" fill="#004A2A"/>
</svg>
